<svg width="16" height="16" viewBox="0 0 16 16" fill="none" xmlns="http://www.w3.org/2000/svg">
<path d="M14.166 15.6777C12.4299 15.6777 10.7146 15.2993 9.02018 14.5423C7.32574 13.7854 5.78407 12.7125 4.39518 11.3236C3.00629 9.93468 1.93338 8.39301 1.17643 6.69857C0.419488 5.00412 0.0410156 3.28885 0.0410156 1.55273C0.0410156 1.30273 0.124349 1.0944 0.291016 0.927734C0.457682 0.761068 0.666016 0.677734 0.916016 0.677734H4.29102C4.48546 0.677734 4.65907 0.743707 4.81185 0.875651C4.96463 1.0076 5.0549 1.16385 5.08268 1.3444L5.62435 4.26107C5.65213 4.48329 5.64518 4.67079 5.60352 4.82357C5.56185 4.97635 5.48546 5.10829 5.37435 5.2194L3.35352 7.26107C3.63129 7.77496 3.96115 8.27148 4.3431 8.75065C4.72504 9.22982 5.14518 9.69162 5.60352 10.1361C6.03407 10.5666 6.48546 10.9659 6.95768 11.334C7.4299 11.702 7.9299 12.0388 8.45768 12.3444L10.416 10.3861C10.541 10.2611 10.7042 10.1673 10.9056 10.1048C11.107 10.0423 11.3049 10.025 11.4993 10.0527L14.3743 10.6361C14.5688 10.6916 14.7285 10.7923 14.8535 10.9382C14.9785 11.084 15.041 11.2472 15.041 11.4277V14.8027C15.041 15.0527 14.9577 15.2611 14.791 15.4277C14.6243 15.5944 14.416 15.6777 14.166 15.6777ZM2.56185 5.67773L3.93685 4.30273L3.58268 2.3444H1.72852C1.79796 2.91385 1.89518 3.47635 2.02018 4.0319C2.14518 4.58746 2.32574 5.13607 2.56185 5.67773ZM10.0202 13.1361C10.5618 13.3722 11.1139 13.5597 11.6764 13.6986C12.2389 13.8375 12.8049 13.9277 13.3743 13.9694V12.1361L11.416 11.7402L10.0202 13.1361Z" fill="#F5F5F5"/>
</svg>
