<svg width="20" height="20" viewBox="0 0 20 20" fill="none" xmlns="http://www.w3.org/2000/svg">
<path d="M8.35028 14.7245L15.0733 8.00145L14.0195 6.9477L8.35028 12.617L5.50028 9.76695L4.44653 10.8207L8.35028 14.7245ZM9.77128 19.9707C8.45728 19.9707 7.2222 19.7214 6.06603 19.2227C4.90986 18.724 3.9042 18.0473 3.04903 17.1925C2.19386 16.3376 1.51678 15.3324 1.01778 14.1767C0.518948 13.021 0.269531 11.7863 0.269531 10.4725C0.269531 9.15845 0.518865 7.92337 1.01753 6.7672C1.5162 5.61104 2.19295 4.60537 3.04778 3.7502C3.90261 2.89504 4.90786 2.21795 6.06353 1.71895C7.2192 1.22012 8.45395 0.970703 9.76778 0.970703C11.0818 0.970703 12.3169 1.22004 13.473 1.7187C14.6292 2.21737 15.6349 2.89412 16.49 3.74895C17.3452 4.60379 18.0223 5.60904 18.5213 6.7647C19.0201 7.92037 19.2695 9.15512 19.2695 10.469C19.2695 11.783 19.0202 13.018 18.5215 14.1742C18.0229 15.3304 17.3461 16.336 16.4913 17.1912C15.6364 18.0464 14.6312 18.7235 13.4755 19.2225C12.3199 19.7213 11.0851 19.9707 9.77128 19.9707ZM9.76953 18.4707C12.0029 18.4707 13.8945 17.6957 15.4445 16.1457C16.9945 14.5957 17.7695 12.704 17.7695 10.4707C17.7695 8.23737 16.9945 6.3457 15.4445 4.7957C13.8945 3.2457 12.0029 2.4707 9.76953 2.4707C7.5362 2.4707 5.64453 3.2457 4.09453 4.7957C2.54453 6.3457 1.76953 8.23737 1.76953 10.4707C1.76953 12.704 2.54453 14.5957 4.09453 16.1457C5.64453 17.6957 7.5362 18.4707 9.76953 18.4707Z" fill="#1C1B1F"/>
</svg>
