<svg width="24" height="25" viewBox="0 0 24 25" fill="none" xmlns="http://www.w3.org/2000/svg">
<path d="M12 23.25C6.07 23.25 1.25 18.43 1.25 12.5C1.25 6.57 6.07 1.75 12 1.75C17.93 1.75 22.75 6.57 22.75 12.5C22.75 18.43 17.93 23.25 12 23.25ZM12 3.25C6.9 3.25 2.75 7.4 2.75 12.5C2.75 17.6 6.9 21.75 12 21.75C17.1 21.75 21.25 17.6 21.25 12.5C21.25 7.4 17.1 3.25 12 3.25Z" fill="#292D32"/>
<path d="M15.7096 16.4298C15.5796 16.4298 15.4496 16.3998 15.3296 16.3198L12.2296 14.4698C11.4596 14.0098 10.8896 12.9998 10.8896 12.1098V8.00977C10.8896 7.59977 11.2296 7.25977 11.6396 7.25977C12.0496 7.25977 12.3896 7.59977 12.3896 8.00977V12.1098C12.3896 12.4698 12.6896 12.9998 12.9996 13.1798L16.0996 15.0298C16.4596 15.2398 16.5696 15.6998 16.3596 16.0598C16.2096 16.2998 15.9596 16.4298 15.7096 16.4298Z" fill="#292D32"/>
</svg>
