<svg width="90" height="57" viewBox="0 0 90 57" fill="none" xmlns="http://www.w3.org/2000/svg">
<path d="M46.5813 50.8745C45.0221 50.652 43.6737 49.8523 42.7202 48.5844C42.3603 48.1059 41.9505 47.3218 41.7625 46.7521C41.4717 45.8709 41.3426 44.8007 41.4083 43.8153C41.6122 40.7567 43.4664 38.4679 46.2432 37.8472C46.6138 37.7644 46.7576 37.7546 47.5965 37.7555C48.6121 37.7562 49.0358 37.8098 49.8107 38.034C50.4572 38.2211 51.2373 38.5856 51.5008 38.8237L51.5907 38.9049V40.4109C51.5907 41.3983 51.5765 41.9257 51.5496 41.9423C51.5271 41.9562 51.407 41.8748 51.2828 41.7615C50.0109 40.601 47.8155 40.1115 46.4071 40.6744C45.6149 40.991 44.913 41.7015 44.5629 42.5411C44.2989 43.1743 44.2647 43.3732 44.2656 44.2744C44.2663 45.0307 44.2743 45.1217 44.3723 45.4907C44.6567 46.5612 45.3271 47.4283 46.1785 47.8269C46.7183 48.0796 46.9321 48.1219 47.6564 48.1191C48.2057 48.117 48.3459 48.103 48.6549 48.0188L49.0144 47.921L49.0262 47.3837C49.047 46.4396 48.9178 45.8352 48.5195 45.0121C48.3922 44.7489 48.1677 44.3548 48.0208 44.1362C47.8739 43.9177 47.7591 43.7113 47.7657 43.6776C47.7764 43.6235 47.994 43.618 49.6742 43.6302C50.7172 43.6378 51.5841 43.6523 51.6006 43.6624C51.6171 43.6726 51.6306 45.0245 51.6306 46.6666V49.6523L51.5102 49.7379C51.338 49.8604 50.4789 50.2611 50.0329 50.4271C49.5346 50.6125 49.0188 50.7573 48.575 50.8363C48.0733 50.9258 47.0745 50.9448 46.5813 50.8745L46.5813 50.8745ZM59.0398 50.8688C57.645 50.6575 56.4931 50.0366 55.5762 49.0019C54.1149 47.3528 53.5383 45.0703 53.9913 42.7271C54.4412 40.3997 56.0949 38.4719 58.1682 37.858C58.8673 37.6511 59.8105 37.5952 60.5406 37.7176C62.2837 38.0097 63.8438 39.1942 64.7087 40.8822C65.7788 42.9709 65.7406 45.8104 64.6151 47.8322C63.7671 49.3554 62.3436 50.4381 60.7174 50.7967C60.4442 50.8569 59.2892 50.9066 59.0398 50.8688ZM60.5074 47.8941C61.4778 47.5312 62.1645 46.6897 62.4834 45.4724C62.6179 44.9594 62.6536 44.0358 62.5616 43.4555C62.2443 41.4559 60.7452 40.1875 59.1276 40.5502C58.2811 40.74 57.6127 41.3081 57.1627 42.2204C56.8065 42.9425 56.6771 43.6053 56.7152 44.5133C56.7602 45.5897 57.1078 46.4896 57.7349 47.1533C58.1357 47.5775 58.472 47.7889 58.9999 47.9488C59.365 48.0594 60.1406 48.0312 60.5074 47.894V47.8941ZM14.8718 50.7599C14.8559 50.7185 20.3684 38.594 20.5901 38.1829C20.6359 38.0979 20.6625 38.0931 21.0954 38.0931C21.5253 38.0931 21.5559 38.0988 21.6112 38.1829C21.6435 38.2322 22.0468 39.125 22.5074 40.1667C26.2047 48.5293 27.1462 50.6752 27.1462 50.7397C27.1462 50.7958 27.1165 50.8139 27.0247 50.8139C26.6247 50.8139 25.305 50.4046 24.7293 50.102C24.5241 49.9941 24.0269 49.6911 23.6243 49.4286C23.2217 49.166 22.7575 48.8781 22.5928 48.7887C21.7669 48.3406 20.43 47.9758 19.3974 47.9167L18.978 47.8927L18.7583 48.3437C18.6375 48.5918 18.4563 48.9216 18.3556 49.0765C17.7887 49.949 16.7623 50.545 15.4643 50.7552C15.0164 50.8277 14.8982 50.8286 14.8718 50.7601V50.7599ZM21.8474 44.4973C21.4555 43.6077 21.1184 42.8851 21.0982 42.8914C21.0463 42.9075 19.9971 45.3258 20.0296 45.3542C20.0444 45.367 20.2092 45.4092 20.396 45.4479C20.91 45.5545 21.6037 45.7644 22.0935 45.9616C22.3351 46.0589 22.5389 46.1332 22.5464 46.1266C22.5538 46.1202 22.2392 45.3869 21.8474 44.4973ZM5.07863 50.6875C5.06792 50.6583 5.05444 48.4542 5.04871 45.7894C5.04066 42.0512 5.02701 40.9191 4.98897 40.8337C4.96185 40.7729 4.80332 40.5674 4.63668 40.3771C4.09102 39.754 3.66087 39.0156 3.51395 38.4498C3.40002 38.0111 3.1215 38.0532 6.13119 38.0532C7.67054 38.0532 8.93621 38.0705 9.17802 38.0949C11.7217 38.351 13.6207 39.5987 14.4677 41.5704C14.6524 42.0004 14.7848 42.4356 14.8915 42.9636C14.9717 43.3605 14.9831 43.5354 14.9834 44.3738C14.9839 45.4723 14.9371 45.8155 14.6794 46.6039C14.2486 47.9214 13.472 48.9328 12.2772 49.7323C11.6229 50.1701 10.8972 50.4542 10.011 50.6194C9.58523 50.6988 9.38924 50.7063 7.32492 50.7228C5.49614 50.7374 5.09465 50.7311 5.07863 50.6875V50.6875ZM9.43183 47.8431C10.8665 47.5208 11.7434 46.7248 12.0937 45.4268C12.171 45.1404 12.1842 44.9927 12.1843 44.4136C12.1843 43.6295 12.1161 43.2843 11.8536 42.7388C11.5334 42.0737 11.0725 41.6148 10.3905 41.2822C9.7515 40.9706 9.20301 40.8578 8.23363 40.839L7.67444 40.8281L7.66413 44.3356C7.65846 46.2647 7.66335 47.868 7.67503 47.8985C7.70409 47.9745 9.0334 47.9326 9.43183 47.8431L9.43183 47.8431ZM28.6182 50.6376C28.5862 50.5676 28.5837 48.8381 28.6091 44.3271L28.644 38.1131L28.8872 38.1014L29.1303 38.0897L32.7306 41.3813C34.7107 43.1917 36.3403 44.6729 36.3518 44.6729C36.3633 44.6729 36.3728 43.214 36.3728 41.4309C36.3728 38.9625 36.3842 38.1775 36.4207 38.141C36.4761 38.0857 39.0329 38.0716 39.1189 38.1261C39.1587 38.1514 39.1669 39.4398 39.1588 44.436L39.1487 50.7142L38.9075 50.7259L38.6663 50.7376L35.0769 47.4361C33.1028 45.6202 31.4633 44.1202 31.4338 44.1027C31.3889 44.076 31.38 44.611 31.38 47.3394C31.38 49.1372 31.3691 50.6364 31.3558 50.6711C31.3343 50.7269 31.1771 50.7342 29.9969 50.7342H28.6623L28.6182 50.6376ZM70.2288 50.6447C70.2156 50.5953 70.2045 48.3612 70.2042 45.68L70.2036 40.8051H68.4541C67.1467 40.8051 66.6925 40.793 66.6567 40.7572C66.6215 40.722 66.6088 40.3794 66.6088 39.464C66.6088 38.3851 66.6172 38.2104 66.6716 38.1561C66.7279 38.0998 67.2307 38.0934 71.6144 38.094C74.2984 38.0943 76.5172 38.109 76.5449 38.1266C76.5843 38.1515 76.5931 38.4477 76.5849 39.4718L76.5744 40.7851L74.8069 40.7955L73.0395 40.8059V45.7071C73.0395 48.4027 73.0286 50.6367 73.0152 50.6714C72.9938 50.7272 72.8335 50.7345 71.6219 50.7345H70.2529L70.2288 50.6447ZM78.7193 50.6866C78.6556 50.623 78.649 38.2893 78.7129 38.1706C78.7533 38.0951 78.8406 38.0934 82.797 38.094C85.0341 38.0943 86.8643 38.1102 86.8948 38.1295C86.9712 38.1778 86.9267 38.4448 86.7545 38.9703C86.4141 40.0092 85.809 40.635 85.0215 40.7626C84.8704 40.7871 84.0689 40.8046 83.0951 40.8048L81.4275 40.8052V41.8815V42.9579L83.5145 42.9682L85.6015 42.9786V44.2945V45.6104L83.5145 45.6208L81.4275 45.6311V46.8071V47.9831H83.8212C85.944 47.9831 86.222 47.9902 86.2776 48.0458C86.332 48.1001 86.3404 48.274 86.3404 49.3445C86.3404 50.1202 86.325 50.6092 86.2991 50.6576C86.2586 50.733 86.1744 50.7347 82.5126 50.7347C79.6529 50.7347 78.7561 50.7234 78.7195 50.6868L78.7193 50.6866ZM23.0148 34.8503C22.9473 34.8011 22.959 34.778 23.1815 34.5214C23.548 34.0985 24.8698 32.8191 25.4287 32.3464C27.2422 30.8121 29.4588 29.4048 31.5797 28.4413C34.065 27.3122 36.6395 26.5478 39.2946 26.1506C39.6757 26.0936 40.025 26.0392 40.0709 26.0297C40.1274 26.018 40.2005 25.9191 40.2979 25.7225C40.4731 25.3691 40.6753 25.1269 40.9095 24.9898L41.0859 24.8866V24.5758C41.0859 24.3568 41.055 24.1608 40.9811 23.9117C40.7776 23.2258 40.7244 22.9968 40.6956 22.6826L40.6665 22.3653L40.5074 22.6373C40.3176 22.9615 39.9667 23.3534 39.6441 23.6012C39.2523 23.9022 39.2025 23.9148 38.4098 23.9135C37.067 23.9114 35.9697 23.6821 34.9948 23.1999C34.5269 22.9685 34.3235 22.8146 34.3438 22.7073C34.3526 22.6609 34.5352 22.5804 34.9551 22.438C35.7551 22.1665 36.1618 21.995 36.8476 21.6398C38.9455 20.5532 40.3503 19.0017 40.9822 17.0735C41.225 16.3326 41.3613 15.415 41.2396 15.3399C41.1691 15.2964 41.1074 15.4091 40.9474 15.8739C40.6226 16.817 40.0276 17.6072 39.1453 18.2675C38.7394 18.5712 38.002 18.9924 37.8762 18.9924C37.794 18.9924 37.7919 18.8807 37.8677 18.5463C37.9785 18.0572 37.9955 17.475 37.8987 17.4779C37.8833 17.4784 37.7987 17.5807 37.7108 17.7052C37.4754 18.0388 36.4238 19.1027 35.8757 19.5618C34.7703 20.4876 33.5302 21.3267 32.5151 21.8356C32.0866 22.0504 31.4673 22.3001 31.2944 22.3277C31.0864 22.3609 31.0916 22.3189 31.3581 21.8159C31.8429 20.9011 32.5491 19.1032 32.7724 18.2148C32.8386 17.9516 32.9303 17.5389 32.9761 17.2976C33.0622 16.8447 33.2167 15.7516 33.1976 15.7305C33.1916 15.7241 33.0679 15.8085 32.9225 15.9183C32.6402 16.1316 32.3653 16.2436 32.2954 16.1738C32.2311 16.1096 32.246 14.6096 32.3166 14.0378C32.4718 12.7807 32.7744 11.7742 33.3204 10.698C34.0403 9.2794 35.0857 8.13709 36.111 7.64879C36.5616 7.4342 36.7542 7.3882 37.202 7.3882C37.6179 7.3882 37.8715 7.45408 38.29 7.67071C38.7983 7.93389 39.1782 8.29255 39.3912 8.71049L39.4859 8.89628L39.2831 9.14913C38.7852 9.77006 38.6322 10.386 38.8068 11.0672C38.9054 11.4521 39.0118 11.6587 39.233 11.8948C39.4875 12.1665 39.812 12.3033 40.2539 12.3252C40.5852 12.3417 41.101 12.2647 41.2389 12.1782C41.2814 12.1515 41.2637 12.0618 41.1506 11.7305C40.9652 11.1873 40.9106 10.8176 40.9391 10.2992C40.9755 9.63661 41.1824 8.95565 41.5118 8.41427L41.6601 8.17067L41.5427 8.08848C41.1754 7.83111 40.6102 7.02921 40.7963 7.02933C40.8128 7.02934 40.9252 7.06858 41.046 7.1165C41.2151 7.18357 41.353 7.20422 41.6451 7.20619C42.0701 7.20903 42.1085 7.19486 42.6737 6.82524C43.065 6.5693 43.6936 6.26602 44.0816 6.14591C44.3141 6.07392 44.4749 6.05307 44.8005 6.05274C45.1788 6.05235 45.2421 6.06323 45.446 6.16317C45.706 6.29064 45.9121 6.50124 46.0578 6.7883C46.1342 6.93877 46.1965 7.00418 46.3074 7.05045C46.5948 7.17036 46.7434 7.39745 46.7825 7.77651C46.8067 8.01162 46.7464 8.45225 46.681 8.51748C46.6591 8.53936 46.5837 8.50636 46.4915 8.43453C46.0593 8.09796 45.4469 8.16604 45.053 8.59444C44.9134 8.74629 44.693 9.0952 44.7298 9.10611C44.7358 9.10752 44.8844 9.11595 45.0602 9.12403C46.1177 9.17269 46.9057 9.87717 47.3932 11.2096C47.4547 11.3778 47.5361 11.6501 47.574 11.8146C47.6734 12.2454 47.6552 12.2165 47.7961 12.1675C47.9893 12.1003 48.3274 11.7654 48.4457 11.5242C48.674 11.0587 48.712 10.4326 48.5416 9.94344C48.4416 9.6565 48.1815 9.21462 48.0342 9.08155C47.8842 8.94602 47.9333 8.85629 48.4068 8.40048C49.1311 7.70329 49.6266 7.47305 50.4787 7.43779C51.016 7.41555 51.3399 7.4725 51.8511 7.67907C53.3604 8.28898 54.868 10.4697 55.4615 12.9015C55.649 13.6697 55.7088 14.1558 55.733 15.1101C55.7576 16.0788 55.7453 16.201 55.6229 16.201C55.5103 16.201 55.0958 15.9858 54.9323 15.8424C54.857 15.7765 54.782 15.7225 54.7655 15.7225C54.7491 15.7225 54.7451 16.059 54.7566 16.4702C54.7798 17.2962 54.8453 17.7402 55.1078 18.8529C55.4708 20.3918 55.7403 21.2466 56.0889 21.9651C56.2718 22.3421 56.2889 22.4017 56.2254 22.4409C56.1639 22.4789 55.6191 22.2802 55.1765 22.0585C54.3095 21.6241 53.4336 21.0031 52.3142 20.0292C51.5962 19.4046 50.7522 18.2305 50.1253 16.9842C49.9431 16.6222 49.896 16.5547 49.8703 16.6197C49.8193 16.749 49.8289 17.2263 49.8928 17.7378C49.9256 18.0002 49.9526 18.2731 49.9527 18.3444C49.9531 18.4609 49.9413 18.474 49.8374 18.474C49.656 18.474 49.2043 18.3219 48.8546 18.1431C48.6247 18.0256 48.4469 17.8925 48.2207 17.6686C48.0478 17.4975 47.9038 17.3575 47.9007 17.3575C47.8977 17.3575 47.9019 17.7434 47.91 18.215C47.9446 20.2066 47.6523 21.6367 46.8796 23.2563C46.5935 23.856 46.518 24.1236 46.518 24.5388V24.7668L46.8076 24.8536C47.5368 25.0722 48.0972 25.4768 48.1943 25.8548C48.2192 25.9515 48.2455 26.0492 48.2529 26.0719C48.2603 26.0946 48.4257 26.1361 48.6204 26.1642C49.0666 26.2286 50.0384 26.415 50.6121 26.5463C55.0729 27.567 59.0635 29.5445 62.4407 32.4077C63.1353 32.9966 64.8115 34.6742 64.8115 34.7805C64.8115 34.9008 64.6465 34.9249 64.3145 34.853C63.9042 34.7641 63.4067 34.5699 61.9157 33.9166C59.4456 32.8343 58.2657 32.3657 56.6633 31.8309C49.3265 29.3819 41.8039 29.1157 34.1357 31.0335C31.6521 31.6547 29.516 32.4043 26.2075 33.8154C24.5502 34.5223 24.0644 34.7135 23.6537 34.8206C23.2859 34.9166 23.1163 34.9245 23.0148 34.8504L23.0148 34.8503ZM44.5562 25.6332C44.6778 25.3586 44.8706 25.1012 45.0536 24.9688C45.2723 24.8107 45.2856 24.781 45.2845 24.4502C45.2834 24.0915 45.2034 23.8543 44.9563 23.4763C44.587 22.9115 44.2595 22.1719 44.1231 21.5944C44.0959 21.4792 44.0597 21.385 44.0426 21.385C44.0256 21.385 43.9537 21.551 43.8828 21.7539C43.7355 22.1754 43.485 22.6957 43.3307 22.9003C43.2729 22.9771 43.0446 23.2553 42.8235 23.5184C42.6023 23.7816 42.3952 24.0598 42.3632 24.1365C42.3312 24.2133 42.3048 24.3828 42.3046 24.5133L42.3042 24.7504L42.6109 24.7982C43.0272 24.863 43.3834 24.9868 43.6293 25.1521C43.8514 25.3014 43.9577 25.4287 44.055 25.6618C44.1141 25.8033 44.1272 25.8114 44.2974 25.8114C44.472 25.8114 44.4796 25.8064 44.5562 25.6332L44.5562 25.6332Z" fill="#B7B8C5"/>
<path d="M46.6593 50.8528C44.9873 50.6274 43.4997 49.7056 42.5711 48.3194C41.3116 46.4393 41.0669 43.7541 41.9539 41.5457C42.7707 39.512 44.4936 38.1408 46.6393 37.8166C47.0628 37.7526 48.0935 37.7616 48.6422 37.834C49.7035 37.9741 50.6943 38.3167 51.3824 38.7815L51.5522 38.8961V40.3896C51.5522 42.0014 51.5525 41.9988 51.3494 41.7777C51.0147 41.4133 50.1931 40.9365 49.5094 40.7098C48.8944 40.5059 48.5593 40.4449 47.9152 40.4199C47.0036 40.3845 46.4683 40.5243 45.7955 40.9735C45.0726 41.4563 44.5722 42.197 44.3114 43.1704C44.2342 43.4585 44.2239 43.5943 44.2265 44.2956C44.2291 45.0248 44.2383 45.1266 44.3339 45.4831C44.6323 46.5958 45.2631 47.4209 46.14 47.8454C46.6929 48.113 46.9199 48.1617 47.6179 48.1627C48.2197 48.1634 48.6016 48.1064 48.9413 47.9647L49.0757 47.9086V47.3771C49.0757 46.7263 49.0248 46.2988 48.8926 45.8412C48.733 45.2889 48.3284 44.4852 47.9498 43.9684C47.6765 43.5955 47.5388 43.621 49.6629 43.6511C50.6888 43.6657 51.5427 43.6921 51.5604 43.7097C51.5781 43.7273 51.588 45.0777 51.5824 46.7104L51.5721 49.679L51.0096 49.9581C50.1525 50.3834 49.3575 50.6589 48.5964 50.7943C48.1496 50.8738 47.0594 50.9067 46.6593 50.8528L46.6593 50.8528ZM58.7855 50.7936C56.4654 50.3885 54.523 48.3508 54.0285 45.803C53.7105 44.1645 53.9103 42.461 54.5834 41.072C55.4507 39.2823 56.9939 38.064 58.7787 37.7601C59.2549 37.679 60.0461 37.6779 60.5391 37.758C61.7698 37.9571 63.0049 38.6687 63.8483 39.6645C64.9687 40.9873 65.513 42.6667 65.4398 44.5751C65.3648 46.5288 64.6939 48.0947 63.4044 49.3253C62.6408 50.0539 61.7526 50.5283 60.7188 50.7597C60.3177 50.8494 59.2154 50.8689 58.7855 50.7938V50.7936ZM60.5088 47.9354C61.4971 47.5665 62.2048 46.7021 62.524 45.474C62.6622 44.9422 62.6958 44.0218 62.5982 43.439C62.4226 42.3908 61.9921 41.6 61.2891 41.0347C60.7919 40.6348 60.1012 40.414 59.4934 40.4608C57.7872 40.5922 56.5742 42.3394 56.679 44.515C56.7525 46.0424 57.4463 47.2713 58.5385 47.8085C58.9588 48.0152 59.2066 48.064 59.7602 48.0489C60.1533 48.0382 60.288 48.0178 60.5088 47.9354ZM14.9352 50.666C14.9545 50.5547 20.5137 38.3894 20.6207 38.2244C20.6752 38.1403 20.7065 38.1346 21.1163 38.1346H21.5537L21.6144 38.2519C21.7462 38.5062 27.0808 50.6019 27.0983 50.6859C27.1147 50.7649 27.1008 50.7756 26.9825 50.7756C26.6155 50.7756 25.3199 50.3687 24.7511 50.0751C24.5644 49.9787 24.0521 49.6649 23.6127 49.3778C22.4552 48.6215 21.8888 48.366 20.7569 48.0898C20.2897 47.9758 19.5099 47.8646 19.1774 47.8646H18.9601L18.6956 48.393C18.5502 48.6836 18.3545 49.029 18.2607 49.1606C17.8145 49.7866 17.0989 50.2724 16.214 50.5501C15.8935 50.6507 15.2395 50.7756 15.0336 50.7756C14.9277 50.7756 14.9181 50.765 14.9352 50.666ZM22.5822 46.1085C22.528 45.9015 21.1318 42.8019 21.0979 42.8131C21.0514 42.8285 19.9446 45.3522 19.9722 45.3798C19.9829 45.3904 20.1863 45.4413 20.4242 45.4928C21.0027 45.6181 21.6915 45.8302 22.1549 46.0258C22.598 46.213 22.6102 46.2153 22.5822 46.1085ZM5.11903 50.646C5.10911 50.6186 5.0962 48.4249 5.09033 45.7711C5.08076 41.4432 5.07306 40.9316 5.01562 40.8064C4.9804 40.7296 4.82278 40.5255 4.66534 40.3528C4.34369 39.9999 4.01839 39.5276 3.81047 39.1116C3.6578 38.8062 3.50195 38.3408 3.50195 38.1903V38.0948H6.15967C7.73607 38.0948 8.97519 38.1118 9.20524 38.1365C11.5618 38.39 13.2539 39.409 14.2347 41.1653C14.5503 41.7305 14.8359 42.6714 14.9262 43.4432C14.9974 44.0526 14.9563 45.3297 14.8486 45.8508C14.5105 47.4876 13.665 48.7589 12.3113 49.6659C11.4581 50.2376 10.6558 50.5169 9.47328 50.654C8.92943 50.717 5.14222 50.7102 5.11903 50.6461L5.11903 50.646ZM9.40044 47.8885C9.82584 47.8015 10.3483 47.6085 10.6681 47.4202C11.0402 47.2011 11.593 46.6485 11.7843 46.3042C12.2331 45.4967 12.3681 44.3627 12.1304 43.3984C12.0284 42.9846 11.7571 42.4204 11.5128 42.1135C10.8194 41.2425 9.64066 40.7839 8.17516 40.8149L7.63595 40.8263L7.62574 44.3511C7.61776 47.1113 7.62635 47.8888 7.66512 47.9355C7.70712 47.986 7.82164 47.9914 8.41425 47.9711C8.79901 47.9579 9.24279 47.9208 9.40044 47.8885L9.40044 47.8885ZM28.6499 50.6334C28.6182 50.5508 28.6189 38.3425 28.6507 38.2244C28.672 38.1448 28.7002 38.1346 28.8998 38.1347H29.1248L32.7196 41.423C34.6967 43.2315 36.3367 44.712 36.364 44.7128C36.4032 44.7142 36.4159 44.0191 36.424 41.4345L36.4342 38.1546H37.7722H39.1103L39.1303 44.3754C39.1412 47.7968 39.1435 50.6194 39.1353 50.6478C39.1247 50.6843 39.0517 50.696 38.8861 50.6877L38.6519 50.6759L35.052 47.3662C33.072 45.5458 31.4273 44.0506 31.397 44.0435C31.3507 44.0327 31.3404 44.5565 31.3318 47.3533L31.3216 50.6759L29.998 50.6864C28.8171 50.6958 28.6718 50.69 28.65 50.6333L28.6499 50.6334ZM70.2753 50.6865C70.2701 50.6808 70.2566 48.4508 70.2454 45.7312L70.225 40.7865L68.4476 40.7666L66.6702 40.7467L66.6597 39.4859C66.6511 38.4569 66.6592 38.2168 66.7039 38.1798C66.7443 38.1463 68.0386 38.1371 71.6473 38.1445L76.5359 38.1546V39.4506V40.7466L74.7784 40.7666L73.021 40.7864L73.001 45.7312L72.981 50.6759L71.633 50.6864C70.8916 50.6921 70.2806 50.6921 70.2753 50.6864V50.6865ZM78.7393 50.6693C78.7247 50.6547 78.7127 47.8486 78.7127 44.4335C78.7127 39.2508 78.7217 38.2168 78.767 38.1792C78.8067 38.1464 79.9065 38.137 82.8511 38.1445L86.8809 38.1546L86.8707 38.3483C86.857 38.6102 86.6064 39.3495 86.4273 39.6559C86.088 40.2365 85.5847 40.6256 85.0462 40.7235C84.9004 40.7499 84.1508 40.7665 83.0984 40.7665H81.3876L81.3982 41.8731L81.4088 42.9797L83.4964 42.99L85.5839 43.0004L85.5734 44.286L85.5628 45.5717L83.4858 45.5916L81.4088 45.6115L81.3983 46.8178L81.3877 48.0241H83.7968C85.6173 48.0241 86.2176 48.0358 86.2538 48.072C86.289 48.1071 86.3018 48.4452 86.3018 49.3448C86.3018 50.0185 86.2908 50.5981 86.2775 50.6328C86.2557 50.6897 85.8865 50.6958 82.5096 50.6958C80.4507 50.6958 78.754 50.6839 78.7394 50.6693L78.7393 50.6693ZM23.0336 34.7903C23.0336 34.7423 23.8785 33.858 24.4315 33.3272C28.3839 29.534 33.8953 26.9363 39.662 26.1488L40.1738 26.0789L40.29 25.8229C40.4552 25.459 40.6564 25.2033 40.9087 25.0361L41.1273 24.8912V24.5788C41.1273 24.3572 41.0967 24.1636 41.022 23.913C40.9641 23.7186 40.8822 23.443 40.8401 23.3004C40.798 23.1578 40.7505 22.8528 40.7347 22.6225L40.7058 22.2038L40.5814 22.4433C40.3151 22.956 39.8178 23.4868 39.3428 23.7656L39.1502 23.8786L38.3913 23.8751C37.0373 23.8694 35.8987 23.6279 34.9448 23.1441C34.6428 22.991 34.3771 22.7948 34.3771 22.7249C34.3771 22.6883 34.5546 22.6098 34.8864 22.4997C37.2951 21.7007 39.0489 20.4902 40.1345 18.8775C40.6317 18.1388 40.9598 17.4007 41.1687 16.5508C41.3514 15.8071 41.3756 15.2848 41.2273 15.2848C41.1393 15.2848 41.0678 15.42 40.8926 15.9178C40.4774 17.0972 39.5304 18.1273 38.2497 18.7924C37.8698 18.9898 37.8374 18.9925 37.863 18.8239C37.8738 18.7526 37.9135 18.4992 37.9512 18.2607C38.0171 17.8443 38.0089 17.3983 37.9355 17.3983C37.9187 17.3983 37.7905 17.5463 37.6508 17.7273C36.4126 19.3299 33.6336 21.4031 31.7112 22.1581C31.3541 22.2984 31.1817 22.3358 31.1817 22.2729C31.1817 22.2563 31.3042 22.0006 31.4538 21.7047C31.9796 20.6652 32.5945 19.0872 32.8145 18.2128C33.0164 17.4104 33.2885 15.7639 33.2338 15.6756C33.2228 15.6578 33.1199 15.7197 33.0051 15.813C32.744 16.0253 32.451 16.1825 32.3725 16.1524C32.2324 16.0988 32.2587 14.5701 32.4163 13.604C32.5815 12.5906 32.848 11.7513 33.2941 10.8385C34.1265 9.13564 35.4596 7.79119 36.6173 7.48692C36.946 7.40053 37.4554 7.40113 37.7574 7.48833C38.377 7.66715 39.0702 8.18484 39.3223 8.65714L39.4483 8.8932L39.243 9.14812C38.7922 9.70761 38.6195 10.3216 38.7405 10.9348C38.8705 11.5937 39.1509 11.9953 39.6434 12.2283C39.8971 12.3483 39.9306 12.3538 40.3884 12.3511C40.7535 12.3489 40.92 12.3299 41.0873 12.2713C41.3468 12.1805 41.3468 12.1805 41.1759 11.696C41.0099 11.2252 40.9521 10.8213 40.9775 10.3094C41.0101 9.65293 41.2169 8.9681 41.5457 8.42758C41.6889 8.19226 41.7163 8.10703 41.6488 8.10703C41.5039 8.10703 40.7624 7.21561 40.8242 7.11576C40.8379 7.09359 40.9347 7.11223 41.0574 7.16124C41.2159 7.22421 41.3597 7.2452 41.6465 7.24714C42.0715 7.24997 42.1099 7.2358 42.6751 6.86619C43.0656 6.61083 43.6941 6.30736 44.083 6.18642C44.5199 6.05056 45.1388 6.05271 45.4204 6.19138C45.6713 6.31464 45.9136 6.56165 46.0328 6.81556C46.1095 6.9792 46.1597 7.02873 46.3322 7.11114C46.4903 7.18664 46.5631 7.25271 46.6393 7.38958C46.7275 7.54807 46.7391 7.6161 46.7387 7.97218C46.7381 8.48724 46.6972 8.55478 46.4856 8.39021C46.0701 8.06708 45.4492 8.13148 45.0532 8.53879C44.8792 8.71784 44.6651 9.08434 44.7008 9.14203C44.7137 9.16293 44.8092 9.17037 44.9129 9.15861C45.1677 9.12964 45.6424 9.23471 45.9603 9.39039C46.6355 9.7211 47.2619 10.6741 47.5221 11.7667C47.6224 12.1879 47.647 12.2385 47.743 12.2214C47.8912 12.1951 48.1988 11.9638 48.3388 11.7733C48.548 11.4888 48.6459 11.1823 48.6677 10.7433C48.6979 10.1372 48.5423 9.65383 48.1705 9.19809C48.0372 9.03471 47.9963 8.95429 48.0129 8.88834C48.0483 8.74739 48.7853 8.06123 49.1046 7.8719C49.5518 7.6067 49.9252 7.5012 50.4937 7.47938C51.0449 7.45821 51.4547 7.53442 51.9255 7.74559C53.4052 8.40931 54.885 10.6023 55.439 12.9524C55.6198 13.7192 55.6727 14.1791 55.6949 15.1749C55.7142 16.0404 55.7102 16.1236 55.6482 16.1474C55.5537 16.1836 55.2097 16.0169 54.9569 15.8125C54.7834 15.6723 54.7415 15.6533 54.7211 15.7062C54.7075 15.7415 54.7064 16.0965 54.7187 16.4949C54.7456 17.3724 54.8198 17.8231 55.1707 19.243C55.5461 20.7618 55.7162 21.2839 56.0743 22.017C56.1803 22.234 56.2227 22.3621 56.197 22.3877C56.1413 22.4433 55.6042 22.2401 55.0561 21.9561C53.7312 21.2697 52.0745 19.8925 51.2796 18.8168C50.8979 18.3002 50.4508 17.5597 50.1286 16.9102C50.0008 16.6525 49.8838 16.4417 49.8688 16.4417C49.7736 16.4417 49.7966 17.4487 49.9076 18.1382C49.9476 18.3872 49.9327 18.4355 49.8155 18.4355C49.6561 18.4355 49.188 18.2744 48.8705 18.1104C48.5385 17.9388 48.1335 17.5989 47.9954 17.3758C47.9475 17.2984 47.897 17.2463 47.8832 17.26C47.8694 17.2738 47.8637 17.7279 47.8704 18.269C47.8951 20.2535 47.6124 21.6404 46.8639 23.2069C46.546 23.8721 46.4607 24.188 46.4871 24.6019C46.4994 24.7942 46.501 24.7964 46.6792 24.8494C47.315 25.0388 47.7823 25.2958 48.01 25.5813C48.0747 25.6624 48.149 25.8237 48.1752 25.9399L48.2229 26.1512L48.859 26.259C54.2154 27.1669 58.9626 29.3929 62.7958 32.794C63.407 33.3363 64.7822 34.7379 64.7515 34.7873C64.7387 34.808 64.6555 34.825 64.5666 34.825C64.1987 34.825 63.6623 34.6271 61.7573 33.7885C58.3102 32.2711 56.2202 31.528 53.5251 30.8617C51.2929 30.3098 49.2874 29.997 46.6792 29.794C45.7983 29.7254 42.5241 29.7243 41.6465 29.7926C38.7724 30.0152 36.6715 30.345 34.2049 30.9609C31.5878 31.6145 29.5529 32.3288 26.0798 33.8134C24.7122 34.398 24.1208 34.632 23.7127 34.7501C23.4458 34.8274 23.0336 34.8521 23.0336 34.7907L23.0336 34.7903ZM44.6329 25.5735C44.7558 25.3123 44.9016 25.1352 45.1953 24.8901C45.3158 24.7895 45.3212 24.7723 45.3212 24.4886C45.3212 24.091 45.2474 23.8668 44.976 23.44C44.6464 22.9217 44.3882 22.3564 44.2153 21.7751C44.1322 21.4955 44.052 21.2667 44.0371 21.2667C44.0222 21.2667 43.9713 21.3878 43.9239 21.5358C43.6748 22.3138 43.3871 22.8127 42.7798 23.5197C42.3374 24.0347 42.2724 24.1612 42.2686 24.5141L42.2656 24.7908L42.5868 24.8371C43.2089 24.9268 43.6757 25.1458 43.9044 25.4553C43.9587 25.5288 44.0031 25.6022 44.0031 25.6184C44.0031 25.6346 44.0206 25.694 44.0421 25.7502C44.0771 25.8424 44.102 25.8524 44.2917 25.8517L44.5024 25.851L44.6329 25.5736L44.6329 25.5735Z" fill="#9799AB"/>
<path d="M46.4201 50.789C45.6732 50.6505 45.0473 50.4194 44.4252 50.0525C42.5669 48.9567 41.4473 46.8055 41.4473 44.3311C41.4473 41.2011 43.2497 38.6705 45.9763 37.9725C47.2297 37.6516 48.8003 37.7354 50.1482 38.1949C50.5099 38.3182 51.2687 38.6964 51.4353 38.8364L51.5526 38.9349V40.3802C51.5526 41.1751 51.5403 41.8378 51.5252 41.8529C51.5101 41.868 51.4337 41.819 51.3554 41.7441C50.753 41.1672 49.7884 40.6973 48.7567 40.4781C48.1614 40.3516 47.2758 40.3509 46.8195 40.4767C45.0108 40.9747 43.9438 42.7682 44.2054 44.8706C44.4175 46.5753 45.4137 47.7967 46.8594 48.1249C47.4495 48.2589 48.4236 48.1932 48.9709 47.9826L49.0852 47.9386L49.0658 47.1119C49.0495 46.4207 49.0321 46.2362 48.9595 45.9861C48.7681 45.3268 48.5082 44.7728 48.0937 44.1404C47.9531 43.9258 47.838 43.7327 47.838 43.7114C47.838 43.6865 48.5043 43.6762 49.6853 43.6828L51.5326 43.6932V46.6822V49.6713L51.0733 49.9029C50.2669 50.3093 49.4617 50.5981 48.6968 50.7552C48.2418 50.8487 46.8527 50.8693 46.4201 50.789V50.789ZM59.0617 50.8092C56.9947 50.5538 55.201 49.0617 54.3667 46.9037C54.0788 46.1591 53.9487 45.4664 53.9205 44.5283C53.8809 43.2065 54.0947 42.1273 54.6072 41.0611C55.1914 39.8458 56.3192 38.7006 57.4289 38.1957C57.8165 38.0194 58.4007 37.8344 58.7821 37.7672C59.2161 37.6907 60.2009 37.6997 60.6267 37.784C62.8331 38.2209 64.5999 39.9696 65.1872 42.2978C65.4652 43.3999 65.4976 44.7882 65.2709 45.8863C64.8174 48.0829 63.352 49.8414 61.3877 50.5463C60.7372 50.7797 59.7371 50.8927 59.0617 50.8092ZM60.1989 48.0392C61.3808 47.7893 62.288 46.7284 62.6025 45.2284C62.6901 44.8105 62.7002 43.8314 62.6213 43.394C62.3521 41.8996 61.4527 40.7963 60.261 40.4986C59.8757 40.4023 59.172 40.4379 58.8124 40.5719C58.0359 40.8613 57.3803 41.5165 57.0189 42.3645C56.5144 43.5479 56.5315 45.1191 57.061 46.2472C57.6945 47.5968 58.9366 48.3062 60.1989 48.0392ZM26.6736 50.7083C26.0273 50.5653 25.1768 50.2712 24.7283 50.0356C24.5508 49.9424 24.0687 49.646 23.6569 49.3769C22.6804 48.739 22.2893 48.5376 21.5635 48.2987C20.7575 48.0335 20.1021 47.9009 19.4563 47.8725L18.934 47.8495L18.7077 48.316C18.5831 48.5726 18.4032 48.9025 18.3078 49.0491C17.7802 49.8602 16.7972 50.4508 15.6104 50.6698C15.2703 50.7326 14.9258 50.7512 14.9258 50.7069C14.9258 50.642 20.6468 38.1889 20.6889 38.1622C20.7766 38.1066 21.5018 38.1246 21.5508 38.1837C21.6085 38.2531 27.0745 50.6129 27.0823 50.6915C27.0902 50.7716 26.9801 50.7761 26.6736 50.7083ZM22.6346 46.1806C22.6346 46.0811 21.138 42.7556 21.099 42.7683C21.049 42.7847 19.9585 45.257 19.9585 45.354C19.9585 45.4017 20.0069 45.4284 20.1283 45.4478C20.6782 45.5353 21.6964 45.8425 22.2951 46.1015C22.6098 46.2376 22.6346 46.2434 22.6346 46.1806ZM5.15237 50.6417C5.13459 50.6143 5.11107 48.4026 5.10008 45.7268C5.08339 41.6597 5.07095 40.8457 5.02425 40.7637C4.99353 40.7097 4.835 40.5132 4.67197 40.327C4.30066 39.903 3.98761 39.4356 3.78526 39.0031C3.60308 38.6138 3.47917 38.1774 3.53498 38.1217C3.59096 38.0658 8.99036 38.1072 9.39385 38.1666C11.4153 38.4643 12.8524 39.2321 13.804 40.5229C14.088 40.9081 14.4746 41.6668 14.6256 42.1353C14.9655 43.1899 15.0508 44.5471 14.85 45.7077C14.6141 47.0712 13.9268 48.3118 12.9355 49.1632C11.8508 50.0949 10.7652 50.5223 9.1542 50.6517C8.40784 50.7116 5.19252 50.7036 5.15237 50.6416V50.6417ZM9.29399 47.9125C9.7772 47.8345 10.2603 47.6705 10.6473 47.453C11.0797 47.21 11.6162 46.6651 11.8377 46.244C12.3891 45.1953 12.4045 43.6955 11.8745 42.6448C11.5698 42.0407 11.1065 41.5781 10.4923 41.2645C9.82518 40.924 9.254 40.8011 8.28582 40.7897L7.6364 40.7821V44.371V47.9599L7.89602 47.9838C8.24967 48.0163 8.83675 47.9866 9.29399 47.9125H9.29399ZM28.693 50.6655C28.6781 50.6505 28.6659 47.8349 28.6659 44.4085C28.6659 38.7645 28.6718 38.1764 28.729 38.1545C28.8475 38.109 29.0473 38.1301 29.1463 38.1984C29.2379 38.2616 30.4015 39.3208 34.6671 43.224C35.5842 44.0632 36.35 44.7498 36.3688 44.7498C36.4392 44.7498 36.454 44.1342 36.4543 41.1903L36.4547 38.1691L37.7827 38.1795L39.1108 38.19V44.4308V50.6715L38.9378 50.6839C38.8273 50.6918 38.7291 50.673 38.6661 50.6318C38.6118 50.5963 36.9589 49.0878 34.9929 47.2797C33.0269 45.4715 31.4012 43.9921 31.3802 43.9921C31.3568 43.9921 31.3398 44.4608 31.3364 45.1984C31.3334 45.8619 31.3199 47.3647 31.3065 48.5381L31.2821 50.6715L30.0011 50.682C29.2966 50.6877 28.708 50.6806 28.693 50.6654L28.693 50.6655ZM70.3126 50.6655C70.2976 50.6505 70.2854 48.4262 70.2854 45.7225C70.2854 42.9656 70.2701 40.7973 70.2505 40.7852C70.2314 40.7734 69.4449 40.7626 68.5028 40.7613C67.5608 40.7599 66.7674 40.745 66.7397 40.728C66.7007 40.7039 66.6918 40.417 66.7 39.4436L66.7106 38.1901H71.6235H76.5363L76.5469 39.4562C76.5526 40.1526 76.5526 40.7263 76.5469 40.7313C76.5412 40.7362 75.7365 40.7496 74.7589 40.7612L72.9815 40.7821L72.9616 45.7269L72.9416 50.6716L71.6407 50.6821C70.9252 50.6878 70.3276 50.6807 70.3127 50.6655L70.3126 50.6655ZM78.7799 50.665C78.7652 50.6504 78.7531 47.8329 78.7531 44.4042V38.1701H82.8072H86.8614V38.2822C86.8614 38.4428 86.7204 38.9579 86.5955 39.2533C86.4426 39.6151 86.095 40.1277 85.8875 40.2975C85.6692 40.4761 85.3788 40.6248 85.1422 40.6793C85.035 40.7039 84.2619 40.7207 83.2016 40.7212C81.7573 40.7219 81.4308 40.7321 81.3935 40.7769C81.3614 40.8156 81.3512 41.1461 81.3587 41.9034L81.3693 42.9752L83.4663 42.9961C84.6196 43.0075 85.568 43.021 85.5738 43.0259C85.5795 43.0309 85.5795 43.5958 85.5738 44.2812L85.5632 45.5273L83.5099 45.5377C82.0745 45.5449 81.4404 45.5614 81.4029 45.5924C81.3243 45.6576 81.3244 47.9493 81.4029 48.0145C81.4407 48.0458 82.1629 48.062 83.8494 48.0693L86.2422 48.0795V49.3755V50.6715L82.5244 50.6817C80.4797 50.6874 78.7946 50.6796 78.7799 50.6651L78.7799 50.665ZM23.074 34.7628C23.074 34.6472 24.557 33.164 25.3507 32.486C29.2335 29.1691 33.9973 27.021 39.2705 26.2095C39.7098 26.142 40.1052 26.0786 40.1492 26.0688C40.2022 26.057 40.2526 25.9847 40.2991 25.8541C40.4006 25.5687 40.6985 25.1855 40.931 25.0412C41.0523 24.9659 41.1391 24.88 41.154 24.8204C41.2018 24.6304 41.1299 24.1864 40.9652 23.6549C40.819 23.1829 40.796 23.0564 40.7785 22.6281C40.7676 22.3594 40.7442 22.1396 40.7264 22.1396C40.7087 22.1396 40.6479 22.2406 40.5914 22.364C40.3138 22.9693 39.5667 23.719 39.1433 23.8171C38.9324 23.866 37.9302 23.8631 37.4615 23.8121C36.36 23.6927 35.3046 23.3675 34.6478 22.9451C34.5215 22.8639 34.418 22.7684 34.4179 22.733C34.4176 22.6862 34.5293 22.6333 34.8269 22.5396C37.2175 21.7864 39.1424 20.4478 40.2192 18.7898C40.8108 17.8788 41.2385 16.7066 41.3502 15.6901C41.3718 15.4938 41.3639 15.4208 41.3125 15.3425C41.1903 15.1563 41.0815 15.2847 40.9055 15.8229C40.7863 16.1875 40.5779 16.6073 40.334 16.9743C40.1039 17.3206 39.4872 17.9491 39.0907 18.2415C38.6079 18.5976 37.9333 18.9635 37.8721 18.9024C37.8629 18.8932 37.8905 18.7161 37.9333 18.5088C38.0165 18.1064 38.0372 17.4928 37.9709 17.3941C37.9252 17.326 37.9505 17.3008 37.5441 17.8195C37.1968 18.2629 36.1356 19.2904 35.5095 19.7896C34.17 20.8577 32.7419 21.7393 31.7213 22.1281C31.2687 22.3006 31.2221 22.3125 31.2221 22.2556C31.2221 22.2287 31.3283 21.9987 31.458 21.7445C32.0054 20.6714 32.6206 19.0758 32.8585 18.112C33.0747 17.2365 33.3248 15.5996 33.2424 15.5996C33.2268 15.5996 33.1256 15.6759 33.0174 15.7691C32.9092 15.8623 32.7262 15.9874 32.6106 16.0471C32.2905 16.2125 32.288 16.2048 32.314 15.1411C32.3543 13.4956 32.6383 12.2489 33.2767 10.9141C34.1083 9.17567 35.4581 7.80495 36.6342 7.50464C37.2024 7.35955 37.6176 7.40759 38.192 7.68489C38.7321 7.94564 39.2059 8.38438 39.3672 8.7731C39.416 8.89092 39.4104 8.90549 39.2311 9.12524C38.8708 9.56686 38.6913 10.0395 38.6913 10.5467C38.6913 11.3016 39.0511 11.9738 39.5918 12.2292C39.8423 12.3475 40.2984 12.4202 40.5841 12.3873C40.8352 12.3584 41.315 12.2225 41.3467 12.1715C41.3595 12.1508 41.3261 12.0299 41.2725 11.9027C40.8137 10.8146 40.9388 9.411 41.5842 8.40365C41.6627 8.28118 41.7269 8.1664 41.7269 8.14859C41.7269 8.13081 41.6379 8.05865 41.5292 7.98831C41.2972 7.83823 40.7882 7.19233 40.8518 7.1288C40.8612 7.11945 40.9766 7.1482 41.1082 7.19276C41.3907 7.2884 41.8353 7.30443 42.0664 7.22732C42.1543 7.198 42.4059 7.0586 42.6256 6.91752C43.3251 6.46825 43.975 6.19463 44.5497 6.10738C45.1961 6.00924 45.711 6.2502 45.9961 6.7844C46.0964 6.97217 46.1588 7.04104 46.2715 7.08803C46.5977 7.22413 46.7175 7.4497 46.7188 7.93073C46.7192 8.11024 46.702 8.30349 46.6804 8.36016L46.6412 8.46321L46.4799 8.34663C46.0377 8.02675 45.4192 8.11427 45.013 8.55422C44.8392 8.74249 44.6286 9.11229 44.6711 9.15469C44.6847 9.16829 44.8322 9.1797 44.9988 9.17998C45.5964 9.18069 46.0368 9.36904 46.4838 9.81436C46.9667 10.2955 47.2775 10.8963 47.5162 11.8105C47.6413 12.2894 47.6673 12.3108 47.9344 12.1545C48.456 11.8493 48.7583 11.181 48.703 10.4556C48.6661 9.97204 48.4825 9.53098 48.1524 9.13248C48.0673 9.02985 47.9978 8.92951 47.9978 8.9095C47.9978 8.83528 48.8649 8.03428 49.0962 7.89491C50.3833 7.11914 51.9939 7.4291 53.186 8.68203C54.1593 9.70505 54.9778 11.2318 55.3691 12.7543C55.5895 13.6119 55.6757 14.2999 55.6815 15.2486C55.6847 15.7699 55.6714 16.0892 55.6454 16.1153C55.5842 16.1765 55.1484 15.9581 54.9288 15.756C54.8285 15.6636 54.7332 15.6011 54.7172 15.6171C54.7012 15.6332 54.6905 15.9543 54.6935 16.3308C54.6998 17.1216 54.7769 17.6822 55.0262 18.75C55.3901 20.3085 55.6673 21.1997 56.0316 21.9824C56.1231 22.1791 56.1868 22.3513 56.1731 22.365C56.1368 22.4012 55.5783 22.1957 55.2073 22.0098C54.3568 21.5834 53.4476 20.9382 52.3555 19.9862C51.6173 19.3426 50.7642 18.1421 50.1098 16.8257C49.9925 16.5898 49.8782 16.4028 49.8558 16.4102C49.7869 16.4331 49.7866 17.4041 49.8554 17.901C49.8899 18.15 49.9073 18.3712 49.8941 18.3925C49.849 18.4654 49.2624 18.2871 48.8578 18.0775C48.5605 17.9236 48.1337 17.5539 47.9955 17.3307C47.9492 17.256 47.8971 17.1948 47.8797 17.1948C47.8623 17.1948 47.85 17.7017 47.8524 18.3213C47.8603 20.3703 47.5909 21.6548 46.8201 23.2418C46.5379 23.8228 46.4687 24.0902 46.4874 24.5282L46.5 24.8233L46.7796 24.8991C47.3113 25.0433 47.8245 25.3498 48.0399 25.6517C48.0864 25.717 48.1366 25.855 48.1515 25.9584L48.1784 26.1463L48.9169 26.2703C54.2193 27.1608 58.9852 29.4014 62.7988 32.7967C63.4662 33.3908 64.7335 34.6776 64.7335 34.761C64.7335 34.804 64.6881 34.8204 64.5695 34.8204C64.2176 34.8204 63.6735 34.6243 62.0773 33.922C58.5957 32.3901 56.759 31.7136 54.2374 31.0342C47.8443 29.3116 40.9526 29.2779 34.2777 30.9366C31.6212 31.5967 29.5585 32.3191 26.0696 33.811C24.1519 34.6311 23.6256 34.8204 23.2638 34.8204C23.1249 34.8204 23.074 34.805 23.074 34.7628L23.074 34.7628ZM44.6194 25.6586C44.7314 25.3819 44.9064 25.1422 45.0955 25.0066C45.2954 24.8632 45.3576 24.7374 45.3593 24.4724C45.3617 24.1054 45.2627 23.8355 44.9454 23.3442C44.6071 22.8204 44.3707 22.2719 44.1867 21.5835C44.1373 21.3983 44.0785 21.2407 44.0561 21.2333C44.0337 21.2258 43.9478 21.4132 43.8652 21.6498C43.6273 22.331 43.3741 22.7767 42.9195 23.3147C42.6989 23.5758 42.4759 23.8451 42.4239 23.9131C42.3003 24.0749 42.197 24.47 42.2283 24.6606C42.2496 24.79 42.2689 24.8113 42.3793 24.8273C42.9642 24.912 43.1186 24.9525 43.4071 25.0966C43.7514 25.2687 43.9251 25.4429 43.9995 25.6909L44.0467 25.8482L44.2948 25.848L44.5428 25.8479L44.6194 25.6586V25.6586Z" fill="#E05848"/>
<path d="M46.4201 50.789C45.6732 50.6505 45.0473 50.4194 44.4252 50.0525C42.5669 48.9567 41.4473 46.8055 41.4473 44.3311C41.4473 41.2011 43.2497 38.6705 45.9763 37.9725C47.2297 37.6516 48.8003 37.7354 50.1482 38.1949C50.5099 38.3182 51.2687 38.6964 51.4353 38.8364L51.5526 38.9349V40.3802C51.5526 41.1751 51.5403 41.8378 51.5252 41.8529C51.5101 41.868 51.4337 41.819 51.3554 41.7441C50.753 41.1672 49.7884 40.6973 48.7567 40.4781C48.1614 40.3516 47.2758 40.3509 46.8195 40.4767C45.0108 40.9747 43.9438 42.7682 44.2054 44.8706C44.4175 46.5753 45.4137 47.7967 46.8594 48.1249C47.4495 48.2589 48.4236 48.1932 48.9709 47.9826L49.0852 47.9386L49.0658 47.1119C49.0495 46.4207 49.0321 46.2362 48.9595 45.9861C48.7681 45.3268 48.5082 44.7728 48.0937 44.1404C47.9531 43.9258 47.838 43.7327 47.838 43.7114C47.838 43.6865 48.5043 43.6762 49.6853 43.6828L51.5326 43.6932V46.6822V49.6713L51.0733 49.9029C50.2669 50.3093 49.4617 50.5981 48.6968 50.7552C48.2418 50.8487 46.8527 50.8693 46.4201 50.789V50.789ZM59.0617 50.8092C56.9947 50.5538 55.201 49.0617 54.3667 46.9037C54.0788 46.1591 53.9487 45.4664 53.9205 44.5283C53.8809 43.2065 54.0947 42.1273 54.6072 41.0611C55.1914 39.8458 56.3192 38.7006 57.4289 38.1957C57.8165 38.0194 58.4007 37.8344 58.7821 37.7672C59.2161 37.6907 60.2009 37.6997 60.6267 37.784C62.8331 38.2209 64.5999 39.9696 65.1872 42.2978C65.4652 43.3999 65.4976 44.7882 65.2709 45.8863C64.8174 48.0829 63.352 49.8414 61.3877 50.5463C60.7372 50.7797 59.7371 50.8927 59.0617 50.8092ZM60.1989 48.0392C61.3808 47.7893 62.288 46.7284 62.6025 45.2284C62.6901 44.8105 62.7002 43.8314 62.6213 43.394C62.3521 41.8996 61.4527 40.7963 60.261 40.4986C59.8757 40.4023 59.172 40.4379 58.8124 40.5719C58.0359 40.8613 57.3803 41.5165 57.0189 42.3645C56.5144 43.5479 56.5315 45.1191 57.061 46.2472C57.6945 47.5968 58.9366 48.3062 60.1989 48.0392ZM26.6736 50.7083C26.0273 50.5653 25.1768 50.2712 24.7283 50.0356C24.5508 49.9424 24.0687 49.646 23.6569 49.3769C22.6804 48.739 22.2893 48.5376 21.5635 48.2987C20.7575 48.0335 20.1021 47.9009 19.4563 47.8725L18.934 47.8495L18.7077 48.316C18.5831 48.5726 18.4032 48.9025 18.3078 49.0491C17.7802 49.8602 16.7972 50.4508 15.6104 50.6698C15.2703 50.7326 14.9258 50.7512 14.9258 50.7069C14.9258 50.642 20.6468 38.1889 20.6889 38.1622C20.7766 38.1066 21.5018 38.1246 21.5508 38.1837C21.6085 38.2531 27.0745 50.6129 27.0823 50.6915C27.0902 50.7716 26.9801 50.7761 26.6736 50.7083ZM22.6346 46.1806C22.6346 46.0811 21.138 42.7556 21.099 42.7683C21.049 42.7847 19.9585 45.257 19.9585 45.354C19.9585 45.4017 20.0069 45.4284 20.1283 45.4478C20.6782 45.5353 21.6964 45.8425 22.2951 46.1015C22.6098 46.2376 22.6346 46.2434 22.6346 46.1806ZM5.15237 50.6417C5.13459 50.6143 5.11107 48.4026 5.10008 45.7268C5.08339 41.6597 5.07095 40.8457 5.02425 40.7637C4.99353 40.7097 4.835 40.5132 4.67197 40.327C4.30066 39.903 3.98761 39.4356 3.78526 39.0031C3.60308 38.6138 3.47917 38.1774 3.53498 38.1217C3.59096 38.0658 8.99036 38.1072 9.39385 38.1666C11.4153 38.4643 12.8524 39.2321 13.804 40.5229C14.088 40.9081 14.4746 41.6668 14.6256 42.1353C14.9655 43.1899 15.0508 44.5471 14.85 45.7077C14.6141 47.0712 13.9268 48.3118 12.9355 49.1632C11.8508 50.0949 10.7652 50.5223 9.1542 50.6517C8.40784 50.7116 5.19252 50.7036 5.15237 50.6416V50.6417ZM9.29399 47.9125C9.7772 47.8345 10.2603 47.6705 10.6473 47.453C11.0797 47.21 11.6162 46.6651 11.8377 46.244C12.3891 45.1953 12.4045 43.6955 11.8745 42.6448C11.5698 42.0407 11.1065 41.5781 10.4923 41.2645C9.82518 40.924 9.254 40.8011 8.28582 40.7897L7.6364 40.7821V44.371V47.9599L7.89602 47.9838C8.24967 48.0163 8.83675 47.9866 9.29399 47.9125H9.29399ZM28.693 50.6655C28.6781 50.6505 28.6659 47.8349 28.6659 44.4085C28.6659 38.7645 28.6718 38.1764 28.729 38.1545C28.8475 38.109 29.0473 38.1301 29.1463 38.1984C29.2379 38.2616 30.4015 39.3208 34.6671 43.224C35.5842 44.0632 36.35 44.7498 36.3688 44.7498C36.4392 44.7498 36.454 44.1342 36.4543 41.1903L36.4547 38.1691L37.7827 38.1795L39.1108 38.19V44.4308V50.6715L38.9378 50.6839C38.8273 50.6918 38.7291 50.673 38.6661 50.6318C38.6118 50.5963 36.9589 49.0878 34.9929 47.2797C33.0269 45.4715 31.4012 43.9921 31.3802 43.9921C31.3568 43.9921 31.3398 44.4608 31.3364 45.1984C31.3334 45.8619 31.3199 47.3647 31.3065 48.5381L31.2821 50.6715L30.0011 50.682C29.2966 50.6877 28.708 50.6806 28.693 50.6654L28.693 50.6655ZM70.3126 50.6655C70.2976 50.6505 70.2854 48.4262 70.2854 45.7225C70.2854 42.9656 70.2701 40.7973 70.2505 40.7852C70.2314 40.7734 69.4449 40.7626 68.5028 40.7613C67.5608 40.7599 66.7674 40.745 66.7397 40.728C66.7007 40.7039 66.6918 40.417 66.7 39.4436L66.7106 38.1901H71.6235H76.5363L76.5469 39.4562C76.5526 40.1526 76.5526 40.7263 76.5469 40.7313C76.5412 40.7362 75.7365 40.7496 74.7589 40.7612L72.9815 40.7821L72.9616 45.7269L72.9416 50.6716L71.6407 50.6821C70.9252 50.6878 70.3276 50.6807 70.3127 50.6655L70.3126 50.6655ZM78.7799 50.665C78.7652 50.6504 78.7531 47.8329 78.7531 44.4042V38.1701H82.8072H86.8614V38.2822C86.8614 38.4428 86.7204 38.9579 86.5955 39.2533C86.4426 39.6151 86.095 40.1277 85.8875 40.2975C85.6692 40.4761 85.3788 40.6248 85.1422 40.6793C85.035 40.7039 84.2619 40.7207 83.2016 40.7212C81.7573 40.7219 81.4308 40.7321 81.3935 40.7769C81.3614 40.8156 81.3512 41.1461 81.3587 41.9034L81.3693 42.9752L83.4663 42.9961C84.6196 43.0075 85.568 43.021 85.5738 43.0259C85.5795 43.0309 85.5795 43.5958 85.5738 44.2812L85.5632 45.5273L83.5099 45.5377C82.0745 45.5449 81.4404 45.5614 81.4029 45.5924C81.3243 45.6576 81.3244 47.9493 81.4029 48.0145C81.4407 48.0458 82.1629 48.062 83.8494 48.0693L86.2422 48.0795V49.3755V50.6715L82.5244 50.6817C80.4797 50.6874 78.7946 50.6796 78.7799 50.6651L78.7799 50.665ZM47.8653 26.2827C47.494 26.087 46.681 25.9607 45.347 25.8913C44.9325 25.8697 44.5837 25.8424 44.5718 25.8306C44.5414 25.8002 44.6772 25.5013 44.8139 25.2975C44.8773 25.2031 45.004 25.0721 45.0955 25.0065C45.2954 24.8632 45.3576 24.7373 45.3593 24.4724C45.3617 24.1054 45.2627 23.8354 44.9454 23.3441C44.6071 22.8204 44.3707 22.2718 44.1867 21.5835C44.1373 21.3983 44.0785 21.2406 44.0561 21.2332C44.0337 21.2258 43.9478 21.4132 43.8652 21.6497C43.6273 22.3309 43.3741 22.7767 42.9195 23.3147C42.6989 23.5758 42.4759 23.8451 42.4239 23.9131C42.3003 24.0748 42.197 24.4699 42.2283 24.6606C42.2496 24.7899 42.2689 24.8113 42.3793 24.8272C42.965 24.9121 43.1185 24.9523 43.409 25.0975C43.7505 25.2682 43.8955 25.4139 44.0019 25.6936C44.075 25.8861 44.0462 26.1134 43.9436 26.1527C43.9123 26.1647 43.7918 26.1284 43.6756 26.0722C43.2436 25.8632 42.5624 25.8433 40.9989 25.9943C40.6094 26.0319 40.2788 26.0506 40.2642 26.036C40.2169 25.9888 40.3706 25.6552 40.5541 25.4063C40.6568 25.267 40.8168 25.112 40.931 25.0411C41.0523 24.9658 41.1391 24.8799 41.154 24.8204C41.2018 24.6304 41.1299 24.1864 40.9652 23.6549C40.819 23.1829 40.796 23.0563 40.7785 22.628C40.7676 22.3594 40.7442 22.1395 40.7264 22.1395C40.7087 22.1395 40.6479 22.2405 40.5914 22.3639C40.3138 22.9692 39.5667 23.7189 39.1433 23.817C38.9324 23.8659 37.9302 23.863 37.4615 23.8121C36.36 23.6926 35.3046 23.3674 34.6478 22.945C34.5215 22.8638 34.418 22.7684 34.4179 22.7329C34.4176 22.6861 34.5293 22.6333 34.8269 22.5395C37.2175 21.7863 39.1424 20.4477 40.2192 18.7897C40.8108 17.8788 41.2385 16.7066 41.3502 15.69C41.3718 15.4938 41.3639 15.4207 41.3125 15.3424C41.1903 15.1562 41.0815 15.2846 40.9055 15.8228C40.7863 16.1874 40.5779 16.6073 40.334 16.9743C40.1039 17.3205 39.4872 17.949 39.0907 18.2414C38.6079 18.5975 37.9333 18.9634 37.8721 18.9023C37.8629 18.8932 37.8905 18.7161 37.9333 18.5087C38.0165 18.1063 38.0372 17.4928 37.9709 17.394C37.9252 17.3259 37.9505 17.3007 37.5441 17.8194C37.1968 18.2628 36.1356 19.2904 35.5095 19.7896C34.17 20.8576 32.7419 21.7392 31.7213 22.1281C31.2687 22.3005 31.2221 22.3124 31.2221 22.2555C31.2221 22.2287 31.3283 21.9987 31.458 21.7444C32.0054 20.6714 32.6206 19.0757 32.8585 18.112C33.0747 17.2365 33.3248 15.5996 33.2424 15.5996C33.2268 15.5996 33.1256 15.6759 33.0174 15.7691C32.9092 15.8623 32.7262 15.9874 32.6106 16.0471C32.2905 16.2125 32.288 16.2048 32.314 15.1411C32.3543 13.4956 32.6383 12.2489 33.2767 10.9141C34.1083 9.17567 35.4581 7.80495 36.6342 7.50464C37.2024 7.35955 37.6176 7.40759 38.192 7.68489C38.7321 7.94564 39.2059 8.38438 39.3672 8.7731C39.416 8.89092 39.4104 8.90549 39.2311 9.12524C38.8708 9.56686 38.6913 10.0395 38.6913 10.5467C38.6913 11.3016 39.0511 11.9738 39.5918 12.2292C39.8423 12.3475 40.2984 12.4202 40.5841 12.3873C40.8352 12.3584 41.315 12.2225 41.3467 12.1715C41.3595 12.1508 41.3261 12.0299 41.2725 11.9027C40.8137 10.8146 40.9388 9.411 41.5842 8.40365C41.6627 8.28118 41.7269 8.1664 41.7269 8.14859C41.7269 8.13081 41.6379 8.05865 41.5292 7.98831C41.2972 7.83823 40.7882 7.19233 40.8518 7.1288C40.8612 7.11945 40.9766 7.1482 41.1082 7.19276C41.3907 7.2884 41.8353 7.30443 42.0664 7.22732C42.1543 7.198 42.4059 7.0586 42.6256 6.91752C43.3251 6.46825 43.975 6.19463 44.5497 6.10738C45.1961 6.00924 45.711 6.2502 45.9961 6.7844C46.0964 6.97217 46.1588 7.04104 46.2715 7.08803C46.5977 7.22413 46.7175 7.4497 46.7188 7.93073C46.7192 8.11024 46.702 8.30349 46.6804 8.36016L46.6412 8.46321L46.4799 8.34663C46.0377 8.02675 45.4192 8.11427 45.013 8.55422C44.8392 8.74249 44.6286 9.11229 44.6711 9.15469C44.6847 9.16829 44.8322 9.1797 44.9988 9.17998C45.5964 9.18069 46.0368 9.36904 46.4838 9.81436C46.9667 10.2955 47.2775 10.8963 47.5162 11.8105C47.6413 12.2894 47.6673 12.3108 47.9344 12.1545C48.456 11.8493 48.7583 11.181 48.703 10.4556C48.6661 9.97204 48.4825 9.53098 48.1524 9.13248C48.0673 9.02985 47.9978 8.92951 47.9978 8.9095C47.9978 8.83528 48.8649 8.03428 49.0962 7.89491C50.3833 7.11914 51.9939 7.4291 53.186 8.68203C54.1593 9.70505 54.9778 11.2318 55.3691 12.7543C55.5895 13.6119 55.6757 14.2999 55.6815 15.2486C55.6847 15.7699 55.6714 16.0892 55.6454 16.1153C55.5842 16.1765 55.1484 15.9581 54.9288 15.756C54.8285 15.6636 54.7332 15.6011 54.7172 15.6171C54.7012 15.6332 54.6905 15.9543 54.6935 16.3308C54.6998 17.1216 54.7769 17.6822 55.0262 18.75C55.3901 20.3085 55.6673 21.1997 56.0316 21.9824C56.1231 22.1791 56.1868 22.3513 56.1731 22.365C56.1368 22.4012 55.5783 22.1957 55.2073 22.0098C54.3568 21.5834 53.4476 20.9382 52.3555 19.9862C51.6173 19.3426 50.7642 18.1421 50.1098 16.8257C49.9925 16.5898 49.8782 16.4028 49.8558 16.4102C49.7869 16.4331 49.7866 17.4041 49.8554 17.901C49.8899 18.15 49.9073 18.3712 49.8941 18.3925C49.849 18.4654 49.2624 18.2871 48.8578 18.0775C48.5605 17.9236 48.1337 17.5539 47.9955 17.3307C47.9492 17.256 47.8971 17.1948 47.8797 17.1948C47.8623 17.1948 47.85 17.7017 47.8524 18.3213C47.8603 20.3703 47.5909 21.6548 46.8201 23.2418C46.5379 23.8228 46.4687 24.0902 46.4874 24.5282L46.5 24.8233L46.7796 24.8991C47.3636 25.0575 47.9438 25.4303 48.0923 25.7427C48.1724 25.9113 48.1873 26.2229 48.1191 26.3048C48.0556 26.3812 48.0518 26.3809 47.8653 26.2827Z" fill="#6F718A"/>
<path d="M46.8781 50.8263C44.9869 50.6399 43.3911 49.6213 42.402 47.9689C41.9996 47.2966 41.6674 46.3195 41.5443 45.446C41.4639 44.8757 41.4649 43.8244 41.5465 43.2428C41.8929 40.7712 43.4113 38.8365 45.5722 38.1133C46.1645 37.9151 46.5727 37.8484 47.3378 37.825C48.8681 37.7781 50.3101 38.1255 51.3216 38.7847L51.5114 38.9084V40.3785V41.8485L51.2817 41.6512C50.0469 40.5903 48.0596 40.0864 46.7013 40.4898C45.285 40.9104 44.2881 42.2388 44.1663 43.8677C44.1297 44.3575 44.1806 45.0298 44.287 45.4613C44.4702 46.2041 44.7788 46.7667 45.278 47.2677C45.6741 47.6652 46.0219 47.8821 46.5645 48.0699C46.9264 48.1952 46.9584 48.1992 47.597 48.2001C48.1618 48.2008 48.3092 48.1875 48.6277 48.1063C48.8321 48.0542 49.0253 47.9856 49.0571 47.9539C49.1381 47.8731 49.136 46.839 49.0539 46.3619C48.9301 45.6423 48.6191 44.9034 48.1198 44.1421C47.9067 43.8171 47.8519 43.7065 47.8956 43.6898C47.9274 43.6776 48.7585 43.6827 49.7424 43.7012L51.5313 43.7347V46.6856V49.6365L51.092 49.8645C49.6665 50.6042 48.1462 50.9512 46.8781 50.8263L46.8781 50.8263ZM58.926 50.7718C57.1192 50.4878 55.5486 49.2898 54.6672 47.5231C53.3908 44.9648 53.7792 41.6724 55.6008 39.6092C56.4093 38.6935 57.4551 38.0778 58.6333 37.8238C58.882 37.7702 59.1379 37.7537 59.6994 37.7548C60.367 37.7562 60.4802 37.7668 60.8714 37.8646C63.1736 38.4398 64.829 40.329 65.2987 42.9173C65.4133 43.549 65.423 44.8513 65.3179 45.4894C65.181 46.3198 64.9965 46.9078 64.6692 47.557C63.8419 49.1974 62.4245 50.3288 60.714 50.7142C60.3844 50.7885 59.2623 50.8246 58.926 50.7717L58.926 50.7718ZM60.2786 48.0355C61.171 47.8369 61.9904 47.0597 62.3955 46.0278C62.6266 45.4392 62.6731 45.1495 62.6741 44.2931C62.6753 43.392 62.6312 43.1171 62.3866 42.5C62.1726 41.9603 61.9538 41.6197 61.5766 41.2393C61.2936 40.9539 61.1738 40.8657 60.8577 40.7099C60.0566 40.3151 59.2811 40.3056 58.5212 40.6812C57.6231 41.1251 56.9829 42.0341 56.7218 43.2364C56.6339 43.641 56.6025 44.4896 56.6597 44.9174C56.8588 46.4081 57.6662 47.5549 58.8076 47.9686C59.264 48.1339 59.7394 48.1556 60.2786 48.0356V48.0355ZM14.9662 50.6834C14.9671 50.656 16.2498 47.8341 17.8166 44.4127L20.6652 38.1919L21.0841 38.1806C21.3881 38.1725 21.5143 38.1835 21.5443 38.2205C21.5877 38.2743 27.0668 50.6631 27.0668 50.7075C27.0668 50.7612 26.8529 50.7287 26.3396 50.5969C25.2712 50.3227 24.827 50.1179 23.6926 49.3769C22.4925 48.5929 21.9126 48.327 20.8198 48.0596C20.0433 47.8695 19.0719 47.763 18.9333 47.8527C18.9084 47.8688 18.7717 48.1173 18.6295 48.4049C18.3234 49.024 18.18 49.2415 17.8822 49.5392C17.3133 50.108 16.4511 50.5125 15.4637 50.6741C15.0248 50.7459 14.9639 50.747 14.9662 50.6834ZM21.9371 44.5057C21.5274 43.577 21.1755 42.7903 21.1553 42.7575C21.1226 42.7048 21.1121 42.7048 21.0634 42.758C21.0012 42.8256 19.9162 45.3042 19.9168 45.3772C19.9173 45.4293 19.9781 45.4524 20.2168 45.4915C20.7316 45.5759 21.726 45.8813 22.3337 46.1419C22.4875 46.2078 22.6288 46.2466 22.6477 46.2281C22.6668 46.2095 22.35 45.4418 21.9371 44.5059V44.5057ZM5.15787 50.6036C5.14781 50.5762 5.1349 48.3825 5.12916 45.7287C5.12125 42.0698 5.10709 40.8775 5.07059 40.796C5.04412 40.7369 4.90586 40.5616 4.76334 40.4066C4.44848 40.064 4.11863 39.6025 3.90495 39.2054C3.73931 38.8976 3.54102 38.3579 3.54102 38.2148V38.1321H6.16745C8.23448 38.1321 8.90174 38.1447 9.30028 38.1912C11.8863 38.4932 13.6537 39.731 14.4861 41.8231C14.9688 43.0363 15.0679 44.8456 14.7251 46.186C14.3374 47.7021 13.4398 48.9149 12.0725 49.7702C11.3714 50.2088 10.5547 50.4766 9.56946 50.591C8.86203 50.6732 5.18721 50.6837 5.15787 50.6036V50.6036ZM9.43246 47.9234C10.3683 47.7127 11.082 47.3055 11.5515 46.7145C11.7876 46.4172 12.0672 45.8507 12.1757 45.4495C12.292 45.0196 12.3041 43.8849 12.1969 43.4611C11.8469 42.0784 10.9169 41.196 9.4724 40.8765C9.06491 40.7863 7.76006 40.7105 7.64505 40.7703C7.57928 40.8045 7.57516 41.0166 7.57516 44.3663C7.57516 47.1597 7.5859 47.937 7.62508 47.9777C7.6952 48.0505 9.04854 48.0099 9.43246 47.9235L9.43246 47.9234ZM28.6977 50.6042C28.689 50.5765 28.6886 47.7679 28.6969 44.3629L28.7119 38.172H28.9097C29.1051 38.172 29.1132 38.1769 29.5551 38.5824C29.8012 38.8081 31.1799 40.0685 32.6188 41.3832C34.0577 42.6979 35.485 44.0026 35.7905 44.2826C36.096 44.5625 36.37 44.7915 36.3994 44.7915C36.4434 44.7915 36.4546 44.2144 36.463 41.4917L36.4732 38.1919H37.7713H39.0694L39.0795 44.4227L39.0896 50.6535H38.8906H38.6915L35.0472 47.3034C33.0429 45.4609 31.3844 43.9595 31.3618 43.967C31.3343 43.9762 31.3141 45.0776 31.3007 47.3071L31.2807 50.6335L29.9971 50.6441C28.9903 50.6523 28.71 50.6436 28.6977 50.6042L28.6977 50.6042ZM70.3123 50.4845C70.3008 50.391 70.2884 48.1701 70.2847 45.5492C70.281 42.9283 70.2651 40.7706 70.2495 40.7544C70.2338 40.7382 69.4309 40.7203 68.4651 40.7145L66.7093 40.7041L66.6987 39.4833C66.6901 38.4879 66.6983 38.254 66.7429 38.217C66.7834 38.1835 68.0667 38.1743 71.6464 38.1818L76.4951 38.1919L76.5056 39.4575L76.5162 40.7232L74.7482 40.7336L72.9802 40.744L72.9603 45.6888L72.9403 50.6335L71.6368 50.644L70.3333 50.6545L70.3123 50.4845ZM78.7784 50.6269C78.7451 50.5936 78.7428 38.3215 78.7763 38.235C78.7981 38.1781 79.1909 38.1719 82.8117 38.1719C86.0357 38.1719 86.8267 38.182 86.8425 38.223C86.8857 38.3356 86.6571 39.0811 86.4571 39.4793C86.0972 40.1958 85.6268 40.5796 84.983 40.6821C84.8338 40.7058 84.0051 40.7235 83.0352 40.7238L81.347 40.7242L81.3576 41.8707L81.3682 43.0171L83.4557 43.0275L85.5432 43.0378L85.5327 44.2836L85.5221 45.5294L83.4451 45.5493L81.3681 45.5692L81.3576 46.8154L81.347 48.0615H83.7561C85.5765 48.0615 86.1768 48.0732 86.2131 48.1094C86.2482 48.1445 86.261 48.4738 86.261 49.3423C86.261 49.9941 86.2501 50.5558 86.2368 50.5905C86.2149 50.6474 85.8493 50.6536 82.5088 50.6536C80.4718 50.6536 78.7932 50.6416 78.7785 50.627L78.7784 50.6269ZM47.864 26.2845C47.5156 26.101 46.6689 25.9603 45.6199 25.9115C44.7721 25.8722 44.6014 25.851 44.6014 25.7857C44.6014 25.6039 44.998 25.0441 45.1641 24.9915C45.2962 24.9496 45.3724 24.7421 45.3683 24.435C45.3638 24.0931 45.2614 23.7823 45.05 23.4693C44.6748 22.9135 44.4311 22.3752 44.223 21.6429C44.1458 21.3711 44.0785 21.2043 44.046 21.2043C44.0151 21.2043 43.9233 21.4037 43.8217 21.6915C43.5703 22.4038 43.3837 22.7216 42.8246 23.3896C42.4903 23.7891 42.3106 24.0391 42.2679 24.1642C42.1918 24.387 42.1843 24.7555 42.2548 24.8002C42.2822 24.8176 42.482 24.8618 42.6987 24.8985C43.1592 24.9763 43.6089 25.1772 43.7942 25.388C44.0143 25.6383 44.1025 26.0932 43.9427 26.1544C43.9112 26.1665 43.7904 26.1303 43.6743 26.0741C43.2423 25.865 42.5611 25.8452 40.9975 25.9961C40.6081 26.0337 40.2785 26.0535 40.2651 26.0401C40.2193 25.9944 40.4867 25.5005 40.6633 25.3044C40.7601 25.1969 40.9047 25.0738 40.9846 25.0309C41.0651 24.9876 41.1402 24.9117 41.153 24.8608C41.2074 24.6446 41.137 24.1097 40.9944 23.6567C40.8217 23.1076 40.7565 22.7303 40.774 22.3807C40.7813 22.2342 40.7696 22.1128 40.747 22.1016C40.725 22.0906 40.6441 22.2072 40.5672 22.3607C40.4903 22.5143 40.371 22.7209 40.3021 22.8199C40.1576 23.0277 39.663 23.5047 39.4205 23.6702C38.8993 24.0259 36.7633 23.8321 35.4254 23.3078C34.9938 23.1386 34.4032 22.7984 34.4255 22.7317C34.4327 22.7099 34.7167 22.5986 35.0565 22.4843C38.5166 21.3208 40.7119 19.12 41.285 16.24C41.4209 15.5567 41.3961 15.2427 41.206 15.2427C41.1053 15.2427 41.0207 15.3917 40.8833 15.8117C40.502 16.9769 39.6133 17.9837 38.3395 18.6939C38.1137 18.8197 37.9189 18.9125 37.9065 18.9002C37.8941 18.8878 37.9133 18.7372 37.9491 18.5656C38.0717 17.9773 38.0701 17.3692 37.9458 17.3279C37.9222 17.32 37.8133 17.4353 37.7039 17.5841C36.9108 18.6622 35.1955 20.1383 33.5461 21.1623C32.8526 21.5928 31.7165 22.1467 31.3301 22.2426C31.2219 22.2694 31.2263 22.2565 31.5505 21.5976C32.0345 20.6142 32.5391 19.3486 32.7788 18.5171C33.0234 17.6686 33.3559 15.6835 33.268 15.5958C33.2433 15.5712 33.1523 15.6237 33.014 15.7424C32.7481 15.9706 32.4257 16.1426 32.3693 16.0863C32.2956 16.0127 32.3589 14.1732 32.4539 13.6277C32.7582 11.8809 33.4064 10.3858 34.3694 9.2098C34.8992 8.5629 35.6611 7.92389 36.1904 7.6826C36.6683 7.46471 37.265 7.40613 37.7455 7.52991C38.283 7.66835 38.9087 8.10357 39.2031 8.54382C39.3954 8.83128 39.4078 8.93171 39.2671 9.06362C39.1045 9.21612 38.8952 9.55607 38.7868 9.8435C38.4299 10.7902 38.8588 11.9802 39.6688 12.2909C40.0949 12.4543 40.769 12.4419 41.2183 12.2624C41.3987 12.1903 41.3993 12.1643 41.2298 11.7211C40.8729 10.7878 40.9583 9.65386 41.4586 8.68293C41.5377 8.52941 41.6383 8.34961 41.682 8.2834C41.774 8.14431 41.7635 8.12146 41.5406 7.97737C41.4499 7.91872 41.3131 7.79325 41.2365 7.69859C41.0533 7.47204 40.8706 7.1904 40.8926 7.1684C40.9023 7.15877 41.0233 7.18604 41.1616 7.22903C41.4627 7.32259 41.8508 7.32984 42.0879 7.24632C42.1829 7.21288 42.4233 7.08049 42.6222 6.95218C43.0948 6.64719 43.6204 6.3866 44.0422 6.24818C44.5106 6.09445 45.0784 6.08468 45.3893 6.22502C45.6321 6.33461 45.8721 6.57841 46.0157 6.86145C46.0941 7.01582 46.1484 7.07135 46.2559 7.10675C46.462 7.17468 46.6233 7.3816 46.679 7.64949C46.727 7.8803 46.7019 8.36457 46.64 8.4028C46.6223 8.41371 46.5619 8.38651 46.5056 8.34238C46.336 8.20915 46.1344 8.1446 45.8879 8.1446C45.5837 8.1446 45.3309 8.23335 45.1188 8.41459C44.9109 8.5923 44.6337 9.00921 44.6497 9.12033C44.6603 9.19432 44.6928 9.202 45.0251 9.20897C45.7316 9.22377 46.2176 9.47812 46.704 10.0876C47.0455 10.5154 47.4418 11.4264 47.5357 11.999C47.5506 12.0902 47.5869 12.1977 47.6164 12.2379C47.668 12.3084 47.6765 12.3079 47.8517 12.2229C48.4021 11.9559 48.7179 11.3823 48.7248 10.6369C48.7298 10.0883 48.5749 9.64783 48.2105 9.17447C48.1147 9.05002 48.0364 8.93062 48.0364 8.90913C48.0364 8.84651 48.7172 8.17431 48.9253 8.03154C49.4901 7.644 50.0451 7.48818 50.7524 7.5186C51.2915 7.54176 51.6123 7.62932 52.1002 7.88633C52.6947 8.19949 53.2183 8.67831 53.7563 9.40073C54.7915 10.7907 55.4379 12.5071 55.6238 14.3597C55.6754 14.8737 55.6783 16.0674 55.628 16.0984C55.5569 16.1423 55.1473 15.925 54.9448 15.7359C54.7787 15.5808 54.7339 15.5564 54.7016 15.6036C54.677 15.6394 54.669 15.965 54.6805 16.4589C54.7028 17.4168 54.7587 17.7623 55.1457 19.3301C55.4525 20.5729 55.6939 21.3215 55.9848 21.9321C56.1695 22.3197 56.1751 22.3408 56.0922 22.3405C55.9368 22.3399 55.1107 21.9565 54.5923 21.6443C53.7437 21.1334 52.4848 20.1399 51.9451 19.5552C51.3313 18.8903 50.7436 18.0171 50.2166 16.9875C50.039 16.6404 49.8757 16.3526 49.8537 16.3479C49.8317 16.3429 49.797 16.4827 49.7766 16.6579C49.742 16.9541 49.7609 17.2965 49.8608 18.1891L49.8849 18.404L49.7295 18.3749C49.0679 18.2514 48.3913 17.8468 48.0519 17.3719C47.9515 17.2315 47.8546 17.1258 47.8365 17.1369C47.8185 17.148 47.8136 17.5743 47.8257 18.0841C47.8751 20.1684 47.5844 21.6177 46.788 23.2579C46.6107 23.6231 46.5124 23.8807 46.4826 24.0588C46.4326 24.3578 46.4258 24.7323 46.4692 24.797C46.4854 24.821 46.6326 24.881 46.7964 24.9303C47.4228 25.1187 47.9293 25.4576 48.0814 25.7901C48.1649 25.9726 48.1789 26.2499 48.1082 26.3205C48.0477 26.3809 48.0467 26.3808 47.8639 26.2845L47.864 26.2845Z" fill="#4F516F"/>
<path d="M46.3979 50.7304C45.1824 50.5079 44.219 50.0032 43.3602 49.1391C42.6549 48.4295 42.1979 47.6886 41.8833 46.7451C41.3716 45.21 41.3646 43.4964 41.8636 41.9753C42.5405 39.9124 44.1665 38.4072 46.1932 37.9672C47.7826 37.6221 49.8329 37.9278 51.1413 38.7048L51.4585 38.8931L51.4843 39.4574C51.5166 40.163 51.5185 41.7562 51.487 41.7562C51.4741 41.7562 51.322 41.6432 51.149 41.505C50.2295 40.7705 48.9303 40.3213 47.7243 40.3208C46.2965 40.3202 45.1137 41.0888 44.4953 42.4188C44.0914 43.2877 44.0093 44.5153 44.2847 45.5707C44.3764 45.9223 44.6458 46.518 44.8442 46.8078C45.1716 47.2862 45.6784 47.713 46.2046 47.9534C46.7044 48.1817 46.9802 48.2346 47.6561 48.2317C48.1727 48.2296 48.3099 48.2146 48.6523 48.1234C48.8707 48.0653 49.0684 47.9987 49.0916 47.9754C49.1616 47.9055 49.135 46.5787 49.0562 46.2091C48.9124 45.5352 48.5805 44.7826 48.1191 44.0845L47.8848 43.7301L49.6477 43.7197C50.6173 43.7141 51.4332 43.7183 51.4608 43.7286C51.5006 43.7438 51.5089 44.3574 51.5008 46.6899L51.4905 49.632L51.2109 49.7803C50.4575 50.1802 49.5012 50.5301 48.7146 50.6936C48.1371 50.8137 46.9552 50.8325 46.3979 50.7305L46.3979 50.7304ZM58.7517 50.7073C57.2769 50.438 55.8958 49.4719 55.0134 48.0924C53.9021 46.3549 53.6361 43.9469 54.3276 41.884C54.9436 40.0462 56.2712 38.6274 57.9136 38.0519C59.0065 37.6689 60.2423 37.655 61.3151 38.0136C62.9328 38.5544 64.2985 39.9262 64.9365 41.6511C65.4887 43.144 65.5162 45.1689 65.0048 46.681C64.2876 48.8017 62.5651 50.3579 60.5457 50.7095C60.1302 50.7818 59.1536 50.7806 58.7517 50.7074V50.7073ZM60.2431 48.0777C61.3364 47.8203 62.2354 46.847 62.5748 45.5532C62.824 44.6035 62.7695 43.4159 62.4364 42.5338C61.8844 41.0725 60.6451 40.2221 59.3291 40.4017C57.9899 40.5845 56.9803 41.7141 56.6573 43.3912C56.5832 43.776 56.5931 44.8157 56.6747 45.2175C56.8458 46.0597 57.1768 46.7245 57.6977 47.2719C58.0753 47.6687 58.6542 47.995 59.1594 48.0959C59.4231 48.1485 59.982 48.1392 60.2431 48.0777L60.2431 48.0777ZM15.0126 50.6251C15.0279 50.5715 20.1358 39.394 20.6469 38.2956C20.6876 38.2082 20.7057 38.2051 21.1103 38.2159L21.5315 38.2271L21.7199 38.6458C22.1076 39.5073 27.026 50.6537 27.026 50.6708C27.026 50.7549 26.007 50.5056 25.3884 50.2702C24.8759 50.0752 24.4874 49.864 23.7301 49.3685C22.596 48.6265 22.3508 48.4986 21.5739 48.2441C21.0119 48.06 20.5914 47.9554 20.1158 47.8815C19.6299 47.806 18.9905 47.7651 18.9335 47.8059C18.9093 47.8232 18.7599 48.0928 18.6017 48.4049C18.2651 49.0687 18.0473 49.3729 17.6948 49.6714C17.0753 50.1961 16.13 50.5845 15.2543 50.674C15.008 50.6993 14.9924 50.6961 15.0126 50.625V50.6251ZM22.6898 46.2265C22.7119 46.1907 21.2198 42.7675 21.1505 42.6951C21.1275 42.671 21.0927 42.6783 21.0562 42.715C20.9767 42.7949 19.8688 45.3475 19.8898 45.4023C19.8992 45.4266 20.1381 45.4963 20.4208 45.5572C20.9594 45.6734 21.9382 45.9848 22.3129 46.1592C22.5436 46.2667 22.6529 46.2862 22.6898 46.2265V46.2265ZM5.20836 50.6242C5.19702 50.6049 5.17536 48.4267 5.16023 45.7838C5.14353 42.8655 5.11733 40.9195 5.09353 40.8281C5.06781 40.7294 4.95198 40.5653 4.75674 40.3509C4.26814 39.8145 3.85442 39.1424 3.66226 38.5729C3.61706 38.4389 3.58008 38.282 3.58008 38.2241V38.1189L6.28615 38.1392C9.03876 38.1599 9.23128 38.1698 10.0507 38.3321C12.2882 38.7753 13.8961 40.121 14.5592 42.1052C15.1112 43.7571 15.0028 45.8167 14.2848 47.3185C13.5646 48.8251 12.0688 50.0222 10.4156 50.4151C9.69128 50.5872 9.31257 50.6136 7.23042 50.637C6.08828 50.6498 5.22012 50.6443 5.20836 50.6242V50.6242ZM8.92389 48.0153C9.95785 47.9046 10.7205 47.5763 11.3294 46.9798C12.0017 46.3213 12.3067 45.5082 12.3017 44.3881C12.2981 43.5865 12.1715 43.0673 11.8296 42.4519C11.6359 42.1032 11.0503 41.5148 10.6898 41.3065C9.99642 40.906 9.33952 40.7505 8.3132 40.744L7.59425 40.7397V44.3667V47.9937L7.6941 48.0214C7.84932 48.0646 8.49537 48.0614 8.92389 48.0158V48.0153ZM28.7329 50.6249C28.7168 50.6088 28.7036 47.8073 28.7036 44.3994V38.2032L28.9175 38.2152L29.1314 38.2272L32.7301 41.517C34.7094 43.3264 36.3611 44.8068 36.4005 44.8068C36.4689 44.8068 36.4728 44.6522 36.4825 41.507L36.4927 38.2072H37.7697H39.0466L39.058 40.4902C39.0643 41.7458 39.0739 44.5362 39.0795 46.691L39.0896 50.6089H38.8882H38.6867L35.0632 47.2755C33.0702 45.4421 31.4164 43.9325 31.388 43.9209C31.3596 43.9093 31.3236 43.9124 31.3081 43.928C31.2925 43.9435 31.2709 45.4575 31.2599 47.2925L31.2399 50.6289L30.0011 50.6416C29.3197 50.6487 28.749 50.6411 28.7329 50.6249V50.6249ZM70.3503 50.6228C70.3354 50.6078 70.3231 48.3861 70.3231 45.6855C70.3231 41.9196 70.312 40.7641 70.2752 40.7274C70.2394 40.6917 69.7851 40.6796 68.4772 40.6796H66.7272L66.7378 39.4534L66.7483 38.2272H71.6213H76.4942L76.5048 39.4534L76.5153 40.6796H74.7622C73.3406 40.6796 73.0006 40.6897 72.9644 40.7334C72.9321 40.7722 72.9169 42.152 72.9095 45.708L72.8994 50.6289L71.6385 50.6394C70.9449 50.6451 70.3653 50.638 70.3503 50.6228ZM78.7908 44.4081V38.2072H82.8101H86.8294L86.8026 38.3767C86.7564 38.6692 86.617 39.0923 86.4576 39.4235C86.1815 39.9969 85.8125 40.3758 85.3413 40.5693C85.1264 40.6576 85.0805 40.66 83.2244 40.6795L81.3272 40.6995L81.3165 41.836C81.3069 42.8691 81.3123 42.977 81.3741 43.0223C81.4265 43.0607 81.9153 43.0722 83.4922 43.0722H85.5422L85.5316 44.2785L85.5211 45.4848L83.4677 45.4951C82.0194 45.5024 81.3984 45.5187 81.3602 45.5503C81.3163 45.5866 81.308 45.8307 81.3166 46.836L81.3271 48.0768L83.7636 48.0967L86.2001 48.1166L86.2106 49.3627L86.2212 50.6089H82.506H78.7909L78.7908 44.4081ZM47.8558 26.2362C47.5125 26.0554 46.8805 25.9438 45.8602 25.8839C44.7315 25.8177 44.6404 25.807 44.6404 25.7409C44.6404 25.5657 44.9909 25.0957 45.2033 24.9861C45.3572 24.9066 45.4145 24.7036 45.3888 24.3286C45.3648 23.9801 45.2851 23.7719 45.0251 23.3792C44.6788 22.8562 44.4135 22.2449 44.219 21.5217C44.0733 20.9803 44.0376 20.9819 43.8454 21.5386C43.5454 22.4074 43.3974 22.6655 42.7777 23.4002C42.308 23.9572 42.2028 24.1503 42.174 24.5093C42.1498 24.8097 42.2081 24.888 42.4565 24.8889C42.8616 24.8903 43.4457 25.1026 43.7166 25.3469C43.9298 25.5392 44.0611 25.9287 43.9641 26.0816C43.934 26.1291 43.8901 26.1213 43.694 26.0335C43.2196 25.8209 42.55 25.8003 40.9978 25.9504C40.6273 25.9863 40.3145 26.006 40.3028 25.9943C40.2911 25.9826 40.338 25.8613 40.4071 25.7247C40.5515 25.4392 40.8201 25.1356 41.0266 25.0246C41.105 24.9825 41.1794 24.9066 41.1922 24.8558C41.2473 24.6365 41.1736 24.1416 41.007 23.6123C40.8585 23.1404 40.8343 23.011 40.8118 22.5649C40.7972 22.2763 40.7687 22.0534 40.7461 22.05C40.7241 22.0465 40.6167 22.2129 40.5073 22.4194C40.3484 22.7193 40.232 22.8718 39.9281 23.1778C39.719 23.3885 39.458 23.6128 39.3481 23.6763L39.1484 23.7917L38.3496 23.7903C37.3007 23.7882 36.4581 23.6526 35.6051 23.3484C35.1366 23.1814 34.3953 22.7779 34.4558 22.7229C34.4665 22.7132 34.7268 22.6207 35.0344 22.5172C37.7979 21.5873 39.751 20.0281 40.7276 17.9722C41.0956 17.1976 41.3355 16.3727 41.3895 15.6968C41.4117 15.4176 41.4053 15.3659 41.3376 15.283C41.2802 15.2124 41.2379 15.1953 41.1726 15.216C41.0665 15.2497 40.9924 15.3858 40.8604 15.7899C40.624 16.5133 40.2821 17.0497 39.6732 17.6528C39.4077 17.9157 39.0763 18.1944 38.8513 18.3439C38.453 18.6086 37.9302 18.8888 37.9302 18.8376C37.9302 18.8209 37.9579 18.6637 37.9917 18.4882C38.0255 18.3127 38.0532 17.9974 38.0531 17.7876C38.0531 17.167 38.0024 17.1361 37.6819 17.561C36.4375 19.2109 33.6798 21.2957 31.7143 22.0726C31.5138 22.1519 31.3318 22.2167 31.3097 22.2167C31.2877 22.2167 31.3898 21.9789 31.5367 21.6883C31.9936 20.7842 32.6073 19.241 32.8172 18.4683C33.0526 17.6018 33.371 15.7324 33.3102 15.5742C33.2764 15.4861 33.2381 15.503 33 15.711C32.7532 15.9267 32.4385 16.1092 32.3925 16.0633C32.3385 16.0094 32.3281 15.1069 32.375 14.5446C32.4911 13.1535 32.7809 12.0562 33.337 10.9022C33.788 9.9665 34.2758 9.27941 34.9602 8.61571C36.1217 7.48947 37.1473 7.20493 38.1796 7.72255C38.6771 7.97202 39.0521 8.30892 39.2631 8.69599L39.3711 8.8942L39.2304 9.04976C38.7568 9.57306 38.5487 10.2628 38.6649 10.9233C38.8453 11.9477 39.5524 12.5171 40.5407 12.4337C40.8824 12.4049 41.3605 12.2662 41.3909 12.1872C41.4027 12.1565 41.3584 11.9915 41.2924 11.8205C40.88 10.7514 40.9887 9.51692 41.5855 8.48996C41.684 8.3205 41.7646 8.15406 41.7646 8.12011C41.7646 8.08619 41.7217 8.0421 41.6692 8.02217C41.6167 8.00227 41.5077 7.92808 41.427 7.85733C41.2699 7.71956 40.9039 7.23151 40.9348 7.20075C40.945 7.19055 41.0292 7.20896 41.1219 7.24162C41.2147 7.27427 41.4032 7.31253 41.5407 7.3266C41.8775 7.36103 42.1496 7.27773 42.5473 7.01845C43.008 6.71809 43.532 6.44975 43.9415 6.30449C44.401 6.14146 44.9569 6.0991 45.2707 6.20317C45.5383 6.29191 45.7951 6.52405 45.9532 6.82026C46.0567 7.01416 46.1147 7.07593 46.2499 7.13631C46.4529 7.22702 46.5476 7.32765 46.6196 7.52936C46.6756 7.68603 46.6896 8.13025 46.6435 8.29027L46.6176 8.38061L46.4725 8.28206C46.0422 7.98971 45.3908 8.07475 45.0061 8.4735C44.8528 8.6323 44.6005 9.04987 44.6005 9.14465C44.6005 9.22493 44.6025 9.22535 44.943 9.21744C45.2626 9.21 45.6755 9.30868 45.9614 9.4608C46.6446 9.82436 47.2386 10.7832 47.4951 11.9365C47.585 12.3408 47.6178 12.365 47.8937 12.2302C48.416 11.9751 48.7545 11.3391 48.7545 10.6125C48.7545 10.0918 48.5945 9.63604 48.2523 9.18155C48.155 9.05235 48.0755 8.93418 48.0755 8.91894C48.0755 8.85484 48.3963 8.50685 48.6746 8.26928C49.5448 7.52622 50.5486 7.33236 51.6231 7.69986C52.7281 8.07781 53.774 9.18528 54.6039 10.856C55.2207 12.0979 55.5413 13.332 55.6232 14.7794C55.6593 15.4184 55.6362 16.0756 55.5776 16.0756C55.4788 16.0756 55.103 15.8466 54.9357 15.6846C54.659 15.4163 54.6454 15.4468 54.6485 16.3269C54.6521 17.3317 54.7374 17.8462 55.205 19.6845C55.4711 20.7304 55.6524 21.2748 55.9253 21.8478C56.1691 22.3596 56.1665 22.3646 55.7412 22.1929C54.317 21.6178 52.3116 20.0783 51.3982 18.8591C50.9847 18.307 50.5965 17.6692 50.2198 16.9232C50.04 16.5668 49.8715 16.2752 49.8456 16.2752C49.8196 16.2751 49.7863 16.3128 49.7717 16.3589C49.724 16.5088 49.7462 17.5608 49.8051 17.9498C49.8367 18.1582 49.8549 18.3371 49.8456 18.3474C49.8099 18.3869 49.2791 18.2205 48.9741 18.0742C48.5639 17.8772 48.2795 17.6472 48.051 17.3276C47.8756 17.0821 47.8222 17.0376 47.7818 17.1029C47.7715 17.1196 47.7768 17.456 47.7937 17.8504C47.8839 19.9597 47.5556 21.6532 46.7384 23.2934C46.5063 23.7593 46.4543 23.933 46.4164 24.37C46.3788 24.8018 46.4086 24.8532 46.747 24.9401C47.325 25.0886 47.9236 25.478 48.06 25.7944C48.1396 25.9787 48.1271 26.3281 48.0412 26.3223C48.0271 26.3215 47.9436 26.2827 47.8558 26.2363L47.8558 26.2362Z" fill="#2A2C52"/>
<path d="M46.4769 50.7128C44.5313 50.3688 43.0147 49.1933 42.1647 47.3702C41.3593 45.6429 41.3195 43.2757 42.0667 41.5333C42.9094 39.5681 44.453 38.3156 46.4969 37.9388C46.9896 37.8479 48.1385 37.8498 48.7336 37.9423C49.6316 38.082 50.3613 38.3169 51.0103 38.6751C51.5197 38.9563 51.4696 38.7734 51.4696 40.352V41.7262L51.3147 41.5865C50.5137 40.864 49.1648 40.3514 47.9148 40.2945C46.2091 40.2168 44.8333 41.1774 44.307 42.8135C44.1332 43.3537 44.1017 43.5769 44.1019 44.2691C44.1019 44.9536 44.1523 45.3037 44.3274 45.838C44.5715 46.5828 45.0917 47.3094 45.6607 47.7003C46.3223 48.1547 47.2999 48.3781 48.1096 48.2599C48.497 48.2034 49.0314 48.0686 49.1027 48.0096C49.1663 47.9568 49.1723 46.6854 49.1107 46.3028C49.0153 45.7106 48.6037 44.7365 48.184 44.1094C48.0886 43.9669 47.9969 43.8279 47.9803 43.8005C47.9563 43.7609 48.3125 43.7506 49.7098 43.7506H51.4696V46.6818V49.613L50.9313 49.8721C50.0432 50.2993 49.4871 50.498 48.7471 50.6521C48.2232 50.7612 46.9443 50.7954 46.4769 50.7127V50.7128ZM59.1784 50.7286C56.7114 50.5001 54.611 48.4003 54.1039 45.6554C53.9965 45.0743 53.9592 44.0741 54.0224 43.4696C54.1928 41.8399 54.8209 40.4794 55.9005 39.4013C56.7386 38.5645 57.6377 38.0757 58.7307 37.8628C59.2486 37.7619 60.1548 37.7724 60.6936 37.8855C62.6597 38.2981 64.2806 39.8073 64.9691 41.8661C65.3709 43.0676 65.447 44.6059 65.1702 45.9308C64.9987 46.7515 64.6227 47.6256 64.1514 48.2994C63.821 48.7715 63.0392 49.5406 62.5803 49.8448C61.5463 50.5303 60.3612 50.8381 59.1784 50.7286V50.7286ZM60.229 48.1123C61.6872 47.7844 62.6746 46.3705 62.7599 44.4884C62.8219 43.1195 62.3917 41.9164 61.5587 41.1291C60.9289 40.5339 60.1784 40.27 59.3758 40.3614C57.9803 40.5203 56.9152 41.7054 56.6164 43.4316C56.5356 43.8985 56.5557 44.8085 56.6576 45.2946C56.8009 45.9784 57.0705 46.578 57.4483 47.0532C58.1489 47.9343 59.2151 48.3404 60.229 48.1123ZM15.0546 50.5995C15.0659 50.5721 15.429 49.778 15.8616 48.835C16.2942 47.8919 17.1159 46.0974 17.6876 44.8472C18.9347 42.1201 19.6776 40.4969 20.0236 39.743C20.1645 39.436 20.3799 38.9643 20.5022 38.6949L20.7247 38.205L21.1077 38.2163L21.4907 38.2276L22.2949 40.042C22.7372 41.04 23.8951 43.6599 24.8679 45.8641C25.8408 48.0683 26.7132 50.0422 26.8067 50.2505L26.9768 50.6294L26.8823 50.6419C26.7614 50.6579 25.9852 50.4515 25.4802 50.2689C24.9569 50.0798 24.584 49.8765 23.6937 49.2949C23.2819 49.0259 22.7772 48.7176 22.572 48.6098C22.1139 48.369 21.1687 48.0533 20.503 47.9187C19.9817 47.8133 19.0735 47.7213 18.9479 47.7611C18.9033 47.7752 18.7709 47.9909 18.611 48.3097C18.308 48.9136 18.1813 49.1094 17.9003 49.4081C17.3432 50.0003 16.5433 50.4077 15.5818 50.5891C15.1853 50.6638 15.0267 50.667 15.0546 50.5995V50.5995ZM22.7514 46.2438C22.7514 46.216 22.5701 45.7828 22.3485 45.281C22.127 44.7793 21.7742 43.9784 21.5646 43.5014C21.16 42.581 21.1021 42.506 20.9792 42.7437C20.9481 42.804 20.6765 43.4187 20.3758 44.1095C19.9821 45.0141 19.8394 45.3823 19.8663 45.4249C19.8867 45.4575 19.9646 45.497 20.0393 45.5126C21.0151 45.7169 21.5576 45.8829 22.408 46.2372C22.6446 46.3358 22.7514 46.3378 22.7514 46.2435V46.2438ZM5.21151 50.0612C5.2086 49.7596 5.19512 47.5569 5.18156 45.1663C5.16112 41.5629 5.14741 40.8027 5.10136 40.72C5.07081 40.6652 4.93393 40.4947 4.7972 40.3412C4.27978 39.7602 3.88912 39.13 3.70122 38.5732C3.65607 38.4394 3.61914 38.2918 3.61914 38.2452V38.1604L6.32521 38.1795C8.06724 38.1917 9.14511 38.215 9.35081 38.2449C11.7457 38.5918 13.3402 39.6187 14.2158 41.378C15.1982 43.352 15.0702 46.0995 13.9118 47.9037C13.232 48.9625 12.0458 49.8728 10.8296 50.269C10.0174 50.5336 9.14426 50.6081 6.84446 50.6089L5.21682 50.6095L5.21151 50.0612ZM9.41858 47.976C10.3374 47.7891 10.9308 47.4734 11.4783 46.8801C12.1261 46.1783 12.4455 45.0913 12.3294 43.9841C12.1887 42.6424 11.566 41.6952 10.4692 41.1544C9.79824 40.8236 8.93373 40.6606 7.99279 40.6875L7.55342 40.7001V44.3687V48.0374L7.73316 48.0642C8.04445 48.1105 9.00431 48.0607 9.41858 47.976ZM28.7427 44.4293V38.2492L28.8454 38.2234C28.902 38.2092 28.9886 38.2159 29.0379 38.2384C29.0871 38.2608 29.4588 38.5821 29.8637 38.9524C30.2686 39.3227 31.247 40.2169 32.0379 40.9397C32.8287 41.6624 34.1192 42.8429 34.9056 43.563C36.007 44.5715 36.3557 44.8694 36.4234 44.8598L36.5114 44.8473L36.5216 41.5475L36.5318 38.2477H37.7636H38.9953L39.0213 38.8159C39.0357 39.1284 39.0475 41.8989 39.0475 44.9726V50.561L38.9504 50.5853C38.7945 50.6244 38.675 50.554 38.3008 50.2027C38.1069 50.0207 37.2835 49.2619 36.4709 48.5165C35.6583 47.7711 34.2051 46.4342 33.2417 45.5457C32.2783 44.6571 31.4473 43.9133 31.3952 43.8928C31.343 43.8722 31.2865 43.8693 31.2696 43.8864C31.2527 43.9032 31.2341 45.4229 31.2282 47.2634L31.2177 50.6098H29.9802H28.7427V44.4293ZM70.3622 45.6662C70.3622 40.8197 70.3607 40.722 70.2849 40.6815C70.2351 40.6549 69.5969 40.6403 68.4875 40.6403H66.7674V39.444V38.2476H71.6204H76.4733V39.444V40.6403H74.7532C73.6438 40.6403 73.0056 40.6549 72.9558 40.6815C72.8801 40.722 72.8785 40.8197 72.8785 45.6662V50.6095H71.6204H70.3622V45.6662ZM78.8567 50.5831C78.842 50.5684 78.8299 47.7869 78.8299 44.402V38.2476H82.8042C86.599 38.2476 86.7784 38.2512 86.7784 38.3192C86.7784 38.4734 86.5632 39.1224 86.4054 39.444C86.1812 39.901 85.7139 40.3845 85.3604 40.525C85.1213 40.6201 85.1169 40.6204 83.2372 40.6318C81.7263 40.641 81.3448 40.6537 81.3094 40.6964C81.2787 40.7333 81.2684 41.1031 81.2757 41.9012L81.2864 43.0528L83.3933 43.0632L85.5003 43.0735V44.2695V45.4654H83.4313C81.8753 45.4654 81.3504 45.4773 81.3143 45.5133C81.2792 45.5485 81.2664 45.8899 81.2664 46.8013C81.2664 47.7127 81.2791 48.0542 81.3143 48.0894C81.3506 48.1256 81.9509 48.1373 83.7713 48.1373H86.1804L86.1699 49.3635L86.1593 50.5897L82.5214 50.5999C80.5206 50.6056 78.8715 50.5978 78.8568 50.5832L78.8567 50.5831ZM47.7947 26.145C47.3678 25.9652 46.4608 25.8334 45.3086 25.7837C44.854 25.764 44.6795 25.7429 44.6795 25.7077C44.6795 25.5992 45.0022 25.1697 45.1707 25.0539C45.3789 24.9109 45.4384 24.7763 45.4384 24.4485C45.4384 24.1245 45.311 23.7523 45.0784 23.3965C44.6955 22.811 44.405 22.1434 44.238 21.4655C44.0969 20.8928 44.0153 20.9165 43.7836 21.5972C43.5296 22.3436 43.333 22.6927 42.8619 23.234C42.2758 23.9073 42.1759 24.0822 42.1365 24.5037C42.1046 24.8444 42.1637 24.9072 42.5463 24.9393C43.1052 24.9862 43.6877 25.267 43.8467 25.5661C43.9327 25.7278 43.9478 26.0453 43.8696 26.0453C43.8415 26.0453 43.7803 26.0186 43.7336 25.9859C43.4624 25.7963 42.3416 25.7519 41.0548 25.8799C40.5711 25.928 40.3658 25.9355 40.3658 25.9048C40.3658 25.8449 40.6317 25.4079 40.7357 25.2968C40.7824 25.247 40.9071 25.1509 41.0129 25.0831C41.1292 25.0086 41.2151 24.9205 41.2303 24.8602C41.284 24.6467 41.2083 24.1468 41.0415 23.6128C40.8865 23.1166 40.8718 23.0313 40.8546 22.524C40.8367 21.9962 40.8325 21.974 40.7538 21.9856C40.6954 21.9943 40.6218 22.0968 40.4994 22.3398C40.3006 22.7344 39.967 23.149 39.6254 23.4258C39.2416 23.7369 39.2126 23.7464 38.6015 23.7648C37.3244 23.8031 35.919 23.5233 35.0135 23.0503C34.7036 22.8884 34.5011 22.7515 34.5348 22.7267C34.5455 22.7188 34.7609 22.6443 35.0135 22.5612C36.9417 21.9264 38.5302 20.947 39.6141 19.7248C40.5333 18.6883 41.1642 17.3672 41.3852 16.0162C41.487 15.3938 41.4458 15.1788 41.2249 15.1788C41.0721 15.1788 40.9666 15.3338 40.8284 15.7616C40.5017 16.7728 39.8011 17.6579 38.7881 18.3393C38.4837 18.5439 38.0111 18.8029 37.9866 18.7784C37.9763 18.7681 37.9951 18.6302 38.0285 18.472C38.0967 18.1481 38.1092 17.49 38.0501 17.3348C37.9829 17.1582 37.8828 17.2123 37.6305 17.5615C37.334 17.972 36.4138 18.9152 35.8324 19.4046C34.4758 20.5467 32.9408 21.532 31.7867 22.0016C31.5534 22.0965 31.3589 22.1704 31.3546 22.1657C31.3503 22.1608 31.4668 21.915 31.6136 21.6189C32.2882 20.2583 32.8553 18.6605 33.0925 17.4518C33.2278 16.7628 33.379 15.6156 33.3461 15.5277C33.3119 15.4365 33.21 15.476 33.0053 15.6598C32.8939 15.7598 32.7232 15.8882 32.6261 15.945C32.4795 16.0307 32.4429 16.0388 32.4107 15.9924C32.3868 15.9581 32.38 15.6201 32.393 15.119C32.4213 14.0252 32.5487 13.1946 32.8301 12.2678C33.5444 9.91566 35.2686 7.86685 36.7982 7.55257C37.0791 7.49484 37.1715 7.49222 37.4562 7.53366C38.1392 7.63305 38.8939 8.12368 39.2078 8.67245L39.3214 8.87096L39.1682 9.05406C38.9725 9.28793 38.7525 9.69462 38.6715 9.97215C38.5912 10.2476 38.5893 10.8421 38.6678 11.1431C38.829 11.761 39.1876 12.184 39.7106 12.3731C40.0598 12.4993 40.7202 12.4946 41.1016 12.3632C41.2536 12.3107 41.395 12.24 41.4158 12.2061C41.4425 12.1625 41.4118 12.033 41.3119 11.7666C41.116 11.2445 41.0708 10.942 41.0952 10.3185C41.1111 9.91086 41.1392 9.71627 41.2224 9.43656C41.3364 9.05327 41.5327 8.61483 41.7007 8.36809C41.8291 8.17944 41.8354 8.03635 41.7169 7.99879C41.599 7.96146 41.2619 7.64168 41.1135 7.42646C40.9931 7.25177 40.993 7.25087 41.0885 7.27744C41.1414 7.29217 41.3104 7.32426 41.4642 7.34877C41.8723 7.41387 42.1336 7.33638 42.6741 6.98984C43.2292 6.6339 43.5157 6.49205 44.0187 6.32401C44.7327 6.08547 45.3013 6.14157 45.6558 6.4855C45.7531 6.57987 45.888 6.76656 45.9556 6.90036C46.035 7.05729 46.1033 7.14369 46.148 7.14379C46.282 7.14407 46.4813 7.30425 46.5583 7.47344C46.6321 7.63586 46.6721 8.21155 46.6136 8.26996C46.6009 8.28264 46.4982 8.24524 46.3855 8.18688C46.2116 8.09688 46.1317 8.08108 45.8594 8.08291C45.5934 8.08504 45.5034 8.1031 45.3349 8.19004C44.9909 8.36761 44.5597 8.91654 44.5597 9.17693C44.5597 9.25047 44.5858 9.25711 44.8738 9.25711C45.6727 9.25711 46.2028 9.52689 46.6991 10.186C47.0253 10.6193 47.2467 11.1247 47.4361 11.8686C47.4974 12.1095 47.5743 12.3235 47.6068 12.344C47.6934 12.3985 48.0768 12.1995 48.2842 11.9925C48.6302 11.647 48.8167 11.076 48.7804 10.4734C48.7491 9.95226 48.5818 9.52373 48.2487 9.11083C48.1749 9.01942 48.1145 8.92934 48.1145 8.91067C48.1145 8.84769 48.8516 8.15141 49.0732 8.00511C50.3 7.195 51.9674 7.50586 53.1468 8.76453C54.379 10.0796 55.2645 12.0436 55.5264 14.0423C55.5918 14.5415 55.6279 15.9651 55.5765 16.0167C55.5292 16.0641 55.0688 15.7914 54.9218 15.629C54.7257 15.4124 54.6537 15.4377 54.6124 15.7376C54.5693 16.0507 54.6074 16.9616 54.6861 17.5014C54.7595 18.0046 54.9544 18.8729 55.2255 19.9043C55.4634 20.8094 55.617 21.2713 55.8653 21.8283C55.9705 22.0641 56.0376 22.257 56.0146 22.257C55.9334 22.257 55.2004 21.9194 54.8731 21.7313C53.9412 21.1957 52.8547 20.3655 52.1127 19.6221C51.412 18.92 50.653 17.7827 50.1116 16.6239C49.9678 16.3159 49.9149 16.2388 49.8465 16.2374C49.7805 16.2359 49.7553 16.2663 49.7357 16.3704C49.6916 16.605 49.7102 17.5167 49.767 17.9104C49.7971 18.1188 49.815 18.2968 49.8068 18.306C49.7689 18.3484 49.3385 18.2103 49.006 18.0492C48.5974 17.8512 48.2387 17.55 48.0362 17.235C47.9674 17.1278 47.8863 17.0307 47.856 17.0191C47.7356 16.973 47.7213 17.0876 47.7591 17.791C47.8706 19.8661 47.5317 21.6225 46.6972 23.2938C46.451 23.7869 46.3955 23.9946 46.3854 24.4612C46.3766 24.8701 46.3881 24.8867 46.7498 24.9831C47.5149 25.1871 48.0746 25.629 48.0746 26.029C48.0746 26.1231 48.061 26.2085 48.0444 26.2188C48.0278 26.229 47.9155 26.1958 47.7948 26.145L47.7947 26.145Z" fill="white"/>
</svg>
