<svg width="29" height="28" viewBox="0 0 29 28" fill="none" xmlns="http://www.w3.org/2000/svg">
<path d="M20.344 15.7271C19.1774 15.7271 18.2207 14.7704 18.2207 13.6037C18.2207 12.4371 19.1774 11.4805 20.344 11.4805C21.5107 11.4805 22.4674 12.4371 22.4674 13.6037C22.4674 14.7704 21.5107 15.7271 20.344 15.7271ZM20.344 13.2305C20.134 13.2305 19.9707 13.3937 19.9707 13.6037C19.9707 13.8137 20.134 13.9771 20.344 13.9771C20.554 13.9771 20.7174 13.8137 20.7174 13.6037C20.7174 13.3937 20.554 13.2305 20.344 13.2305Z" fill="#2B2BB3"/>
<path d="M14.524 19.1914H7.50065C3.30065 19.1914 1.95898 17.8497 1.95898 13.6497V6.99967C1.95898 2.79967 3.30065 1.45801 7.50065 1.45801H19.1673C23.3673 1.45801 24.709 2.79967 24.709 6.99967V9.08798C24.709 9.33298 24.604 9.57798 24.4173 9.74131C24.2306 9.90465 23.9857 9.98637 23.729 9.95138C23.4723 9.91638 23.169 9.90466 22.8423 9.90466H17.849C15.8306 9.90466 15.399 10.3364 15.399 12.3547V18.3164C15.399 18.7947 15.0023 19.1914 14.524 19.1914ZM7.50065 3.20801C4.24565 3.20801 3.70898 3.74467 3.70898 6.99967V13.6497C3.70898 16.9047 4.24565 17.4414 7.50065 17.4414H13.649V12.3547C13.649 9.36804 14.8623 8.15466 17.849 8.15466H22.8423C22.8773 8.15466 22.924 8.15466 22.959 8.15466V6.99967C22.959 3.74467 22.4223 3.20801 19.1673 3.20801H7.50065Z" fill="#2B2BB3"/>
<path d="M11 24.2081C10.5217 24.2081 10.125 23.8114 10.125 23.3331V18.3164C10.125 17.8381 10.5217 17.4414 11 17.4414C11.4783 17.4414 11.875 17.8381 11.875 18.3164V23.3331C11.875 23.8114 11.4783 24.2081 11 24.2081Z" fill="#2B2BB3"/>
<path d="M14.5007 14.7588H2.83398C2.35565 14.7588 1.95898 14.3621 1.95898 13.8838C1.95898 13.4055 2.35565 13.0088 2.83398 13.0088H14.5007C14.979 13.0088 15.3757 13.4055 15.3757 13.8838C15.3757 14.3621 14.979 14.7588 14.5007 14.7588Z" fill="#2B2BB3"/>
<path d="M14.4997 24.208H7.44141C6.96307 24.208 6.56641 23.8113 6.56641 23.333C6.56641 22.8547 6.96307 22.458 7.44141 22.458H14.4997C14.9781 22.458 15.3747 22.8547 15.3747 23.333C15.3747 23.8113 14.9781 24.208 14.4997 24.208Z" fill="#2B2BB3"/>
<path d="M20.344 15.7271C19.1774 15.7271 18.2207 14.7704 18.2207 13.6037C18.2207 12.4371 19.1774 11.4805 20.344 11.4805C21.5107 11.4805 22.4674 12.4371 22.4674 13.6037C22.4674 14.7704 21.5107 15.7271 20.344 15.7271ZM20.344 13.2305C20.134 13.2305 19.9707 13.3937 19.9707 13.6037C19.9707 13.8137 20.134 13.9771 20.344 13.9771C20.554 13.9771 20.7174 13.8137 20.7174 13.6037C20.7174 13.3937 20.554 13.2305 20.344 13.2305Z" fill="#2B2BB3"/>
<path d="M23.8335 9.08859C23.5418 9.05359 23.2034 9.03027 22.8418 9.03027H17.8484C15.3518 9.03027 14.5234 9.85865 14.5234 12.3553V22.342C14.5234 24.8386 15.3518 25.667 17.8484 25.667H22.8418C25.3384 25.667 26.1668 24.8386 26.1668 22.342V12.3553C26.1668 10.2203 25.5601 9.31026 23.8335 9.08859ZM20.3451 12.3553C21.0335 12.3553 21.5934 12.9153 21.5934 13.6036C21.5934 14.2919 21.0335 14.8519 20.3451 14.8519C19.6568 14.8519 19.0968 14.2919 19.0968 13.6036C19.0968 12.9153 19.6568 12.3553 20.3451 12.3553ZM20.3451 22.342C18.9685 22.342 17.8484 21.222 17.8484 19.8453C17.8484 19.2736 18.0468 18.737 18.3735 18.317C18.8285 17.7336 19.5401 17.3486 20.3451 17.3486C20.9751 17.3486 21.5468 17.582 21.9785 17.9553C22.5035 18.422 22.8418 19.0986 22.8418 19.8453C22.8418 21.222 21.7218 22.342 20.3451 22.342Z" stroke="#2B2BB3" stroke-width="1.5" stroke-miterlimit="10" stroke-linecap="round" stroke-linejoin="round"/>
<path d="M20.3443 23.217C18.4893 23.217 16.9727 21.7003 16.9727 19.8453C16.9727 19.0987 17.2293 18.3636 17.6843 17.7803C18.326 16.952 19.306 16.4736 20.3443 16.4736C21.1493 16.4736 21.9427 16.7653 22.5493 17.2903C23.296 17.9553 23.716 18.877 23.716 19.8453C23.716 21.7003 22.1993 23.217 20.3443 23.217ZM20.3443 18.2236C19.8427 18.2236 19.376 18.4569 19.061 18.8536C18.8393 19.1336 18.7227 19.4837 18.7227 19.8453C18.7227 20.7436 19.446 21.467 20.3443 21.467C21.2427 21.467 21.966 20.7436 21.966 19.8453C21.966 19.3787 21.756 18.9353 21.3943 18.6087C21.1143 18.3637 20.7293 18.2236 20.3443 18.2236Z" fill="#2B2BB3"/>
<path d="M20.344 15.7271C19.1774 15.7271 18.2207 14.7704 18.2207 13.6037C18.2207 12.4371 19.1774 11.4805 20.344 11.4805C21.5107 11.4805 22.4674 12.4371 22.4674 13.6037C22.4674 14.7704 21.5107 15.7271 20.344 15.7271ZM20.344 13.2305C20.134 13.2305 19.9707 13.3937 19.9707 13.6037C19.9707 13.8137 20.134 13.9771 20.344 13.9771C20.554 13.9771 20.7174 13.8137 20.7174 13.6037C20.7174 13.3937 20.554 13.2305 20.344 13.2305Z" fill="#2B2BB3"/>
</svg>
