<svg width="62" height="63" viewBox="0 0 62 63" fill="none" xmlns="http://www.w3.org/2000/svg">
<rect y="0.5" width="62" height="62" rx="31" fill="#F9F9F9"/>
<path d="M36.2195 29.25H27.9595C27.3995 29.25 26.8395 29.06 26.3995 28.7L24.2095 26.95C23.6095 26.47 23.2695 25.76 23.2695 25C23.2695 24.24 23.6095 23.52 24.2095 23.05L26.3995 21.3C26.8395 20.95 27.3995 20.75 27.9595 20.75H36.2195C37.5995 20.75 38.7195 21.87 38.7195 23.25V26.75C38.7195 28.13 37.5995 29.25 36.2195 29.25ZM27.9595 22.25C27.7295 22.25 27.5095 22.33 27.3395 22.47L25.1495 24.22C24.9095 24.41 24.7695 24.7 24.7695 25C24.7695 25.3 24.9095 25.59 25.1495 25.78L27.3395 27.53C27.5195 27.67 27.7395 27.75 27.9595 27.75H36.2195C36.7695 27.75 37.2195 27.3 37.2195 26.75V23.25C37.2195 22.7 36.7695 22.25 36.2195 22.25H27.9595Z" fill="#A2A6B8"/>
<path d="M34.0598 39.25H25.7998C24.4198 39.25 23.2998 38.13 23.2998 36.75V33.25C23.2998 31.87 24.4198 30.75 25.7998 30.75H34.0598C34.6298 30.75 35.1798 30.94 35.6198 31.3L37.8098 33.05C38.4098 33.53 38.7498 34.24 38.7498 35C38.7498 35.76 38.4098 36.48 37.8098 36.95L35.6198 38.7C35.1798 39.06 34.6298 39.25 34.0598 39.25ZM25.7998 32.25C25.2498 32.25 24.7998 32.7 24.7998 33.25V36.75C24.7998 37.3 25.2498 37.75 25.7998 37.75H34.0598C34.2898 37.75 34.5098 37.67 34.6798 37.53L36.8698 35.78C37.1098 35.59 37.2498 35.3 37.2498 35C37.2498 34.7 37.1098 34.41 36.8698 34.22L34.6798 32.47C34.4998 32.33 34.2798 32.25 34.0598 32.25H25.7998Z" fill="#A2A6B8"/>
<path d="M31 32.25C30.59 32.25 30.25 31.91 30.25 31.5V28.5C30.25 28.09 30.59 27.75 31 27.75C31.41 27.75 31.75 28.09 31.75 28.5V31.5C31.75 31.91 31.41 32.25 31 32.25Z" fill="#A2A6B8"/>
<path d="M31 42.25C30.59 42.25 30.25 41.91 30.25 41.5V38.5C30.25 38.09 30.59 37.75 31 37.75C31.41 37.75 31.75 38.09 31.75 38.5V41.5C31.75 41.91 31.41 42.25 31 42.25Z" fill="#A2A6B8"/>
<path d="M34 42.25H28C27.59 42.25 27.25 41.91 27.25 41.5C27.25 41.09 27.59 40.75 28 40.75H34C34.41 40.75 34.75 41.09 34.75 41.5C34.75 41.91 34.41 42.25 34 42.25Z" fill="#A2A6B8"/>
</svg>
