<svg width="57" height="57" viewBox="0 0 57 57" fill="none" xmlns="http://www.w3.org/2000/svg">
<path d="M28.5282 50.2038C40.872 50.2038 50.8786 40.1972 50.8786 27.8534C50.8786 15.5096 40.872 5.50293 28.5282 5.50293C16.1844 5.50293 6.17773 15.5096 6.17773 27.8534C6.17773 40.1972 16.1844 50.2038 28.5282 50.2038Z" fill="#50B651"/>
<path opacity="0.663" fill-rule="evenodd" clip-rule="evenodd" d="M50.8129 27.7886C50.8129 40.1712 40.775 50.2092 28.3952 50.2092C16.0153 50.2092 5.97461 40.1712 5.97461 27.7886C5.97461 22.311 6.12814 21.4966 8.28425 18.3782C8.28425 18.3782 8.173 21.9005 10.7558 23.9965C12.3617 25.2988 14.0378 24.3587 17.1056 22.9457C20.4243 21.416 23.1222 20.4292 25.2272 20.6895C28.3979 21.0822 38.1711 26.9514 43.2715 25.7827C47.3462 24.851 46.9162 15.2441 46.9162 15.2441C51.3664 19.5897 50.8129 22.5269 50.8129 27.7886Z" fill="url(#paint0_linear_4334_2072)"/>
<path opacity="0.586" fill-rule="evenodd" clip-rule="evenodd" d="M38.0137 44.2508C46.1223 36.6235 47.4701 27.8856 42.0572 18.037C42.0847 18.057 42.4195 16.9015 43.0618 14.5703C45.9426 18.0589 47.4744 22.3648 47.6572 27.4881C47.6557 34.124 44.4412 39.7116 38.0137 44.2508Z" fill="url(#paint1_linear_4334_2072)"/>
<path opacity="0.744" fill-rule="evenodd" clip-rule="evenodd" d="M34.1696 14.6177C30.2557 12.4516 25.7654 8.09429 26.3623 7.17922C26.9592 6.26415 34.7064 6.42158 38.6209 8.5877C42.5354 10.7538 45.8669 17.2516 45.2705 18.1667C44.6742 19.0818 38.0835 16.7838 34.1696 14.6177Z" fill="url(#paint2_radial_4334_2072)"/>
<path fill-rule="evenodd" clip-rule="evenodd" d="M37.5765 33.3506C34.3295 33.3506 31.6973 30.6432 31.6973 27.3039C31.6973 23.9646 34.3295 21.2578 37.5765 21.2578C40.8235 21.2578 43.4563 23.9646 43.4563 27.3039C43.4563 30.6432 40.824 33.3506 37.5765 33.3506ZM37.6182 31.4326C39.6447 31.4326 41.2896 29.5841 41.2896 27.3039C41.2896 25.0238 39.6447 23.177 37.6182 23.177C35.5917 23.177 33.9468 25.0254 33.9468 27.305C33.9468 29.5846 35.5917 31.4326 37.6182 31.4326Z" fill="white"/>
<path fill-rule="evenodd" clip-rule="evenodd" d="M25.4453 16.3926H29.6819V33.2866H27.3561V18.2455H25.4453V16.3926Z" fill="white"/>
<path fill-rule="evenodd" clip-rule="evenodd" d="M22.2896 21.4331H24.4885V35.5413C24.4885 36.8268 23.1363 38.1658 21.8184 38.7421C21.1954 39.0143 20.0458 39.176 18.3696 39.2271V37.8237C20.0091 37.6408 21.1157 37.2761 21.6894 36.7295C22.0204 36.2695 22.2273 35.7319 22.2902 35.1686V31.0238C21.7024 32.271 20.9622 33.0978 20.0695 33.5042C19.1417 34.0049 17.2531 33.9225 16.4821 33.5042C15.7111 33.0859 14.5802 31.9845 14.0618 30.344C13.9183 29.8912 13.5611 28.6591 13.5984 27.3535C13.6318 26.1103 14.0434 24.7947 14.3855 24.254C14.973 23.3306 15.8992 22.1741 17.3021 21.6907C17.9874 21.4544 19.2576 21.3695 21.1125 21.4359V22.8316C19.7341 22.7385 18.8741 22.785 18.5325 22.9712C18.0202 23.2493 16.8637 23.5926 16.4821 26.113C16.1005 28.6335 16.4933 30.6962 17.7031 31.342C18.1176 31.5645 18.8507 31.8276 19.5283 31.5957C20.8299 31.1506 22.0549 29.5636 22.1483 28.4883C22.2425 27.3973 22.2896 25.0456 22.2896 21.4331Z" fill="white"/>
<path fill-rule="evenodd" clip-rule="evenodd" d="M50.1071 32.2699C48.0306 42.2689 39.1703 49.7819 28.556 49.7819C16.3998 49.7819 6.54492 39.927 6.54492 27.7708C6.54492 20.2188 10.3482 13.5552 16.1434 9.5918C11.4346 13.4968 8.43625 19.3961 8.43625 25.9929C8.43625 37.7597 17.9752 47.2981 29.7415 47.2981C39.3238 47.2981 47.4276 40.9728 50.1071 32.2699Z" fill="url(#paint3_radial_4334_2072)"/>
<path fill-rule="evenodd" clip-rule="evenodd" d="M28.5577 1.70703C14.1614 1.70703 2.49023 13.3776 2.49023 27.7739C2.49023 42.1703 14.1614 53.8414 28.5577 53.8414C42.954 53.8414 54.6252 42.1703 54.6252 27.7739C54.6252 13.3776 42.954 1.70703 28.5577 1.70703ZM28.5577 49.7856C16.4015 49.7856 6.54657 39.9307 6.54657 27.7745C6.54657 20.2225 10.3498 13.559 16.145 9.59552C19.7999 7.09234 24.1278 5.756 28.5577 5.76281C40.7139 5.76281 50.5688 15.6172 50.5688 27.7739C50.5696 29.2854 50.4155 30.793 50.1088 32.2731C48.0322 42.2721 39.1719 49.7851 28.5577 49.7851V49.7856Z" fill="white"/>
<defs>
<linearGradient id="paint0_linear_4334_2072" x1="27.529" y1="18.3059" x2="30.4027" y2="44.2576" gradientUnits="userSpaceOnUse">
<stop stop-color="#123214"/>
<stop offset="0.46" stop-color="#3E7C37"/>
<stop offset="0.91" stop-color="#5FBB46"/>
</linearGradient>
<linearGradient id="paint1_linear_4334_2072" x1="44.1285" y1="16.6126" x2="44.1285" y2="37.5981" gradientUnits="userSpaceOnUse">
<stop stop-color="white" stop-opacity="0"/>
<stop offset="0.64" stop-color="white" stop-opacity="0.43"/>
<stop offset="1" stop-color="white" stop-opacity="0.42"/>
</linearGradient>
<radialGradient id="paint2_radial_4334_2072" cx="0" cy="0" r="1" gradientUnits="userSpaceOnUse" gradientTransform="translate(36.2928 12.82) rotate(26.7606) scale(11.0444 4.5998)">
<stop offset="0.13" stop-color="white"/>
<stop offset="0.29" stop-color="white" stop-opacity="0.69"/>
<stop offset="0.45" stop-color="white" stop-opacity="0.4"/>
<stop offset="0.59" stop-color="white" stop-opacity="0.18"/>
<stop offset="0.69" stop-color="white" stop-opacity="0.05"/>
<stop offset="0.74" stop-color="white" stop-opacity="0"/>
</radialGradient>
<radialGradient id="paint3_radial_4334_2072" cx="0" cy="0" r="1" gradientUnits="userSpaceOnUse" gradientTransform="translate(32.3304 22.6993) rotate(39.84) scale(24.7502 26.9777)">
<stop offset="0.86" stop-opacity="0"/>
<stop offset="0.98" stop-opacity="0.47"/>
<stop offset="1"/>
</radialGradient>
</defs>
</svg>
