<svg width="25" height="24" viewBox="0 0 25 24" fill="none" xmlns="http://www.w3.org/2000/svg">
<path d="M9.5 22H15.5C20.5 22 22.5 20 22.5 15V9C22.5 4 20.5 2 15.5 2H9.5C4.5 2 2.5 4 2.5 9V15C2.5 20 4.5 22 9.5 22Z" stroke="#F1F5F9" stroke-width="1.5" stroke-linecap="round" stroke-linejoin="round"/>
<path d="M12.5 15.5C14.433 15.5 16 13.933 16 12C16 10.067 14.433 8.5 12.5 8.5C10.567 8.5 9 10.067 9 12C9 13.933 10.567 15.5 12.5 15.5Z" stroke="#F8FAFC" stroke-width="1.5" stroke-linecap="round" stroke-linejoin="round"/>
<path d="M18.1361 7H18.1477" stroke="#F8FAFC" stroke-width="2" stroke-linecap="round" stroke-linejoin="round"/>
</svg>
