<svg width="21" height="20" viewBox="0 0 21 20" fill="none" xmlns="http://www.w3.org/2000/svg">
<path d="M17.1667 0C18.0507 0 18.8986 0.35119 19.5237 0.976311C20.1488 1.60143 20.5 2.44928 20.5 3.33333V16.6667C20.5 17.5507 20.1488 18.3986 19.5237 19.0237C18.8986 19.6488 18.0507 20 17.1667 20H3.83333C2.94928 20 2.10143 19.6488 1.47631 19.0237C0.85119 18.3986 0.5 17.5507 0.5 16.6667V3.33333C0.5 2.44928 0.85119 1.60143 1.47631 0.976311C2.10143 0.35119 2.94928 0 3.83333 0H17.1667ZM17.1667 2.22222H3.83333C3.53865 2.22222 3.25603 2.33929 3.04766 2.54766C2.83929 2.75603 2.72222 3.03865 2.72222 3.33333V16.6667C2.72222 16.9614 2.83929 17.244 3.04766 17.4523C3.25603 17.6607 3.53865 17.7778 3.83333 17.7778H17.1667C17.4614 17.7778 17.744 17.6607 17.9523 17.4523C18.1607 17.244 18.2778 16.9614 18.2778 16.6667V3.33333C18.2778 3.03865 18.1607 2.75603 17.9523 2.54766C17.744 2.33929 17.4614 2.22222 17.1667 2.22222ZM6.05556 7.77778C6.3277 7.77781 6.59038 7.87773 6.79375 8.05857C6.99712 8.23942 7.12705 8.48861 7.15889 8.75889L7.16667 8.88889V14.4444C7.16635 14.7276 7.05791 15 6.8635 15.206C6.66909 15.4119 6.40339 15.5358 6.12067 15.5524C5.83796 15.569 5.55958 15.477 5.34241 15.2953C5.12524 15.1135 4.98567 14.8557 4.95222 14.5744L4.94444 14.4444V8.88889C4.94444 8.5942 5.06151 8.31159 5.26988 8.10322C5.47826 7.89484 5.76087 7.77778 6.05556 7.77778ZM9.38889 6.66667C9.64911 6.66663 9.90108 6.75792 10.1009 6.92463C10.3007 7.09133 10.4356 7.32288 10.4822 7.57889C10.7058 7.44923 10.937 7.3331 11.1744 7.23111C11.9156 6.91445 13.0256 6.74 14.0278 7.05444C14.5533 7.22111 15.0811 7.53222 15.4722 8.06222C15.8222 8.53444 16.0111 9.10889 16.0489 9.75445L16.0556 10V14.4444C16.0552 14.7276 15.9468 15 15.7524 15.206C15.558 15.4119 15.2923 15.5358 15.0096 15.5524C14.7268 15.569 14.4485 15.477 14.2313 15.2953C14.0141 15.1135 13.8746 14.8557 13.8411 14.5744L13.8333 14.4444V10C13.8333 9.63333 13.7444 9.46222 13.6867 9.38333C13.6037 9.28017 13.4895 9.20684 13.3611 9.17445C12.9744 9.05222 12.4178 9.11667 12.0478 9.27444C11.4922 9.51222 10.9833 9.88556 10.6367 10.2311L10.5 10.3778V14.4444C10.4997 14.7276 10.3912 15 10.1968 15.206C10.0024 15.4119 9.73672 15.5358 9.45401 15.5524C9.17129 15.569 8.89291 15.477 8.67574 15.2953C8.45857 15.1135 8.319 14.8557 8.28556 14.5744L8.27778 14.4444V7.77778C8.27778 7.48309 8.39484 7.20048 8.60322 6.9921C8.81159 6.78373 9.0942 6.66667 9.38889 6.66667ZM6.05556 4.44444C6.35024 4.44444 6.63286 4.56151 6.84123 4.76988C7.0496 4.97826 7.16667 5.26087 7.16667 5.55556C7.16667 5.85024 7.0496 6.13286 6.84123 6.34123C6.63286 6.5496 6.35024 6.66667 6.05556 6.66667C5.76087 6.66667 5.47826 6.5496 5.26988 6.34123C5.06151 6.13286 4.94444 5.85024 4.94444 5.55556C4.94444 5.26087 5.06151 4.97826 5.26988 4.76988C5.47826 4.56151 5.76087 4.44444 6.05556 4.44444Z" fill="white"/>
</svg>
