<svg width="15" height="18" viewBox="0 0 15 18" fill="none" xmlns="http://www.w3.org/2000/svg">
<path d="M7.54167 9.17806C8 9.17806 8.39236 9.01487 8.71875 8.68848C9.04514 8.36209 9.20833 7.96973 9.20833 7.51139C9.20833 7.05306 9.04514 6.6607 8.71875 6.33431C8.39236 6.00792 8 5.84473 7.54167 5.84473C7.08333 5.84473 6.69097 6.00792 6.36458 6.33431C6.03819 6.6607 5.875 7.05306 5.875 7.51139C5.875 7.96973 6.03819 8.36209 6.36458 8.68848C6.69097 9.01487 7.08333 9.17806 7.54167 9.17806ZM7.54167 15.3031C9.23611 13.7475 10.4931 12.3343 11.3125 11.0635C12.1319 9.79264 12.5417 8.66417 12.5417 7.67806C12.5417 6.16417 12.059 4.92459 11.0938 3.95931C10.1285 2.99403 8.94444 2.51139 7.54167 2.51139C6.13889 2.51139 4.95486 2.99403 3.98958 3.95931C3.02431 4.92459 2.54167 6.16417 2.54167 7.67806C2.54167 8.66417 2.95139 9.79264 3.77083 11.0635C4.59028 12.3343 5.84722 13.7475 7.54167 15.3031ZM7.54167 17.5114C5.30556 15.6086 3.63542 13.8413 2.53125 12.2093C1.42708 10.5774 0.875 9.06695 0.875 7.67806C0.875 5.59473 1.54514 3.935 2.88542 2.69889C4.22569 1.46278 5.77778 0.844727 7.54167 0.844727C9.30556 0.844727 10.8576 1.46278 12.1979 2.69889C13.5382 3.935 14.2083 5.59473 14.2083 7.67806C14.2083 9.06695 13.6562 10.5774 12.5521 12.2093C11.4479 13.8413 9.77778 15.6086 7.54167 17.5114Z" fill="#CCE5F3"/>
</svg>
