<svg width="82" height="72" viewBox="0 0 82 72" fill="none" xmlns="http://www.w3.org/2000/svg">
<g clip-path="url(#clip0_4020_36938)">
<path fill-rule="evenodd" clip-rule="evenodd" d="M36.1125 0C56.057 0 72.2251 16.1176 72.2251 35.9998C72.2251 55.882 56.057 71.9996 36.1125 71.9996C16.1681 71.9996 0 55.882 0 35.9998C0 16.1176 16.1681 0 36.1125 0Z" fill="white"/>
<path fill-rule="evenodd" clip-rule="evenodd" d="M35.44 0.937012C36.1249 0.937012 36.6853 1.49558 36.6853 2.1784V7.76405C36.6853 8.44626 36.1249 9.00482 35.44 9.00482C34.7556 9.00482 34.1953 8.44626 34.1953 7.76405V2.1784C34.1953 1.49558 34.7556 0.937012 35.44 0.937012Z" fill="#16214D"/>
<path fill-rule="evenodd" clip-rule="evenodd" d="M19.3108 7.1372C19.9041 6.79548 20.6732 6.99803 21.0117 7.59138L22.4657 10.145C22.8042 10.739 22.6035 11.4995 22.0101 11.8406C21.4168 12.1823 20.6471 11.9798 20.3093 11.3864L18.8552 8.83278C18.5174 8.2388 18.7181 7.4783 19.3108 7.1372Z" fill="#16214D"/>
<path fill-rule="evenodd" clip-rule="evenodd" d="M51.6531 7.1372C51.0598 6.79548 50.2907 6.99803 49.9522 7.59138L48.4982 10.145C48.1597 10.739 48.3604 11.4995 48.9538 11.8406C49.5471 12.1823 50.3169 11.9798 50.6547 11.3864L52.1087 8.83278C52.4465 8.2388 52.2459 7.4783 51.6531 7.1372Z" fill="#16214D"/>
<path fill-rule="evenodd" clip-rule="evenodd" d="M12.1938 21.7131C12.531 21.1191 12.3215 20.3536 11.7232 20.0218L9.14913 18.594C8.5508 18.2623 7.78917 18.4692 7.45198 19.0631C7.1148 19.6577 7.32421 20.4232 7.92255 20.755L10.4966 22.1822C11.0956 22.514 11.8566 22.3077 12.1938 21.7131Z" fill="#16214D"/>
<path fill-rule="evenodd" clip-rule="evenodd" d="M35.4738 62.46C36.1581 62.46 36.7185 63.0185 36.7185 63.7014V69.2864C36.7185 69.9692 36.1581 70.5278 35.4738 70.5278C34.7888 70.5278 34.2285 69.9692 34.2285 69.2864V63.7014C34.2285 63.0185 34.7888 62.46 35.4738 62.46Z" fill="#16214D"/>
<path fill-rule="evenodd" clip-rule="evenodd" d="M0.574219 35.6413C0.574219 34.9585 1.13453 34.3999 1.81888 34.3999H7.42202C8.10699 34.3999 8.6673 34.9585 8.6673 35.6413C8.6673 36.3241 8.10699 36.8827 7.42202 36.8827H1.81888C1.13453 36.8827 0.574219 36.3241 0.574219 35.6413Z" fill="#16214D"/>
<path fill-rule="evenodd" clip-rule="evenodd" d="M47.6317 61.3366C48.2244 60.9955 48.9942 61.1975 49.332 61.7908L50.7861 64.3451C51.1245 64.9384 50.9238 65.6989 50.3305 66.0406C49.7377 66.3817 48.968 66.1798 48.6296 65.5858L47.1755 63.0322C46.8377 62.4389 47.0383 61.6784 47.6317 61.3366Z" fill="#16214D"/>
<path fill-rule="evenodd" clip-rule="evenodd" d="M23.1883 59.2067C22.5949 58.8656 21.8252 59.0676 21.4874 59.6609L20.0333 62.2146C19.6949 62.8085 19.8956 63.569 20.4889 63.9101C21.0823 64.2519 21.852 64.0493 22.1898 63.4559L23.6439 60.9023C23.9817 60.3083 23.781 59.5479 23.1883 59.2067Z" fill="#16214D"/>
<path fill-rule="evenodd" clip-rule="evenodd" d="M13.137 50.332C12.7967 49.7399 12.0294 49.5292 11.4379 49.8728L8.89316 51.3528C8.3023 51.6964 8.09226 52.455 8.43319 53.0472C8.77411 53.6393 9.54135 53.8499 10.1328 53.5063L12.677 52.0257C13.2685 51.6821 13.4779 50.9241 13.137 50.332Z" fill="#16214D"/>
<path fill-rule="evenodd" clip-rule="evenodd" d="M64.0927 52.6328C64.451 52.0506 64.269 51.2783 63.6832 50.9254L61.1615 49.4075C60.5756 49.0546 59.8077 49.2342 59.4493 49.8157C59.091 50.3973 59.2723 51.1702 59.8588 51.5231L62.3806 53.041C62.9664 53.3939 63.7343 53.2144 64.0927 52.6328Z" fill="#16214D"/>
<path fill-rule="evenodd" clip-rule="evenodd" d="M59.9082 21.9518C60.2897 22.5185 61.07 22.675 61.6359 22.2911L64.0704 20.6371C64.6357 20.2531 64.7921 19.4821 64.4107 18.9148C64.0286 18.3482 63.2489 18.1916 62.683 18.5756L60.2485 20.2295C59.6832 20.6141 59.5268 21.3845 59.9082 21.9518Z" fill="#16214D"/>
<path fill-rule="evenodd" clip-rule="evenodd" d="M36.1133 10.5444C50.2165 10.5444 61.649 21.9413 61.649 35.9998C61.649 50.059 50.2165 61.4559 36.1133 61.4559C22.0107 61.4559 10.5781 50.059 10.5781 35.9998C10.5781 21.9413 22.0107 10.5444 36.1133 10.5444Z" fill="#16214D"/>
<path fill-rule="evenodd" clip-rule="evenodd" d="M35.5969 16.5234C36.3311 16.5234 36.9313 17.1224 36.9307 17.8543L36.9194 37.3513C36.9188 38.0832 36.318 38.6815 35.5838 38.6815C34.8496 38.6809 34.2494 38.0819 34.25 37.35L34.2612 17.8531C34.2618 17.1211 34.8627 16.5228 35.5969 16.5234Z" fill="white"/>
<path fill-rule="evenodd" clip-rule="evenodd" d="M41.3434 46.7894C41.9529 46.3812 42.2353 45.6138 41.8657 44.9813L36.7593 36.2425C36.3897 35.6106 35.5551 35.3142 34.9456 35.7218V35.7224C34.336 36.13 34.0537 36.898 34.4233 37.5305L39.5297 46.2687C39.8986 46.9006 40.7338 47.1976 41.3434 46.7894Z" fill="white"/>
<path d="M35.8959 39.0331C37.0163 39.0331 37.9246 38.1276 37.9246 37.0107C37.9246 35.8937 37.0163 34.9883 35.8959 34.9883C34.7755 34.9883 33.8672 35.8937 33.8672 37.0107C33.8672 38.1276 34.7755 39.0331 35.8959 39.0331Z" fill="#16214D" stroke="#FEFEFE" stroke-width="0.507858"/>
<path fill-rule="evenodd" clip-rule="evenodd" d="M60.8789 36.8202C60.8789 36.2032 61.385 35.6987 62.0039 35.6987H67.0667C67.6856 35.6987 68.1917 36.2032 68.1917 36.8202C68.1917 37.4372 67.6856 37.9417 67.0667 37.9417H62.0039C61.385 37.9417 60.8789 37.4372 60.8789 36.8202Z" fill="#FEFEFE"/>
<path fill-rule="evenodd" clip-rule="evenodd" d="M51.8145 31.5532H72.561V42.6866H51.8145V31.5532Z" fill="#16214D"/>
<path d="M72.3574 38.785L75.7692 38.4744C75.9107 38.877 76.107 39.1647 76.3613 39.3374C76.6149 39.5101 76.9528 39.5965 77.3772 39.5965C77.839 39.5965 78.1968 39.4983 78.4511 39.3001C78.6499 39.156 78.7484 38.9721 78.7484 38.7533C78.7484 38.5061 78.6181 38.3135 78.3588 38.178C78.1737 38.0829 77.6801 37.9649 76.8805 37.8239C75.6857 37.617 74.8573 37.4237 74.3899 37.2454C73.9249 37.0702 73.5354 36.7682 73.215 36.3476C72.8978 35.9251 72.7389 35.4442 72.7389 34.9037C72.7389 34.3134 72.909 33.8046 73.2524 33.3783C73.5958 32.9496 74.0695 32.6303 74.6729 32.4203C75.2762 32.2102 76.0839 32.104 77.0973 32.104C78.165 32.104 78.9559 32.1842 79.4639 32.3482C79.975 32.5122 80.3994 32.7657 80.7397 33.1081C81.0806 33.4535 81.3636 33.9164 81.5886 34.5035L78.3327 34.8142C78.2491 34.5296 78.1077 34.3196 77.9113 34.1842C77.6427 34.0059 77.3167 33.9164 76.9328 33.9164C76.5458 33.9164 76.2628 33.9854 76.087 34.1239C75.9107 34.2618 75.8215 34.4284 75.8215 34.6241C75.8215 34.8459 75.9337 35.0099 76.1562 35.1224C76.3787 35.2373 76.8692 35.338 77.6228 35.4268C78.7683 35.5567 79.6172 35.7381 80.1769 35.968C80.7341 36.1985 81.161 36.5265 81.4558 36.9553C81.7531 37.384 81.9002 37.8531 81.9002 38.365C81.9002 38.8826 81.7444 39.3865 81.4297 39.8754C81.118 40.3644 80.6244 40.7534 79.9519 41.0435C79.2794 41.3343 78.3613 41.4784 77.2014 41.4784C75.5616 41.4784 74.3924 41.2455 73.6968 40.7764C73.0013 40.3104 72.5538 39.6456 72.3574 38.785Z" fill="white"/>
<path fill-rule="evenodd" clip-rule="evenodd" d="M38.3033 32.3694H38.3295V29.5542H41.8808V32.3694H43.596V34.4595H41.8808V37.827C41.8808 38.3452 41.9818 38.6503 42.1843 38.7429C42.3863 38.8348 42.8512 38.8808 43.5792 38.8808V41.4369C43.5904 41.4369 43.3187 41.4487 42.7646 41.4717C42.2099 41.4947 41.8116 41.5059 41.5692 41.5059C41.189 41.5059 40.8474 41.4928 40.5452 41.4661L38.7732 38.4335V38.4142C38.7732 37.9563 38.5937 37.5406 38.3008 37.2318L38.3033 32.3694Z" fill="white"/>
<path d="M48.3195 35.2568L45.0287 34.9113C45.1527 34.336 45.3316 33.8843 45.5659 33.5562C45.7997 33.225 46.1344 32.9405 46.5756 32.6988C46.8904 32.523 47.3235 32.3881 47.8751 32.2931C48.4261 32.198 49.0238 32.1489 49.6676 32.1489C50.6979 32.1489 51.5231 32.2067 52.1495 32.3217C52.7734 32.4366 53.2957 32.6783 53.7114 33.0442C54.0056 33.2971 54.2368 33.6569 54.4038 34.1204C54.5746 34.5833 54.6581 35.0262 54.6581 35.4494V39.409C54.6581 39.8321 54.6843 40.1627 54.7391 40.4019C54.7909 40.6405 54.9093 40.9455 55.0882 41.3165H51.864C51.7344 41.0866 51.6502 40.9139 51.6097 40.7927C51.5723 40.6722 51.5318 40.4852 51.4913 40.2292C51.0413 40.6604 50.5938 40.9685 50.1463 41.1524C49.5374 41.4004 48.8306 41.524 48.0247 41.524C46.9539 41.524 46.14 41.2761 45.5859 40.7784C45.0287 40.2838 44.752 39.6706 44.752 38.9455C44.752 38.2639 44.9508 37.7029 45.3522 37.2624C45.7535 36.8219 46.4921 36.4938 47.5691 36.2813C48.8593 36.0222 49.6963 35.8408 50.0802 35.7346C50.4642 35.6308 50.8712 35.4953 51.2981 35.3257C51.2981 34.9026 51.2115 34.6093 51.0357 34.4397C50.8624 34.2695 50.5564 34.1862 50.1176 34.1862C49.5548 34.1862 49.1335 34.2757 48.8505 34.4571C48.6312 34.6006 48.4548 34.8653 48.3195 35.2568ZM51.2981 37.0524C50.825 37.222 50.3314 37.3717 49.8147 37.5041C49.1161 37.6911 48.6717 37.875 48.4866 38.0564C48.2933 38.2434 48.198 38.4565 48.198 38.6951C48.198 38.9685 48.2933 39.1928 48.4809 39.3655C48.6717 39.5383 48.9484 39.6246 49.3155 39.6246C49.6988 39.6246 50.0572 39.5296 50.3888 39.3425C50.7178 39.1555 50.9516 38.9281 51.0906 38.6579C51.2289 38.3876 51.2981 38.0365 51.2981 37.6047V37.0524Z" fill="white"/>
<path d="M56.7832 32.5273H59.993V33.8302C60.4549 33.2835 60.9223 32.8952 61.3929 32.6653C61.8634 32.4348 62.4318 32.3198 63.0987 32.3198C63.8142 32.3198 64.3802 32.4466 64.799 32.6994C65.2172 32.9529 65.5581 33.3301 65.8236 33.8302C66.3634 33.2462 66.8539 32.8467 67.2983 32.6361C67.7427 32.4261 68.2912 32.3198 68.9437 32.3198C69.9048 32.3198 70.6552 32.605 71.1949 33.1772C71.7347 33.747 72.0064 34.6417 72.0064 35.8564V41.4874H68.5598V36.3683C68.5598 35.9601 68.4819 35.6575 68.3229 35.4618C68.0948 35.1512 67.8063 34.9958 67.4659 34.9958C67.0621 34.9958 66.7355 35.1425 66.4874 35.4364C66.2419 35.7296 66.1178 36.2018 66.1178 36.8492V41.4874H62.6712V36.5498C62.6712 36.1552 62.6481 35.8881 62.602 35.747C62.5303 35.5227 62.4032 35.3413 62.2212 35.2034C62.0423 35.0648 61.8285 34.9958 61.5861 34.9958C61.1909 34.9958 60.8643 35.1456 60.6107 35.4419C60.3564 35.7414 60.2292 36.2304 60.2292 36.912V41.4874H56.7832V32.5273Z" fill="white"/>
</g>
<defs>
<clipPath id="clip0_4020_36938">
<rect width="81.9" height="72" fill="white"/>
</clipPath>
</defs>
</svg>
