<svg width="135" height="49" viewBox="0 0 135 49" fill="none" xmlns="http://www.w3.org/2000/svg">
<path d="M24.6632 2.24213C37.0534 2.24213 47.2025 12.4068 47.2025 24.7977C47.2025 37.1722 37.0535 47.3372 24.6632 47.3372C12.2728 47.3372 2.12397 37.1883 2.12397 24.7977C2.12397 12.4071 12.2733 2.24213 24.6632 2.24213Z" stroke="white" stroke-width="0.536994"/>
<path fill-rule="evenodd" clip-rule="evenodd" d="M4.89844 18.9058L5.39739 18.0205L7.97262 19.3243L8.536 18.3424L18.4671 23.9437L18.2096 24.4106L12.4313 21.5936C14.6525 23.5734 17.389 25.682 20.5115 25.682C24.1168 25.682 27.0142 22.833 28.5915 19.823C29.4127 19.7586 30.2335 19.6941 31.0705 19.6941C35.2717 19.6941 39.6333 20.5148 43.6741 21.6899L45.0581 22.0923L45.4284 22.1891L44.2214 23.2352C40.632 22.2052 36.9302 21.4003 33.1956 21.1749L32.7769 21.7704C35.8195 21.9795 38.8616 22.5108 41.8072 23.2833L42.8532 23.5571L43.6099 23.7502L42.4029 24.7801C38.9421 23.8467 35.3527 23.1868 31.7474 23.1707L31.3771 23.6376C34.9344 23.7662 38.395 24.4101 41.8553 25.2312L40.7285 26.1807C37.3164 25.4722 33.8879 25.0376 30.3953 24.9893L30.0412 25.4722H30.7332C33.5823 25.4722 36.4634 25.8909 39.2482 26.4701L40.1817 26.6797L39.0063 27.6615C36.9142 27.2591 34.7895 27.0014 32.6486 27.0014C29.8479 27.0014 26.967 27.5166 24.4237 28.7236C27.4497 32.0718 31.6186 34.8562 36.2864 34.8562H36.3343L34.8216 36.5624C29.1557 34.8401 23.9405 31.9753 19.112 28.5787C16.456 26.7115 13.9934 24.555 11.3213 22.7039C9.47022 21.4322 7.587 20.2733 5.5912 19.2594L4.89844 18.9058Z" fill="white"/>
<path d="M60.9875 30.0333V32.7881H52.0293V17.9225H55.4779V30.0333H60.9875ZM70.7566 22.2077V32.7881H68.7976C68.4031 32.7881 68.1446 32.6112 68.0222 32.2575L67.8385 31.6454C67.6345 31.8426 67.4236 32.0229 67.206 32.1861C66.9883 32.3426 66.7536 32.4786 66.502 32.5942C66.2571 32.7031 65.9884 32.7881 65.6959 32.8493C65.4103 32.9173 65.0974 32.9513 64.7573 32.9513C64.1791 32.9513 63.6656 32.8527 63.2166 32.6554C62.7745 32.4514 62.4004 32.1691 62.0943 31.8086C61.7882 31.4481 61.557 31.023 61.4005 30.5332C61.2441 30.0435 61.1659 29.5062 61.1659 28.9212V22.2077H64.3288V28.9212C64.3288 29.4449 64.4478 29.8497 64.6859 30.1353C64.9239 30.421 65.2742 30.5639 65.7368 30.5639C66.0836 30.5639 66.4067 30.4924 66.706 30.3496C67.0121 30.2 67.308 29.9993 67.5937 29.7476V22.2077H70.7566ZM82.9656 24.3911V29.6456C82.9656 29.8905 83.0234 30.0945 83.139 30.2578C83.2615 30.4142 83.4349 30.4924 83.6594 30.4924C83.775 30.4924 83.8702 30.4822 83.9451 30.4618C84.0267 30.4346 84.0947 30.4074 84.1491 30.3802C84.2103 30.3462 84.2648 30.319 84.3124 30.2986C84.3668 30.2714 84.428 30.2578 84.496 30.2578C84.5912 30.2578 84.6661 30.2816 84.7205 30.3292C84.7817 30.37 84.8429 30.438 84.9041 30.5332L85.8632 32.0331C85.4551 32.3392 84.996 32.5704 84.4858 32.7269C83.9757 32.8765 83.4485 32.9513 82.9044 32.9513C82.401 32.9513 81.9555 32.8799 81.5678 32.7371C81.1869 32.5874 80.8638 32.38 80.5985 32.1147C80.34 31.8426 80.1428 31.5161 80.0068 31.1352C79.8707 30.7543 79.8027 30.3292 79.8027 29.8599V24.3911H76.0378V32.7881H72.8749V24.3809L72.1811 24.2381C71.9431 24.1837 71.7492 24.0986 71.5996 23.983C71.4567 23.8674 71.3853 23.6973 71.3853 23.4729V22.2281H72.8749V21.6261C72.8749 21.0208 72.9702 20.4732 73.1606 19.9835C73.3579 19.4937 73.6368 19.0754 73.9973 18.7285C74.3646 18.3816 74.8101 18.1129 75.3338 17.9225C75.8576 17.732 76.4527 17.6368 77.1193 17.6368C77.3778 17.6368 77.6159 17.6538 77.8335 17.6878C78.0512 17.715 78.2791 17.7626 78.5171 17.8307L78.4559 19.3713C78.4491 19.4801 78.4219 19.572 78.3743 19.6468C78.3267 19.7148 78.2621 19.7726 78.1804 19.8202C78.1056 19.861 78.024 19.8916 77.9356 19.9121C77.8471 19.9325 77.7587 19.9427 77.6703 19.9427C77.3914 19.9427 77.1431 19.9699 76.9255 20.0243C76.7078 20.0787 76.5242 20.1773 76.3745 20.3202C76.2317 20.4562 76.1229 20.6399 76.048 20.8711C75.9732 21.0956 75.9358 21.3813 75.9358 21.7282V22.2281H79.9863L80.6189 19.6264C80.7005 19.2999 80.9318 19.1366 81.3127 19.1366H82.9656V22.2281H85.5877V24.3911H82.9656ZM89.3019 23.1362C89.6828 22.8097 90.0943 22.5478 90.5364 22.3505C90.9854 22.1465 91.5193 22.0445 92.1383 22.0445C92.7165 22.0445 93.2266 22.1465 93.6687 22.3505C94.1176 22.5478 94.4952 22.8267 94.8012 23.1872C95.1073 23.5409 95.3386 23.966 95.495 24.4625C95.6515 24.9523 95.7297 25.4862 95.7297 26.0644V32.7881H92.5668V26.0644C92.5668 25.5474 92.4478 25.1461 92.2097 24.8605C91.9716 24.568 91.6213 24.4217 91.1588 24.4217C90.8119 24.4217 90.4854 24.4965 90.1793 24.6462C89.8801 24.789 89.5876 24.9863 89.3019 25.238V32.7881H86.139V17.5144H89.3019V23.1362ZM102.419 28.4825C101.786 28.5097 101.266 28.5641 100.858 28.6457C100.45 28.7273 100.127 28.8294 99.8887 28.9518C99.6506 29.0742 99.4839 29.2137 99.3887 29.3701C99.3003 29.5266 99.2561 29.6966 99.2561 29.8803C99.2561 30.2408 99.3547 30.4958 99.552 30.6455C99.7492 30.7883 100.038 30.8597 100.419 30.8597C100.827 30.8597 101.184 30.7883 101.491 30.6455C101.797 30.5026 102.106 30.2714 102.419 29.9517V28.4825ZM96.7258 23.6769C97.3651 23.1124 98.0725 22.694 98.848 22.422C99.6302 22.1431 100.467 22.0036 101.358 22.0036C101.997 22.0036 102.572 22.1091 103.082 22.3199C103.599 22.524 104.034 22.8131 104.388 23.1872C104.749 23.5545 105.024 23.9932 105.215 24.5033C105.405 25.0135 105.5 25.5713 105.5 26.1766V32.7881H104.051C103.752 32.7881 103.524 32.7473 103.368 32.6657C103.218 32.584 103.092 32.414 102.99 32.1555L102.766 31.5739C102.501 31.7984 102.246 31.9957 102.001 32.1657C101.756 32.3358 101.501 32.482 101.235 32.6044C100.977 32.7201 100.698 32.8051 100.399 32.8595C100.106 32.9207 99.7798 32.9513 99.4193 32.9513C98.9364 32.9513 98.4977 32.8901 98.1031 32.7677C97.7086 32.6384 97.3719 32.4514 97.0931 32.2065C96.821 31.9617 96.6101 31.659 96.4605 31.2985C96.3108 30.9312 96.236 30.5094 96.236 30.0333C96.236 29.6524 96.3312 29.2681 96.5217 28.8804C96.7122 28.4859 97.042 28.1288 97.5114 27.8091C97.9807 27.4826 98.6133 27.2105 99.4091 26.9929C100.205 26.7752 101.208 26.6528 102.419 26.6255V26.1766C102.419 25.5576 102.29 25.1121 102.031 24.84C101.78 24.5612 101.419 24.4217 100.95 24.4217C100.576 24.4217 100.27 24.4625 100.031 24.5442C99.7934 24.6258 99.5792 24.7176 99.3887 24.8196C99.2051 24.9217 99.0248 25.0135 98.848 25.0951C98.6711 25.1767 98.4602 25.2176 98.2154 25.2176C97.9977 25.2176 97.8141 25.1631 97.6644 25.0543C97.5148 24.9455 97.3923 24.8162 97.2971 24.6666L96.7258 23.6769ZM109.624 23.3504C109.828 23.16 110.039 22.9831 110.256 22.8199C110.474 22.6566 110.705 22.5206 110.95 22.4118C111.202 22.2961 111.471 22.2077 111.756 22.1465C112.049 22.0785 112.365 22.0445 112.705 22.0445C113.283 22.0445 113.793 22.1465 114.235 22.3505C114.684 22.5478 115.062 22.8267 115.368 23.1872C115.674 23.5409 115.905 23.966 116.062 24.4625C116.218 24.9523 116.296 25.4862 116.296 26.0644V32.7881H113.134V26.0644C113.134 25.5474 113.015 25.1461 112.776 24.8605C112.538 24.568 112.188 24.4217 111.726 24.4217C111.379 24.4217 111.052 24.4965 110.746 24.6462C110.447 24.789 110.154 24.9863 109.869 25.238V32.7881H106.706V22.2077H108.665C109.059 22.2077 109.318 22.3846 109.44 22.7383L109.624 23.3504ZM124.251 24.5238C124.169 24.653 124.081 24.7448 123.986 24.7992C123.897 24.8536 123.782 24.8809 123.639 24.8809C123.489 24.8809 123.339 24.8502 123.19 24.789C123.04 24.721 122.877 24.6496 122.7 24.5748C122.53 24.4999 122.336 24.4319 122.118 24.3707C121.901 24.3027 121.653 24.2687 121.374 24.2687C120.972 24.2687 120.663 24.3469 120.445 24.5033C120.234 24.653 120.129 24.8639 120.129 25.1359C120.129 25.3332 120.197 25.4964 120.333 25.6257C120.476 25.7549 120.663 25.8705 120.894 25.9726C121.125 26.0678 121.387 26.1596 121.68 26.248C121.972 26.3365 122.272 26.4351 122.578 26.5439C122.884 26.6528 123.183 26.782 123.475 26.9316C123.768 27.0745 124.03 27.2547 124.261 27.4724C124.492 27.6832 124.676 27.9417 124.812 28.2478C124.955 28.5539 125.026 28.9212 125.026 29.3497C125.026 29.8735 124.931 30.3564 124.741 30.7985C124.55 31.2406 124.264 31.6216 123.884 31.9412C123.509 32.2609 123.044 32.5092 122.486 32.6861C121.935 32.8629 121.299 32.9513 120.578 32.9513C120.217 32.9513 119.857 32.9173 119.496 32.8493C119.136 32.7813 118.786 32.6895 118.445 32.5738C118.112 32.4582 117.803 32.3222 117.517 32.1657C117.231 32.0025 116.986 31.829 116.782 31.6454L117.517 30.4822C117.599 30.3462 117.701 30.2408 117.823 30.1659C117.952 30.0843 118.116 30.0435 118.313 30.0435C118.496 30.0435 118.66 30.0843 118.803 30.1659C118.952 30.2476 119.112 30.336 119.282 30.4312C119.452 30.5264 119.649 30.6149 119.874 30.6965C120.105 30.7781 120.394 30.8189 120.741 30.8189C120.986 30.8189 121.193 30.7951 121.363 30.7475C121.534 30.6931 121.67 30.6217 121.772 30.5332C121.874 30.4448 121.948 30.3462 121.996 30.2374C122.044 30.1285 122.067 30.0163 122.067 29.9007C122.067 29.6898 121.996 29.5164 121.853 29.3803C121.71 29.2443 121.523 29.1287 121.292 29.0334C121.061 28.9314 120.796 28.8396 120.496 28.7579C120.204 28.6695 119.904 28.5709 119.598 28.4621C119.292 28.3532 118.99 28.224 118.69 28.0744C118.398 27.9179 118.136 27.7241 117.905 27.4928C117.673 27.2547 117.486 26.9656 117.344 26.6255C117.201 26.2855 117.129 25.8739 117.129 25.391C117.129 24.9421 117.214 24.517 117.384 24.1156C117.561 23.7075 117.823 23.3504 118.17 23.0443C118.517 22.7383 118.952 22.4968 119.476 22.3199C120 22.1363 120.612 22.0445 121.312 22.0445C121.693 22.0445 122.061 22.0785 122.414 22.1465C122.775 22.2145 123.112 22.3097 123.424 22.4322C123.737 22.5546 124.023 22.7008 124.281 22.8709C124.54 23.0341 124.768 23.2144 124.965 23.4116L124.251 24.5238ZM131.256 28.4825C130.624 28.5097 130.104 28.5641 129.695 28.6457C129.287 28.7273 128.964 28.8294 128.726 28.9518C128.488 29.0742 128.321 29.2137 128.226 29.3701C128.138 29.5266 128.094 29.6966 128.094 29.8803C128.094 30.2408 128.192 30.4958 128.389 30.6455C128.587 30.7883 128.876 30.8597 129.257 30.8597C129.665 30.8597 130.022 30.7883 130.328 30.6455C130.634 30.5026 130.944 30.2714 131.256 29.9517V28.4825ZM125.563 23.6769C126.203 23.1124 126.91 22.694 127.685 22.422C128.468 22.1431 129.304 22.0036 130.195 22.0036C130.835 22.0036 131.409 22.1091 131.92 22.3199C132.437 22.524 132.872 22.8131 133.226 23.1872C133.586 23.5545 133.862 23.9932 134.052 24.5033C134.242 25.0135 134.338 25.5713 134.338 26.1766V32.7881H132.889C132.59 32.7881 132.362 32.7473 132.205 32.6657C132.056 32.584 131.93 32.414 131.828 32.1555L131.603 31.5739C131.338 31.7984 131.083 31.9957 130.838 32.1657C130.593 32.3358 130.338 32.482 130.073 32.6044C129.814 32.7201 129.536 32.8051 129.236 32.8595C128.944 32.9207 128.617 32.9513 128.257 32.9513C127.774 32.9513 127.335 32.8901 126.941 32.7677C126.546 32.6384 126.209 32.4514 125.931 32.2065C125.658 31.9617 125.448 31.659 125.298 31.2985C125.148 30.9312 125.073 30.5094 125.073 30.0333C125.073 29.6524 125.169 29.2681 125.359 28.8804C125.55 28.4859 125.88 28.1288 126.349 27.8091C126.818 27.4826 127.451 27.2105 128.247 26.9929C129.042 26.7752 130.046 26.6528 131.256 26.6255V26.1766C131.256 25.5576 131.127 25.1121 130.869 24.84C130.617 24.5612 130.257 24.4217 129.787 24.4217C129.413 24.4217 129.107 24.4625 128.869 24.5442C128.631 24.6258 128.417 24.7176 128.226 24.8196C128.043 24.9217 127.862 25.0135 127.685 25.0951C127.509 25.1767 127.298 25.2176 127.053 25.2176C126.835 25.2176 126.652 25.1631 126.502 25.0543C126.352 24.9455 126.23 24.8162 126.135 24.6666L125.563 23.6769Z" fill="white"/>
</svg>
