<svg width="28" height="28" viewBox="0 0 28 28" fill="none" xmlns="http://www.w3.org/2000/svg">
<path d="M11.7947 21.1754H7.37305C6.89471 21.1754 6.49805 20.7787 6.49805 20.3004V14.3271C6.49805 13.1138 7.4897 12.1221 8.70303 12.1221H11.7947C12.273 12.1221 12.6697 12.5187 12.6697 12.9971V20.2887C12.6697 20.7787 12.273 21.1754 11.7947 21.1754ZM8.24805 19.4254H10.9197V13.8837H8.70303C8.45803 13.8837 8.24805 14.082 8.24805 14.3387V19.4254Z" fill="#333333"/>
<path d="M16.2049 21.1753H11.7832C11.3049 21.1753 10.9082 20.7786 10.9082 20.3003V9.03021C10.9082 7.81688 11.8999 6.8252 13.1132 6.8252H14.8865C16.0999 6.8252 17.0915 7.81688 17.0915 9.03021V20.3003C17.0799 20.7786 16.6949 21.1753 16.2049 21.1753ZM12.6698 19.4253H15.3415V9.03021C15.3415 8.78521 15.1432 8.5752 14.8865 8.5752H13.1132C12.8682 8.5752 12.6582 8.77355 12.6582 9.03021V19.4253H12.6698Z" fill="#333333"/>
<path d="M20.6267 21.1746H16.2051C15.7267 21.1746 15.3301 20.7779 15.3301 20.2996V14.9912C15.3301 14.5129 15.7267 14.1162 16.2051 14.1162H19.2967C20.5101 14.1162 21.5017 15.1079 21.5017 16.3212V20.2996C21.5017 20.7779 21.1167 21.1746 20.6267 21.1746ZM17.0801 19.4246H19.7517V16.3212C19.7517 16.0762 19.5534 15.8662 19.2967 15.8662H17.0801V19.4246Z" fill="#333333"/>
<path d="M17.5007 26.5413H10.5007C4.16565 26.5413 1.45898 23.8347 1.45898 17.4997V10.4997C1.45898 4.16467 4.16565 1.45801 10.5007 1.45801H17.5007C23.8356 1.45801 26.5423 4.16467 26.5423 10.4997V17.4997C26.5423 23.8347 23.8356 26.5413 17.5007 26.5413ZM10.5007 3.20801C5.12232 3.20801 3.20898 5.12134 3.20898 10.4997V17.4997C3.20898 22.878 5.12232 24.7913 10.5007 24.7913H17.5007C22.879 24.7913 24.7923 22.878 24.7923 17.4997V10.4997C24.7923 5.12134 22.879 3.20801 17.5007 3.20801H10.5007Z" fill="#333333"/>
</svg>
