<svg width="88" height="42" viewBox="0 0 88 42" fill="none" xmlns="http://www.w3.org/2000/svg">
<path fill-rule="evenodd" clip-rule="evenodd" d="M9.90118 35.5353C10.0164 35.3175 10.125 34.9844 10.7117 34.7634C10.7117 34.7634 30.6295 24.2834 57.1269 26.3798C57.1269 26.3798 58.6316 26.2939 58.2231 27.3128C57.9836 27.9107 57.5364 27.9486 56.687 28.0164C56.687 28.0164 56.3987 28.0854 55.2713 28.0667C55.2713 28.0667 57.9811 29.6961 47.2848 29.3575C47.2848 29.3575 48.2291 30.8498 44.2958 30.4195C44.2958 30.4195 33.3261 29.6464 11.1551 35.872C11.1551 35.872 9.41151 36.4557 9.90118 35.5353Z" fill="white"/>
<path fill-rule="evenodd" clip-rule="evenodd" d="M68.5587 21.5067C68.5587 21.5067 71.6601 25.4676 67.812 25.2663C67.812 25.2663 67.064 25.3538 66.6053 22.9675C66.6053 22.9675 65.2832 18.2879 65.3795 16.5191C65.2485 16.7457 64.5165 18.1129 64.0975 19.6235C63.8551 20.4968 63.7563 20.8003 63.4096 21.6363C63.219 22.0553 63.0374 22.4333 62.8673 22.6764C61.1678 25.1163 61.003 21.9996 61.003 21.9996C60.6519 19.3427 61.5321 15.0795 61.5321 15.0795C62.1713 12.1367 63.1114 13.3488 63.1114 13.3488C64.4137 13.8746 63.8866 15.8193 63.8866 15.8193C63.6086 17.3028 63.359 16.9809 63.359 16.9809C63.0374 17.3101 62.9495 18.0208 62.9268 18.47C62.9268 18.47 62.805 20.1166 63.2808 18.8552C63.6384 17.7283 64.3314 15.8522 64.8351 15.2534C64.8351 15.2534 65.5774 14.0301 66.011 15.0377C66.011 15.0377 67.8816 20.8603 68.5587 21.5067ZM15.5215 34.0592C16.3153 35.7746 16.9227 36.9857 16.7562 37.211C16.2161 37.9394 13.785 34.9964 13.785 34.9964C9.55562 29.5637 7.68642 22.6399 7.27717 20.958C7.21708 20.7123 7.33661 20.4922 7.33661 20.4922C7.48127 20.2444 7.71089 20.1062 8.32412 19.9991C8.32205 19.9985 8.32632 19.9997 8.32412 19.9991C8.00268 19.7595 7.90218 19.6968 7.93028 19.53C7.9918 19.259 8.5843 19.2662 8.5843 19.2662C9.0517 19.2333 9.39127 19.188 9.39127 19.188C10.077 19.0755 10.425 18.9768 10.425 18.9768C11.8847 18.6155 12.4566 17.6335 12.4566 17.6335C13.9003 15.3675 11.5813 13.0966 11.5813 13.0966C5.70363 7.86485 0.970724 10.3454 0.970724 10.3454C0.713777 10.4596 0.516794 10.4616 0.235112 10.3191C-0.38161 10.0006 0.714555 8.64844 0.714555 8.64844C3.6298 4.90823 5.15931 6.02845 5.15931 6.02845C10.8223 6.61103 13.3145 11.1972 13.3145 11.1972C15.288 14.4317 14.7763 17.0106 14.5112 17.7608C13.5458 20.4972 11.2578 20.5656 11.2578 20.5656C10.9014 20.5967 10.5892 20.6113 10.3132 20.6127C10.5763 21.077 10.7687 21.888 10.7687 21.888C11.2079 24.0213 15.5215 34.0592 15.5215 34.0592ZM7.91215 12.0867C8.22997 12.9853 7.80582 14.4122 7.80582 14.4122C5.97055 20.2262 3.67617 33.9563 3.21758 36.7558L3.22729 36.7524C3.22729 36.7524 3.21563 36.7957 3.19854 36.8742C3.15723 37.1251 3.13547 37.2613 3.13547 37.2613C3.10503 37.4686 3.07317 37.6533 3.04093 37.8273C2.99029 38.2576 2.95156 38.799 2.96089 39.4181L2.9548 39.4153C2.96983 40.1586 2.94897 40.9205 2.80457 41.0228C2.39183 41.3151 2.17878 40.4595 2.06508 39.5283C1.66062 39.3822 1.32869 38.5705 1.32869 38.5705C-0.159243 37.0268 0.95324 32.7359 0.95324 32.7359C1.96341 26.5204 6.97101 13.4146 6.97101 13.4146C7.55807 11.9489 7.80142 11.7746 7.91215 12.0867ZM19.4531 24.2533C19.3281 24.5642 19.209 24.9143 18.8865 25.2336C18.8865 25.2336 17.2311 26.8032 17.2893 24.5861C17.2893 24.5861 17.344 23.3587 17.6173 22.2156C17.6173 22.2156 18.3793 19.2151 19.561 17.4657C19.6695 17.2962 19.7635 17.2798 19.824 17.407C19.9886 17.7562 20.0171 18.155 20.1423 18.4804C20.1752 18.5663 20.2115 18.6558 20.2505 18.7416C20.1097 19.8669 19.7463 22.001 19.6854 23.6149C19.6405 23.837 19.537 24.0454 19.4531 24.2533ZM23.815 22.8678C23.815 22.8678 23.8073 22.7946 23.7656 22.7354C23.6563 22.6187 23.12 22.9938 22.5877 23.4901C22.503 23.5686 22.4264 23.637 22.3554 23.6988C22.1596 23.8859 21.971 24.0739 21.8952 24.1756C21.8952 24.1756 21.5526 24.5985 21.5901 23.6482C21.5906 23.635 21.5909 23.6235 21.5917 23.6105H21.5909C21.5974 23.3984 21.6234 23.13 21.6318 22.8426C21.6318 22.8426 22.1017 19.9365 22.3048 19.1234C22.3048 19.1234 22.4163 18.3573 22.5914 17.4844C22.5914 17.4844 23.3911 16.1957 21.9221 15.778C21.9221 15.778 21.2188 13.104 20.4634 17.3167L20.463 17.3153C20.41 16.8812 20.1541 16.2139 19.7585 15.9501C19.6799 15.8797 19.568 15.8284 19.4124 15.8075C19.3539 15.7991 19.3148 15.8235 19.1851 15.7967C19.1851 15.7967 18.4814 15.4207 17.7263 16.882C16.9242 18.2495 14.5836 22.5968 15.1179 26.2373C15.1179 26.2373 15.4071 28.1211 16.4882 28.111C16.4882 28.111 17.9178 28.1363 18.9984 26.5495C18.9984 26.5495 19.3225 26.1065 19.6695 25.4497C19.6826 25.6728 19.7056 25.9191 19.747 26.1615C19.7538 26.2094 19.7609 26.2566 19.7691 26.3019C19.7691 26.3019 19.8094 26.7248 20.0321 27.043C20.1963 27.2781 20.4607 27.4568 20.8821 27.3684C20.9244 27.3545 20.9683 27.3387 21.0139 27.3166C21.0139 27.3166 22.527 26.7501 22.49 25.7536C22.4713 25.2615 22.5863 25.1632 22.5863 25.1632C22.5863 25.1632 22.6828 25.081 22.6483 24.9081C22.6483 24.9081 23.8555 23.6582 23.815 22.8678ZM49.9719 15.2827C50.6466 16.0125 51.7767 17.629 51.5903 19.3146C51.5903 19.3146 51.2645 23.1142 47.2062 22.9848C47.2062 22.9848 46.7641 22.9475 46.7555 22.5238C46.7566 22.2108 46.84 21.9611 47.1889 21.7546C47.1889 21.7546 49.8279 20.4328 48.0992 15.521C48.0992 15.521 47.4467 16.3034 46.5307 17.4038C46.5307 17.4038 45.8911 18.4959 45.9374 16.9446C45.9374 16.9446 45.9934 16.0871 46.2312 15.7569C46.2312 15.7569 47.7029 14.4116 48.1909 12.3094C48.4358 10.9212 49.7475 9.748 49.8748 10.9162C49.9321 11.4424 49.5417 11.7722 49.349 12.1455C48.9098 12.9977 49.4737 14.7954 49.9719 15.2827ZM55.8565 12.4376C56.564 10.988 57.0596 11.643 57.0596 11.643C57.1269 11.701 57.2682 11.6309 57.3267 11.6243C58.2664 11.514 57.4951 12.9446 57.4951 12.9446C56.7034 14.6114 55.9858 17.7275 55.9858 17.7275C55.8049 18.4335 55.6304 19.5686 55.6304 19.5686C55.3437 21.4595 56.6304 20.1214 56.6304 20.1214C56.8143 19.9198 56.9828 19.633 57.0697 19.507C57.2168 19.2909 57.3441 19.2662 57.3441 19.2662C57.6129 19.2075 57.156 17.0419 57.156 17.0419C56.9611 16.185 56.9951 16.1465 56.9951 16.1465C56.8697 15.0953 57.2476 14.8251 57.2476 14.8251C57.6495 14.4451 57.9734 15.4406 57.9734 15.4406C58.333 16.2888 58.6523 18.5214 58.6523 18.5214C58.9587 20.5002 58.0013 20.3457 58.0013 20.3457C57.6045 20.4667 56.9258 21.5121 56.9258 21.5121C55.8692 22.8658 54.3961 22.998 54.3961 22.998C52.9338 23.0775 53.0503 21.0828 53.0503 21.0828C53.0393 18.9232 55.8565 12.4376 55.8565 12.4376ZM39.006 7.34025C38.9651 7.93186 38.7606 8.42556 38.4841 8.68716C38.087 9.14957 37.2656 9.94179 37.0016 9.83506C36.7341 9.72714 37.036 8.41513 37.0507 8.04721C37.0667 7.63174 37.0658 7.32822 37.1203 6.94545C37.2062 6.05012 37.6684 5.40294 38.1754 5.48579C38.699 5.57266 39.0706 6.40199 39.006 7.34025ZM42.5474 13.1724C42.5474 13.1724 44.9356 17.1123 44.8375 19.8428C44.8375 19.8428 44.5121 23.6416 40.4539 23.5114C40.4539 23.5114 39.4498 23.2795 40.4363 22.2826C40.4363 22.2826 43.0746 20.9606 41.3466 16.0482C41.3466 16.0482 39.7127 19.0187 38.6314 20.6631L38.6391 20.6765C35.5471 25.35 34.938 23.6344 34.938 23.6344C33.761 21.0244 34.6234 15.3144 34.6234 15.3144C35.0804 12.2916 36.0898 13.3612 36.0898 13.3612C37.5647 13.7322 37.0122 15.7068 37.0122 15.7068C36.8253 17.2246 36.5861 17.0569 36.5861 17.0569C36.131 17.6272 36.035 20.1269 36.035 20.1269C36.218 21.5061 35.4266 23.4229 37.715 20.3457C38.259 19.5008 41.0012 14.7186 41.4376 12.8368C41.4376 12.8368 41.8948 11.0034 42.5474 13.1724ZM27.2762 22.6526C27.2762 22.6526 26.9721 22.3398 26.9917 20.9287C26.9917 20.9287 27.0766 18.478 28.1514 16.5154C28.1514 16.5154 28.4506 15.9279 28.6947 15.8556C28.7763 15.8316 28.9082 16.0165 28.9698 16.7656C28.9848 16.9496 28.6431 16.9881 28.7676 17.5741C28.7676 17.5741 29.3396 19.8151 30.544 18.8042C30.4935 19.2638 30.44 19.7266 30.3829 20.1923C29.7552 21.5412 28.4357 23.8753 27.2762 22.6526ZM32.3989 1.64026C32.3989 1.64026 31.08 -0.9364 31.303 2.03446C31.303 2.03446 31.4828 8.23117 30.8227 15.9425C30.7477 15.6434 30.6455 15.3362 30.5059 15.0351C30.5059 15.0351 29.3563 12.6609 28.0667 13.3187C28.0667 13.3187 26.4217 14.1209 25.4689 17.9679C25.4689 17.9679 24.7966 20.626 24.9878 22.6285C24.9878 22.6285 24.9242 27.8871 29.0564 24.171C29.0564 24.171 29.4937 23.7591 30.0064 22.9527C29.9072 23.6097 29.7456 24.04 29.7291 24.7155C29.7291 24.7155 29.5815 26.1037 29.9914 26.4526C30.148 26.5868 30.3163 26.402 30.6804 25.0517C30.6804 25.0517 33.6184 13.3763 33.7754 8.55636C33.7754 8.55636 34.8077 6.16366 32.3989 1.64026Z" fill="white"/>
<path fill-rule="evenodd" clip-rule="evenodd" d="M60.0221 26.6242C60.8319 26.7013 61.7429 26.7185 63.0052 26.9079C63.6607 27.006 64.6724 27.006 64.8158 27.665C64.9471 28.27 64.4533 28.8911 63.5717 29.1562C63.1246 29.2904 62.8433 29.4039 62.4399 29.382C61.9633 29.3562 60.9427 29.4139 60.9135 28.5617C60.8915 28.0297 60.2247 28.0343 59.7794 28.007C58.8882 27.9527 58.9794 27.5621 59.1737 27.0919C59.2896 26.8034 59.5332 26.617 60.0221 26.6242Z" fill="#292D71"/>
<path fill-rule="evenodd" clip-rule="evenodd" d="M87.3971 5.73305C87.3971 5.33363 87.1863 5.00664 86.9283 5.00684L72.2364 5.01105C71.9785 5.01105 71.7676 5.33805 71.7676 5.73767L71.7703 28.4953C71.7703 28.8951 71.9813 29.2221 72.2392 29.2221L86.9311 29.2175C87.189 29.2175 87.4 28.8907 87.4 28.4915L87.3971 5.73305Z" fill="#292D71"/>
<path fill-rule="evenodd" clip-rule="evenodd" d="M85.2965 20.4578C85.0624 19.5982 84.997 18.4978 84.958 17.6011C84.4055 19.5019 83.579 22.4304 82.642 22.2047C82.0832 22.0703 82.0433 20.5687 82.1751 19.1165C81.8048 20.3509 81.4513 21.6306 81.024 22.4031C81.024 22.4031 80.9923 22.4669 80.9241 22.5885C80.8197 22.7839 80.5609 23.2274 80.3221 23.3197C80.3047 23.3272 80.2766 23.3358 80.2492 23.3398C80.1776 23.3542 80.1019 23.349 80.0228 23.3189C79.8341 23.2268 79.6585 22.9378 79.5054 22.3911C79.4771 22.2928 79.4547 22.1901 79.4351 22.085C79.4148 21.9389 79.3991 21.7969 79.388 21.6587C79.2254 22.0757 79.0359 22.4595 78.8273 22.7757C78.146 23.8086 77.4105 24.4444 76.5429 24.8269C75.7589 25.173 74.7983 25.4605 74.0241 24.8687C73.2391 24.2676 73.1015 22.8549 73.4503 21.6587C73.5795 21.2149 73.658 21.4793 73.606 21.9899C73.587 22.1772 73.5673 22.3568 73.5634 22.5466C73.5003 25.622 76.5767 24.1587 77.4241 23.4016C78.0531 22.8389 78.3031 22.417 78.6115 21.9343C79.029 21.2799 79.3277 20.1511 79.4 19.1903C79.5741 16.8885 77.7234 16.9062 76.8507 16.9633C76.821 16.9653 76.7935 16.9573 76.768 16.9447C76.6689 17.3632 76.5645 17.7782 76.4565 18.1891C76.2457 18.9911 76.0534 19.664 75.8465 20.468C75.673 21.1397 75.3997 22.0071 75.1354 22.5819C74.9749 22.9299 74.8492 22.813 74.8607 22.4011C74.8803 21.6745 75.1329 20.8727 75.3078 20.2219C75.507 19.48 75.7144 18.745 75.9147 18.0039C76.3111 16.5416 76.694 15.0533 76.9221 13.4811C76.9891 13.0201 77.4023 13.0919 77.3541 13.584C77.2992 14.1445 77.22 14.6936 77.1243 15.2345C77.4058 14.6417 77.6932 14.0563 77.9351 13.4087C78.1781 12.7577 78.7086 11.0034 78.0488 10.4687C77.5102 10.0326 76.7827 10.7347 76.3677 11.2529C75.9091 11.8251 75.4005 12.5691 75.0223 13.5084C74.8437 13.8492 74.7293 13.6526 74.8163 13.3828C75.1535 12.3332 75.7801 11.3113 76.3477 10.6507C76.8773 10.035 77.7313 9.21008 78.3622 9.9054C79.0792 10.6962 78.8046 12.3392 78.4626 13.3794C78.1352 14.3732 77.7093 15.2274 77.31 16.1236C78.1637 16.1157 79.2002 16.3017 79.6804 17.5357C79.7318 17.6681 79.7747 17.8041 79.8099 17.9433C80.0223 17.0556 80.2542 16.318 80.4226 15.7458C81.0604 13.5738 81.397 12.6345 82.2261 10.7612C82.3415 10.5008 82.5147 10.7931 82.4147 11.0643C81.2481 14.219 80.4822 16.6331 80.0027 19.5942C79.9639 19.8413 79.931 20.0853 79.9191 20.2219C79.9196 20.2233 79.9152 20.2437 79.9162 20.2451C79.8691 20.7884 79.8455 21.5317 80.0033 21.9853C80.0359 22.0789 80.0714 22.1447 80.1089 22.1901C80.1098 22.1905 80.1111 22.1933 80.1111 22.1933C80.3173 22.4344 80.5759 22.0007 80.7079 21.7251C81.0492 21.062 81.3467 20.3083 81.6063 19.4991C82.0323 18.1728 82.4751 16.7533 82.7479 15.2499C82.8325 14.7805 83.1936 14.8806 83.177 15.4194C83.1502 16.2879 82.9988 17.1216 82.8938 17.9556C82.8211 18.5321 82.3537 21.9961 83.0841 20.921C83.883 19.745 84.4029 17.8649 84.9309 16.1886C85.0264 15.886 85.2862 15.9392 85.3182 16.3348C85.4188 17.6175 85.431 18.8005 85.6945 20.0207C85.8143 20.5756 85.4425 20.995 85.2965 20.4578Z" fill="#555494"/>
<path fill-rule="evenodd" clip-rule="evenodd" d="M86.1394 15.0703V19.2085C86.1394 20.5045 85.6319 20.7643 84.8131 20.7643H83.2301C82.4119 20.7643 81.9047 20.5045 81.9047 19.2085V15.0703H82.5762V19.2011C82.5762 19.5967 82.621 19.8565 83.2163 19.8565H84.8276C85.4233 19.8565 85.468 19.5967 85.468 19.2011V15.0703H86.1394ZM78.6593 19.7967H81.3222V20.7053H77.9871V15.0703H78.6593V19.7967ZM73.6814 18.261C73.8713 18.261 75.9611 18.261 75.9611 18.261C76.402 18.261 76.5165 18.3848 76.5165 18.8643V19.2461C76.5165 19.5861 76.4354 19.7967 76.0324 19.7967C76.0324 19.7967 73.8714 19.7967 73.6814 19.7967C73.6814 19.5542 73.6814 18.5032 73.6814 18.261ZM76.3833 16.8604C76.3833 17.0893 76.337 17.3529 75.9751 17.3529C75.9751 17.3529 73.8713 17.3529 73.6814 17.3529C73.6814 17.117 73.6814 16.214 73.6814 15.9777C73.8714 15.9777 75.9994 15.9777 75.9994 15.9777C76.0635 15.9777 76.3833 15.9969 76.3833 16.3759V16.8604ZM76.7556 17.6829C76.9427 17.5112 77.0552 17.2355 77.0552 16.8676V16.4126C77.0552 15.9113 76.9234 15.0703 76.0418 15.0703H73.0098V20.7053H76.0894C76.7569 20.7053 77.188 20.1986 77.188 19.4152V18.7836C77.188 18.2205 77.0418 17.8544 76.7556 17.6829Z" fill="#FFFFFE"/>
</svg>
