<svg width="25" height="24" viewBox="0 0 25 24" fill="none" xmlns="http://www.w3.org/2000/svg">
<path d="M12.427 22.4936C6.63854 22.4936 1.93359 17.7887 1.93359 12.0002C1.93359 9.69657 2.66569 7.51004 4.0518 5.67491C4.29583 5.35279 4.75461 5.29422 5.07673 5.53826C5.39886 5.78229 5.46719 6.24107 5.22315 6.56319C4.03227 8.13476 3.39779 10.0187 3.39779 12.0002C3.39779 16.9785 7.44873 21.0294 12.427 21.0294C17.4053 21.0294 21.4562 16.9785 21.4562 12.0002C21.4562 7.02197 17.4053 2.97103 12.427 2.97103C12.0268 2.97103 11.6949 2.63915 11.6949 2.23893C11.6949 1.83872 12.0268 1.50684 12.427 1.50684C18.2155 1.50684 22.9204 6.21179 22.9204 12.0002C22.9204 17.7887 18.2155 22.4936 12.427 22.4936Z" fill="black"/>
<path d="M12.4263 19.5656C8.25826 19.5656 4.86133 16.1686 4.86133 12.0006C4.86133 11.6003 5.19321 11.2685 5.59343 11.2685C5.99364 11.2685 6.32552 11.6003 6.32552 12.0006C6.32552 15.3682 9.05869 18.1014 12.4263 18.1014C15.794 18.1014 18.5272 15.3682 18.5272 12.0006C18.5272 8.63291 15.794 5.89974 12.4263 5.89974C12.0261 5.89974 11.6942 5.56786 11.6942 5.16764C11.6942 4.76743 12.0261 4.43555 12.4263 4.43555C16.5944 4.43555 19.9914 7.83248 19.9914 12.0006C19.9914 16.1686 16.5944 19.5656 12.4263 19.5656Z" fill="black"/>
<path d="M12.4274 16.6375C12.0272 16.6375 11.6953 16.3056 11.6953 15.9054C11.6953 15.5052 12.0272 15.1733 12.4274 15.1733C14.1747 15.1733 15.5998 13.7482 15.5998 12.0009C15.5998 10.2536 14.1747 8.82845 12.4274 8.82845C12.0272 8.82845 11.6953 8.49657 11.6953 8.09636C11.6953 7.69614 12.0272 7.36426 12.4274 7.36426C14.9849 7.36426 17.064 9.44342 17.064 12.0009C17.064 14.5583 14.9849 16.6375 12.4274 16.6375Z" fill="black"/>
</svg>
