<svg width="29" height="28" viewBox="0 0 29 28" fill="none" xmlns="http://www.w3.org/2000/svg">
<path d="M10.084 6.70801C9.60565 6.70801 9.20898 6.31134 9.20898 5.83301V2.33301C9.20898 1.85467 9.60565 1.45801 10.084 1.45801C10.5623 1.45801 10.959 1.85467 10.959 2.33301V5.83301C10.959 6.31134 10.5623 6.70801 10.084 6.70801Z" fill="black"/>
<path d="M19.416 6.70801C18.9377 6.70801 18.541 6.31134 18.541 5.83301V2.33301C18.541 1.85467 18.9377 1.45801 19.416 1.45801C19.8943 1.45801 20.291 1.85467 20.291 2.33301V5.83301C20.291 6.31134 19.8943 6.70801 19.416 6.70801Z" fill="black"/>
<path d="M24.6673 11.4795H4.83398C4.35565 11.4795 3.95898 11.0828 3.95898 10.6045C3.95898 10.1262 4.35565 9.72949 4.83398 9.72949H24.6673C25.1457 9.72949 25.5423 10.1262 25.5423 10.6045C25.5423 11.0828 25.1457 11.4795 24.6673 11.4795Z" fill="black"/>
<path d="M19.4167 26.5413H10.0833C5.825 26.5413 3.375 24.0913 3.375 19.833V9.91634C3.375 5.65801 5.825 3.20801 10.0833 3.20801H19.4167C23.675 3.20801 26.125 5.65801 26.125 9.91634V19.833C26.125 24.0913 23.675 26.5413 19.4167 26.5413ZM10.0833 4.95801C6.74667 4.95801 5.125 6.57967 5.125 9.91634V19.833C5.125 23.1697 6.74667 24.7913 10.0833 24.7913H19.4167C22.7533 24.7913 24.375 23.1697 24.375 19.833V9.91634C24.375 6.57967 22.7533 4.95801 19.4167 4.95801H10.0833Z" fill="black"/>
<path d="M10.6667 16.9164C10.515 16.9164 10.3633 16.8814 10.2233 16.823C10.0833 16.7647 9.95501 16.683 9.83834 16.578C9.73334 16.4613 9.65165 16.333 9.59332 16.193C9.53498 16.053 9.5 15.9014 9.5 15.7497C9.5 15.4464 9.62834 15.143 9.83834 14.9214C9.95501 14.8164 10.0833 14.7347 10.2233 14.6763C10.4333 14.583 10.6667 14.5597 10.9 14.6063C10.97 14.618 11.04 14.6413 11.11 14.6763C11.18 14.6997 11.25 14.7347 11.32 14.7814C11.3783 14.828 11.4367 14.8747 11.495 14.9214C11.5417 14.9797 11.6 15.038 11.635 15.0964C11.6817 15.1664 11.7167 15.2363 11.74 15.3063C11.775 15.3763 11.7983 15.4463 11.81 15.5163C11.8217 15.598 11.8333 15.668 11.8333 15.7497C11.8333 16.053 11.705 16.3563 11.495 16.578C11.2733 16.788 10.97 16.9164 10.6667 16.9164Z" fill="black"/>
<path d="M14.7507 16.917C14.4473 16.917 14.144 16.7887 13.9223 16.5787C13.8757 16.5203 13.829 16.462 13.7823 16.4037C13.7357 16.3337 13.7006 16.2637 13.6773 16.1937C13.6423 16.1237 13.619 16.0537 13.6073 15.9837C13.5956 15.902 13.584 15.832 13.584 15.7503C13.584 15.5987 13.619 15.447 13.6773 15.307C13.7356 15.167 13.8173 15.0387 13.9223 14.922C14.249 14.5954 14.774 14.4903 15.194 14.677C15.3457 14.7353 15.4623 14.817 15.579 14.922C15.789 15.1437 15.9173 15.447 15.9173 15.7503C15.9173 15.832 15.9057 15.902 15.894 15.9837C15.8823 16.0537 15.859 16.1237 15.824 16.1937C15.8007 16.2637 15.7656 16.3337 15.719 16.4037C15.6723 16.462 15.6256 16.5203 15.579 16.5787C15.4623 16.6837 15.3457 16.7654 15.194 16.8237C15.054 16.882 14.9023 16.917 14.7507 16.917Z" fill="black"/>
<path d="M10.6667 21C10.515 21 10.3633 20.965 10.2233 20.9067C10.0833 20.8484 9.95501 20.7667 9.83834 20.6617C9.73334 20.545 9.65165 20.4284 9.59332 20.2767C9.53498 20.1367 9.5 19.985 9.5 19.8333C9.5 19.53 9.62834 19.2267 9.83834 19.005C9.95501 18.9 10.0833 18.8183 10.2233 18.76C10.655 18.5733 11.1683 18.6784 11.495 19.005C11.5417 19.0634 11.6 19.1217 11.635 19.18C11.6817 19.25 11.7167 19.32 11.74 19.39C11.775 19.46 11.7983 19.53 11.81 19.6117C11.8217 19.6817 11.8333 19.7633 11.8333 19.8333C11.8333 20.1367 11.705 20.44 11.495 20.6617C11.2733 20.8717 10.97 21 10.6667 21Z" fill="black"/>
</svg>
