<svg width="995" height="282" viewBox="0 0 995 282" fill="none" xmlns="http://www.w3.org/2000/svg">
<g clip-path="url(#clip0)">
<rect width="995" height="282" fill="#DADADA"/>
<path d="M995 0L0 0V282L995 282V0Z" fill="#C5E9FB"/>
<g clip-path="url(#clip1)">
<path d="M995 0.006073H0V299.988H995V0.006073Z" fill="#A32479"/>
<path d="M175.689 94.6252V91.1289H184.124V87.1081H175.689V83.9178H185.26V79.7659H170.357V98.777H185.61V94.6252H175.689Z" fill="#FEFEFE"/>
<path d="M201.43 79.7659V89.9052L193.039 79.7659H188.625V98.777H193.869V88.6378L202.261 98.777H206.718V79.7659H201.43Z" fill="#FEFEFE"/>
<path d="M223.196 79.7659V86.8896H215.897V79.7659H210.521V98.777H215.897V91.3474H223.196V98.777H228.615V79.7659H223.196Z" fill="#FEFEFE"/>
<path d="M246.622 98.777H252.216L243.824 79.7659H238.493L230.102 98.777H235.608L237.094 95.1059H245.136L246.622 98.777ZM238.667 91.1289L241.115 85.0541L243.562 91.1289H238.667Z" fill="#FEFEFE"/>
<path d="M266.549 79.7659V89.9052L258.158 79.7659H253.744V98.777H259.032V88.6378L267.423 98.777H271.837V79.7659H266.549Z" fill="#FEFEFE"/>
<path d="M285.129 99.1703C288.625 99.1703 291.466 97.9029 293.301 95.5866L289.892 92.4837C288.669 93.9259 287.227 94.7126 285.391 94.7126C282.288 94.7126 280.103 92.5274 280.103 89.2933C280.103 86.0155 282.288 83.8304 285.391 83.8304C287.227 83.8304 288.669 84.617 289.892 86.0592L293.301 82.9563C291.466 80.6837 288.625 79.3726 285.129 79.3726C279.098 79.3726 274.684 83.4807 274.684 89.2933C274.684 95.0622 279.098 99.1703 285.129 99.1703Z" fill="#FEFEFE"/>
<path d="M295.701 98.777H301.077V79.7659H295.701V98.777Z" fill="#FEFEFE"/>
<path d="M317.726 79.7659V89.9052L309.291 79.7659H304.877V98.777H310.165V88.6378L318.556 98.777H322.97V79.7659H317.726Z" fill="#FEFEFE"/>
<path d="M339.539 94.1007C338.578 94.5377 337.616 94.7126 336.611 94.7126C333.421 94.7126 331.236 92.4837 331.236 89.2933C331.236 85.9718 333.421 83.8304 336.655 83.8304C338.49 83.8304 339.976 84.5296 341.287 85.9718L344.696 82.8689C342.817 80.5963 339.933 79.3726 336.393 79.3726C330.23 79.3726 325.816 83.4807 325.816 89.2933C325.816 95.0622 330.23 99.1703 336.305 99.1703C339.059 99.1703 342.074 98.34 344.259 96.7229V88.8563H339.539V94.1007Z" fill="#FEFEFE"/>
<path d="M360.904 94.6252V91.1289H369.383V87.1081H360.904V83.9178H370.519V79.7659H355.572V98.777H370.869V94.6252H360.904Z" fill="#FEFEFE"/>
<path d="M395.962 98.777L395.918 79.7659H391.46L384.948 90.7355L378.262 79.7659H373.848V98.777H378.83V88.9874L383.681 96.8977H386.085L390.979 88.7252L391.023 98.777H395.962Z" fill="#FEFEFE"/>
<path d="M408.457 79.7659H399.76V98.777H405.135V93.7948H408.457C413.614 93.7948 416.892 91.1289 416.892 86.8022C416.892 82.4756 413.614 79.7659 408.457 79.7659ZM408.107 89.5555H405.135V84.0052H408.107C410.336 84.0052 411.472 85.0541 411.472 86.8022C411.472 88.5504 410.336 89.5555 408.107 89.5555Z" fill="#FEFEFE"/>
<path d="M419.512 98.777H433.934V94.5377H424.887V79.7659H419.512V98.777Z" fill="#FEFEFE"/>
<path d="M445.343 99.1703C451.462 99.1703 455.919 94.9748 455.919 89.2933C455.919 83.5681 451.462 79.3726 445.343 79.3726C439.268 79.3726 434.811 83.5681 434.811 89.2933C434.811 94.9748 439.268 99.1703 445.343 99.1703ZM445.343 94.7126C442.459 94.7126 440.23 92.5711 440.23 89.2933C440.23 85.9718 442.459 83.8304 445.343 83.8304C448.228 83.8304 450.5 85.9718 450.5 89.2933C450.5 92.5711 448.228 94.7126 445.343 94.7126Z" fill="#FEFEFE"/>
<path d="M475.411 79.7659H470.167L465.665 87.3267L461.164 79.7659H455.482L462.737 91.8718V98.777H468.113V91.9592L475.411 79.7659Z" fill="#FEFEFE"/>
<path d="M482.012 94.6252V91.1289H490.446V87.1081H482.012V83.9178H491.583V79.7659H476.68V98.777H491.932V94.6252H482.012Z" fill="#FEFEFE"/>
<path d="M500.235 94.6252V91.1289H508.714V87.1081H500.235V83.9178H509.85V79.7659H494.947V98.777H510.2V94.6252H500.235Z" fill="#FEFEFE"/>
<path d="M525.145 98.777H530.521V84.0489H536.333V79.7659H519.289V84.0489H525.145V98.777Z" fill="#FEFEFE"/>
<path d="M551.016 79.7659V86.8896H543.717V79.7659H538.342V98.777H543.717V91.3474H551.016V98.777H556.391V79.7659H551.016Z" fill="#FEFEFE"/>
<path d="M571.993 98.777H577.719L573.61 92.7896C576.014 91.6533 577.369 89.5992 577.369 86.8022C577.369 82.4756 574.091 79.7659 568.89 79.7659H560.193V98.777H565.613V93.7074H568.541L571.993 98.777ZM571.906 86.8022C571.906 88.5504 570.813 89.5555 568.584 89.5555H565.613V84.0052H568.584C570.813 84.0052 571.906 85.0541 571.906 86.8022Z" fill="#FEFEFE"/>
<path d="M589.918 99.1703C595.993 99.1703 600.451 94.9748 600.451 89.2933C600.451 83.5681 595.993 79.3726 589.918 79.3726C583.843 79.3726 579.342 83.5681 579.342 89.2933C579.342 94.9748 583.843 99.1703 589.918 99.1703ZM589.918 94.7126C587.034 94.7126 584.761 92.5711 584.761 89.2933C584.761 85.9718 587.034 83.8304 589.918 83.8304C592.803 83.8304 595.031 85.9718 595.031 89.2933C595.031 92.5711 592.803 94.7126 589.918 94.7126Z" fill="#FEFEFE"/>
<path d="M612.069 99.1703C617.663 99.1703 620.984 95.98 620.984 90.2985V79.7659H615.696V90.1237C615.696 93.4015 614.341 94.7126 612.112 94.7126C609.84 94.7126 608.485 93.4015 608.485 90.1237V79.7659H603.109V90.2985C603.109 95.98 606.431 99.1703 612.069 99.1703Z" fill="#FEFEFE"/>
<path d="M637.377 94.1007C636.416 94.5377 635.498 94.7126 634.493 94.7126C631.259 94.7126 629.074 92.4837 629.074 89.2933C629.074 85.9718 631.259 83.8304 634.536 83.8304C636.328 83.8304 637.858 84.5296 639.125 85.9718L642.578 82.8689C640.699 80.5963 637.814 79.3726 634.274 79.3726C628.068 79.3726 623.654 83.4807 623.654 89.2933C623.654 95.0622 628.068 99.1703 634.143 99.1703C636.896 99.1703 639.912 98.34 642.141 96.7229V88.8563H637.377V94.1007Z" fill="#FEFEFE"/>
<path d="M658.27 79.7659V86.8896H650.928V79.7659H645.553V98.777H650.928V91.3474H658.27V98.777H663.646V79.7659H658.27Z" fill="#FEFEFE"/>
<path d="M166.994 177.487H186.442V108.829H166.994V177.487Z" fill="#FEFEFE"/>
<path d="M246.58 108.829V145.409L216.249 108.829H200.254V177.487H219.309V140.907L249.639 177.487H265.635V108.829H246.58Z" fill="#FEFEFE"/>
<path d="M325.64 108.829V145.409L295.353 108.829H279.357V177.487H298.368V140.907L328.699 177.487H344.694V108.829H325.64Z" fill="#FEFEFE"/>
<path d="M393.07 178.842C415.053 178.842 431.223 163.764 431.223 143.136C431.223 122.552 415.053 107.43 393.07 107.43C371.087 107.43 354.873 122.552 354.873 143.136C354.873 163.764 371.087 178.842 393.07 178.842ZM393.07 162.759C382.669 162.759 374.496 155.024 374.496 143.136C374.496 131.292 382.669 123.513 393.07 123.513C403.471 123.513 411.6 131.292 411.6 143.136C411.6 155.024 403.471 162.759 393.07 162.759Z" fill="#FEFEFE"/>
<path d="M489.528 108.829L470.473 153.538L451.855 108.829H430.834L460.159 177.487H479.301L508.758 108.829H489.528Z" fill="#FEFEFE"/>
<path d="M561.816 177.487H582.05L551.633 108.829H532.49L502.16 177.487H522.002L527.377 164.158H556.44L561.816 177.487ZM533.059 149.823L541.887 127.84L550.715 149.823H533.059Z" fill="#FEFEFE"/>
<path d="M598.702 177.487H618.15V124.213H639.128V108.829H577.637V124.213H598.702V177.487Z" fill="#FEFEFE"/>
<path d="M646.377 177.487H665.825V108.829H646.377V177.487Z" fill="#FEFEFE"/>
<path d="M714.294 178.842C736.277 178.842 752.447 163.764 752.447 143.136C752.447 122.552 736.277 107.43 714.294 107.43C692.311 107.43 676.141 122.552 676.141 143.136C676.141 163.764 692.311 178.842 714.294 178.842ZM714.294 162.759C703.892 162.759 695.764 155.024 695.764 143.136C695.764 131.292 703.892 123.513 714.294 123.513C724.695 123.513 732.824 131.292 732.824 143.136C732.824 155.024 724.695 162.759 714.294 162.759Z" fill="#FEFEFE"/>
<path d="M808.96 108.829V145.409L778.673 108.829H762.678V177.487H781.689V140.907L812.019 177.487H828.015V108.829H808.96Z" fill="#FEFEFE"/>
<path d="M570.855 220.055H583.923C593.013 220.055 599.307 214.766 599.307 206.288C599.307 197.853 593.013 192.521 583.923 192.521H570.855V220.055ZM578.678 213.849V198.727H583.573C588.25 198.727 591.396 201.524 591.396 206.288C591.396 211.052 588.25 213.849 583.573 213.849H578.678Z" fill="#FEFEFE"/>
<path d="M603.375 220.055H611.198V192.521H603.375V220.055Z" fill="#FEFEFE"/>
<path d="M626.408 220.623C634.581 220.623 638.602 216.514 638.602 211.751C638.602 201.612 622.999 204.758 622.999 200.519C622.999 199.12 624.179 198.028 627.414 198.028C629.817 198.028 632.439 198.727 635.062 200.169L637.465 194.357C634.756 192.783 631.041 191.997 627.457 191.997C619.285 191.997 615.264 195.974 615.264 200.912C615.264 211.139 630.954 207.992 630.954 212.319C630.954 213.674 629.686 214.548 626.452 214.548C623.262 214.548 619.809 213.455 617.362 211.882L614.783 217.607C617.405 219.399 621.863 220.623 626.408 220.623Z" fill="#FEFEFE"/>
<path d="M659.226 220.055H667.573L661.63 211.401C665.039 209.74 667.005 206.769 667.005 202.704C667.005 196.411 662.285 192.521 654.768 192.521H642.182V220.055H649.961V212.756H654.244L659.226 220.055ZM659.139 202.704C659.139 205.239 657.522 206.725 654.288 206.725H649.961V198.683H654.288C657.522 198.683 659.139 200.169 659.139 202.704Z" fill="#FEFEFE"/>
<path d="M684.009 220.623C692.181 220.623 696.945 216.034 696.945 207.774V192.521H689.297V207.555C689.297 212.275 687.33 214.155 684.096 214.155C680.818 214.155 678.852 212.275 678.852 207.555V192.521H671.072V207.774C671.072 216.034 675.88 220.623 684.009 220.623Z" fill="#FEFEFE"/>
<path d="M714.819 192.521H702.232V220.055H710.012V212.887H714.819C722.336 212.887 727.056 208.954 727.056 202.704C727.056 196.411 722.336 192.521 714.819 192.521ZM714.338 206.725H710.012V198.683H714.338C717.572 198.683 719.189 200.169 719.189 202.704C719.189 205.239 717.572 206.725 714.338 206.725Z" fill="#FEFEFE"/>
<path d="M736.059 220.055H743.838V198.683H752.273V192.521H727.58V198.683H736.059V220.055Z" fill="#FEFEFE"/>
<path d="M755.158 220.055H762.937V192.521H755.158V220.055Z" fill="#FEFEFE"/>
<path d="M782.382 220.623C791.21 220.623 797.722 214.548 797.722 206.288C797.722 198.028 791.21 191.997 782.382 191.997C773.598 191.997 767.086 198.028 767.086 206.288C767.086 214.548 773.598 220.623 782.382 220.623ZM782.382 214.154C778.23 214.154 774.953 211.052 774.953 206.288C774.953 201.524 778.23 198.421 782.382 198.421C786.578 198.421 789.812 201.524 789.812 206.288C789.812 211.052 786.578 214.154 782.382 214.154Z" fill="#FEFEFE"/>
<path d="M820.365 192.521V207.206L808.215 192.521H801.791V220.055H809.439V205.414L821.589 220.055H828.013V192.521H820.365Z" fill="#FEFEFE"/>
<path fill-rule="evenodd" clip-rule="evenodd" d="M687.198 90.3423C686.718 87.6763 686.63 86.4526 688.116 84.6171C688.422 83.6993 689.733 82.4319 690.17 81.6015C690.913 81.9512 691.918 82.9126 692.661 83.4808C693.972 84.5297 694.278 83.5682 694.978 82.563C696.595 80.1156 696.332 81.0771 695.895 77.7993C695.677 76.3571 695.546 76.8378 695.371 76.3134C695.633 76.0075 695.72 76.0075 696.026 75.7889C696.245 75.6141 696.332 75.483 696.551 75.3082C697.032 74.9586 697.381 74.6964 697.818 74.3467C698.561 73.866 700.091 72.7297 701.227 72.686C701.664 72.4238 706.122 72.9919 706.559 73.0356C707.389 73.123 708.526 73.2104 709.312 73.3415C710.667 73.5164 711.017 73.6475 711.803 73.123C711.803 72.3801 711.803 72.3364 711.541 71.7682C711.366 71.3749 711.235 71.069 711.06 70.6319L706.122 59.1816C705.816 58.3512 705.466 57.7394 705.16 56.909C704.68 55.729 704.461 55.2483 703.456 55.2045C701.315 55.2045 699.348 55.0734 697.163 54.986C696.551 54.986 696.376 54.8549 695.677 54.8986C694.147 54.8986 693.754 54.7675 692.53 54.7675C690.826 54.7675 691.263 54.7238 689.427 52.8883C687.941 51.4023 686.543 50.3534 684.969 49.086C684.576 48.7801 684.358 48.6053 683.964 48.3431C683.615 48.0809 683.352 47.906 683.003 47.6438C682.653 47.3816 682.391 47.2505 681.998 47.032C681.648 46.7698 681.386 46.5949 681.036 46.3764C680.643 46.1142 680.424 46.0268 680.031 45.7646C673.344 41.8312 666.089 39.1653 658.441 37.8105C657.436 37.6357 656.518 37.4609 655.557 37.3298C654.115 37.155 651.23 36.8053 649.701 36.7616H648.04C647.603 36.8053 647.384 37.0238 647.297 37.6357V38.3787C647.341 38.9468 647.472 39.7772 647.647 40.8261L648.433 44.8905C649.001 47.5564 650.4 50.9216 651.449 53.4127C653.503 58.3949 656.868 63.6393 660.189 67.7038L662.418 70.3697C662.637 70.6756 662.943 70.9378 663.249 71.2438L669.061 76.9252C669.236 77.2749 669.367 87.283 669.629 89.5119C669.717 90.1674 669.848 90.2111 670.329 90.4734C671.771 91.1726 673.301 91.8719 674.83 92.5711L683.833 96.6793C684.445 96.9852 686.63 98.2526 687.242 97.8593C687.635 97.597 687.723 97.16 687.592 96.5482L687.198 90.3423Z" fill="black"/>
<path fill-rule="evenodd" clip-rule="evenodd" d="M685.535 86.0593C686.015 85.3601 686.277 84.5297 687.152 83.2186C687.807 82.3008 688.419 81.5142 689.031 80.6838C688.9 80.509 688.856 80.4653 688.637 80.2905C688.419 80.1156 688.332 80.0282 688.113 79.8971L680.946 74.2594C679.722 73.2542 678.848 71.3312 678.017 69.8453C676.4 67.0483 676.619 68.1846 679.241 64.1638C679.984 63.0712 680.727 63.3335 681.601 64.1638L690.298 71.9431C690.692 72.249 690.866 72.4238 691.216 72.7734C691.609 73.1231 691.828 73.2105 692.221 73.6475C692.483 73.9097 693.882 75.1771 694.275 75.352C695.98 73.2979 699.301 71.8994 700.044 71.3312C697.815 66.2179 695.717 62.372 692.265 58.1764L689.118 54.7676C688.9 54.549 688.769 54.3742 688.506 54.112C687.064 52.5387 682.781 49.3046 681.12 48.2557C671.855 42.312 660.361 38.6409 648.867 38.2913C649.217 43.7979 651.577 50.3535 653.675 54.6801C656.122 59.6187 658.875 63.7705 661.935 67.4416L668.971 74.7401C669.233 74.9586 669.408 75.1771 669.67 75.3957C672.38 77.6682 675.876 80.3779 678.804 82.2134C679.853 82.869 680.902 83.5245 682.038 84.1801C682.737 84.5734 684.879 85.8845 685.535 86.0593Z" fill="#FFFF00"/>
<path fill-rule="evenodd" clip-rule="evenodd" d="M697.822 74.3467C699.832 74.8712 707.349 79.3726 708.485 80.4215C708.267 80.5963 708.442 80.4652 708.136 80.64C707.524 80.9023 703.853 81.4267 703.503 83.1748C703.154 84.8793 706.3 86.8022 705.951 88.1571C705.557 88.6815 703.11 87.4578 702.76 87.283C702.017 86.9334 700.662 86.0593 699.745 86.1904C699.351 87.5889 702.367 91.3474 702.192 93.1393C701.099 93.2267 698.259 90.8667 697.428 90.2985C696.598 89.6867 693.801 87.5452 692.971 87.5889C692.577 87.5889 692.883 87.5889 692.708 87.6326C692.49 88.3756 693.888 91.6533 692.402 93.7074C691.572 93.7074 691.048 92.7896 690.654 92.1778C689.431 90.1237 688.644 86.9771 688.119 84.6171C686.634 86.4526 686.721 87.6763 687.202 90.3422C687.245 90.4733 687.202 90.3422 687.289 90.5607L688.862 94.4941C690.042 97.1163 690.567 98.9081 692.49 101.05C693.32 101.967 695.374 104.24 696.729 104.284C697.341 103.104 697.734 100.394 697.166 99.1704C696.948 98.6896 696.598 98.2526 696.379 97.7718C697.341 97.9904 705.47 105.42 709.097 106.119C709.185 106.119 709.228 106.119 709.316 106.163H709.665C710.146 106.076 710.015 105.551 709.971 104.764C709.928 103.497 709.316 101.967 708.922 101.05L706.825 96.1548C706.562 95.4556 706.388 94.9748 706.693 94.2756C708.616 94.2756 712.244 96.0674 714.298 96.5918C715.259 96.8104 716.09 97.2037 717.051 96.723C717.051 95.3244 716.046 94.5378 715.347 93.6637C714.953 93.1393 714.604 92.877 714.211 92.3963C713.118 90.9978 710.102 88.5067 708.791 86.9771C708.442 86.6274 708.529 86.5837 708.354 86.1467C708.966 85.7096 709.228 85.7534 710.321 85.7971C710.933 85.8408 711.807 85.9719 712.419 86.0593C713.555 86.1904 715.522 86.6711 716.571 86.1467C716.745 85.5348 716.789 85.3163 716.527 84.7045C715.609 82.6504 712.899 80.4652 711.151 79.1541C708.879 77.4497 705.994 75.5704 703.547 74.0845C703.022 73.7786 701.493 73.0356 701.231 72.686C700.094 72.7297 698.565 73.866 697.822 74.3467Z" fill="#FF4000"/>
<path fill-rule="evenodd" clip-rule="evenodd" d="M688.113 84.6171C688.638 86.9771 689.424 90.1238 690.648 92.1778C691.041 92.7897 691.566 93.7075 692.396 93.7075C693.882 91.6534 692.484 88.3756 692.702 87.6327C692.877 87.589 692.571 87.589 692.964 87.589C693.795 87.5453 696.592 89.6867 697.422 90.2986C698.253 90.8667 701.093 93.2267 702.186 93.1393C702.361 91.3475 699.345 87.589 699.738 86.1904C700.656 86.0593 702.011 86.9334 702.754 87.283C703.104 87.4579 705.551 88.6816 705.944 88.1571C706.294 86.8023 703.147 84.8793 703.497 83.1749C703.847 81.4268 707.518 80.9023 708.13 80.6401C708.435 80.4653 708.261 80.5964 708.479 80.4216C707.343 79.3727 699.826 74.8712 697.815 74.3468C697.378 74.6964 697.029 74.9586 696.548 75.3083C696.33 75.4831 696.242 75.6142 696.024 75.789C695.718 76.0075 695.63 76.0075 695.368 76.3134C695.543 76.8379 695.674 76.3571 695.893 77.7994C696.33 81.0771 696.592 80.1156 694.975 82.563C694.275 83.5682 693.97 84.5297 692.658 83.4808C691.915 82.9127 690.91 81.9512 690.167 81.6016C689.73 82.4319 688.419 83.6993 688.113 84.6171Z" fill="#FFC423"/>
<path fill-rule="evenodd" clip-rule="evenodd" d="M666.83 50.0912C664.95 50.4845 663.552 51.2712 662.809 52.626C659.837 58.0015 665.3 63.8578 670.326 62.8963C673.21 62.3719 675.964 58.6134 675.002 54.8549C674.259 52.0141 670.676 49.2171 666.83 50.0912Z" fill="black"/>
<path fill-rule="evenodd" clip-rule="evenodd" d="M671.117 89.1623L685.976 95.98L685.408 87.6764C682.174 86.2341 675.356 81.9949 672.384 79.6349C671.903 79.2853 671.248 78.6734 670.68 78.3675L671.117 89.1623Z" fill="#FE0000"/>
<path fill-rule="evenodd" clip-rule="evenodd" d="M701.536 70.9815L709.884 71.8556C709.578 70.7193 708.747 69.146 708.31 68.0534C707.48 66.1304 703.896 57.4771 703.328 56.7779L692.883 56.2971L695.374 59.706C697.472 62.503 699.176 65.6934 700.706 68.8838C701.055 69.5393 701.274 70.326 701.536 70.9815Z" fill="#FE0000"/>
<path fill-rule="evenodd" clip-rule="evenodd" d="M693.45 82.0823C693.756 81.7327 694.281 80.946 694.412 80.509C693.8 80.1593 693.057 79.4601 692.445 78.9356C691.702 78.3238 691.178 77.8431 690.478 77.2749L683.53 71.4186C683.267 71.2001 682.743 70.7631 682.568 70.5445C681.694 69.4083 680.951 66.9171 680.077 65.7372C680.077 65.7372 678.46 67.529 678.722 68.0971C678.897 68.4468 679.247 69.0149 679.465 69.3646L680.951 71.9431C681.388 72.686 681.213 72.5549 681.912 73.0794C682.655 73.6475 683.442 74.3031 684.229 74.9149C684.884 75.4394 692.969 81.9512 693.45 82.0823Z" fill="#FE0000"/>
<path fill-rule="evenodd" clip-rule="evenodd" d="M667.273 52.8445C666.137 53.1067 665.569 53.5875 665.175 54.5053C663.733 57.7393 667.273 60.7549 669.983 60.0119C671.643 59.5312 673.173 57.4334 672.212 55.2045C671.6 53.7623 669.502 52.3201 667.273 52.8445Z" fill="#ADFFFF"/>
<path fill-rule="evenodd" clip-rule="evenodd" d="M694.498 78.5859C694.323 77.0563 694.236 77.537 693.449 76.7504L683.528 67.8348C683.222 67.6163 683.004 67.4415 682.654 67.1793C683.048 68.7089 683.747 69.7141 684.971 70.6756C686.063 71.5497 687.025 72.4674 688.117 73.3415C688.729 73.8222 694.017 78.3674 694.498 78.5859Z" fill="#FE0000"/>
<path fill-rule="evenodd" clip-rule="evenodd" d="M667.402 53.1068C664.168 55.0297 665.086 59.0505 666.79 58.4823C667.926 58.0453 669.412 55.292 668.844 53.806C668.626 53.369 668.014 52.7571 667.402 53.1068Z" fill="#E9FFFF"/>
<path fill-rule="evenodd" clip-rule="evenodd" d="M339.665 167.96C339.708 168.528 339.621 169.664 339.577 170.32C339.533 171.063 339.621 171.937 339.446 172.636L339.402 172.811C339.402 172.855 339.402 172.855 339.402 172.855C339.446 172.898 339.446 172.898 339.49 173.204C339.49 173.335 339.446 173.466 339.446 173.641L340.626 173.685C341.893 173.685 343.161 173.685 344.385 173.685C345.521 173.685 346.919 173.772 348.143 173.772C351.333 173.729 354.436 173.903 357.496 173.903C358.151 173.903 358.763 173.903 359.419 173.947C360.074 173.947 360.642 173.947 361.298 173.947C361.91 173.947 362.522 173.947 363.133 173.947C363.57 173.947 370.432 174.122 370.65 174.078C370.782 173.729 371.175 169.752 371.35 169.533L371.699 167.217C372.005 165.075 372.267 163.546 372.486 161.317L372.792 158.301C372.836 158.126 372.836 157.864 372.879 157.689L373.054 155.898C373.098 155.679 373.098 155.635 372.923 155.461C372.53 155.111 372.617 155.111 371.918 155.111C371.262 155.111 368.072 155.155 367.897 155.111H367.853L362.39 155.067H362.172L355.573 155.024C355.66 155.067 355.573 155.067 355.704 155.067L359.812 155.111C360.511 155.155 361.21 155.198 361.866 155.198C362.565 155.198 363.308 155.198 364.007 155.198L372.311 155.373C372.355 155.461 372.267 155.548 372.224 155.635C372.18 155.723 372.136 155.854 372.049 155.941L340.495 155.417C340.539 155.329 340.495 155.373 340.582 155.286L340.845 155.067C341.282 154.718 340.976 154.936 341.282 154.849C341.238 154.805 340.976 154.761 340.845 154.761C340.539 154.761 340.145 155.155 340.102 155.417L339.883 160.749C339.839 161.972 339.839 163.196 339.796 164.376C339.752 164.857 339.621 167.741 339.665 167.96Z" fill="#C7CCCF"/>
<path fill-rule="evenodd" clip-rule="evenodd" d="M331.407 178.405C331.582 178.318 335.253 178.536 335.69 178.623C336.127 178.667 339.143 179.323 339.405 179.454C339.667 179.541 340.192 180.459 340.366 180.721C340.585 181.027 340.629 181.115 340.934 181.333C341.153 181.464 341.415 181.639 341.634 181.77C342.595 182.338 343.513 182.906 344.474 183.518C344.999 183.824 345.523 183.912 346.179 184.043C346.791 184.174 347.446 184.305 348.102 184.436C348.932 184.611 349.063 184.742 349.675 185.135C350.855 185.922 351.249 186.228 352.691 186.665C353.259 186.84 353.827 187.058 354.439 187.233C355.575 187.583 356.711 187.932 357.891 188.282L357.848 188.369C357.891 188.413 357.804 188.413 358.197 188.5C358.372 188.544 358.416 188.544 358.591 188.544C359.115 188.719 359.64 188.981 360.033 188.457C360.12 188.326 360.383 188.02 360.383 187.845C360.47 187.408 361.126 185.31 361.3 184.698C361.388 184.349 361.431 184.261 361.3 183.868C360.907 182.732 360.82 182.95 359.814 182.382C359.552 182.207 354.745 179.803 354.439 179.716C354.351 179.891 354.177 180.153 354.046 180.328C353.39 181.289 353.565 181.464 352.56 181.595C351.511 181.77 350.462 182.032 349.369 182.163H349.413L349.763 181.945C350.462 181.552 352.691 180.765 353.477 180.372C353.914 180.109 354.22 179.672 354.483 179.585C354.876 179.498 355.4 179.847 355.75 180.022V179.891C355.75 179.847 355.75 179.847 355.75 179.847C356.537 179.935 356.624 180.241 357.979 180.459C358.372 180.503 358.766 180.59 359.203 180.634L360.208 180.809C360.251 180.852 360.251 180.852 360.251 180.852L360.339 180.896C359.989 180.94 359.552 180.94 359.159 180.983C358.984 180.983 358.766 180.983 358.591 181.027C358.372 181.027 358.154 180.983 358.066 181.115C358.241 181.158 358.547 181.377 358.766 181.508C359.814 181.989 362.306 182.644 362.786 182.906C363.049 183.081 363.092 183.3 363.486 183.125C363.748 183.038 364.01 182.95 364.272 182.863C365.321 182.513 366.501 182.12 367.463 181.683L370.391 180.328C371.221 179.935 371.352 180.022 372.314 180.109C373.275 180.153 373.275 180.284 374.018 179.803C374.892 179.279 375.81 178.711 376.728 178.186C377.077 177.968 377.82 177.618 377.995 177.269C378.214 176.919 378.432 176.176 378.607 175.739C379.044 174.734 379.437 173.641 379.831 172.592C379.787 172.374 379.481 171.849 379.394 171.587C379.306 171.456 379.306 171.369 379.219 171.281C379.131 171.019 379.088 170.801 378.869 170.669C378.826 170.582 378.651 170.538 378.563 170.495C378.432 170.407 378.388 170.363 378.257 170.276C378.039 170.189 377.82 170.058 377.646 169.926C377.427 169.839 376.553 169.315 376.334 169.271C375.985 169.227 375.679 169.315 375.373 169.315C375.329 169.446 375.242 169.489 375.111 169.577C374.848 169.795 374.848 169.752 374.543 169.926C374.411 170.014 374.324 170.014 374.237 170.145L375.286 170.276L375.198 170.363C374.848 170.538 373.712 170.757 373.45 170.975L373.887 171.019C373.8 171.15 373.406 171.543 373.231 171.675C372.357 172.592 372.27 172.767 371.483 173.729C370.653 174.734 370.828 174.778 369.954 174.69C369.167 174.646 368.337 174.559 367.55 174.515C366.37 174.428 366.37 174.472 365.234 174.69C364.491 174.821 363.791 174.952 363.049 175.083C362.437 175.215 361.825 175.652 361.344 175.914C361.038 176.132 359.946 176.701 359.814 176.919C360.033 177.05 360.426 177.006 360.689 177.05C361.038 177.138 362.349 178.186 362.437 178.361C361.694 178.536 361.606 177.924 360.383 177.706C359.64 177.575 358.809 177.312 358.154 177.881C358.372 178.012 359.203 178.186 359.727 178.449C359.29 178.492 358.503 178.405 358.066 178.405C356.143 178.318 356.624 178.186 355.138 178.842C354.395 179.192 354.439 178.973 354.002 179.454C353.609 179.323 353.128 179.017 352.778 178.842C352.385 178.623 351.991 178.405 351.598 178.186C351.161 177.968 350.768 177.749 350.374 177.575C349.457 177.094 350.112 177.618 348.976 177.225C347.752 176.788 346.004 176.22 344.737 175.958C344.343 175.87 343.557 175.783 343.294 175.608C346.66 175.564 347.228 176.395 348.277 176.482C348.102 176.351 343.557 174.297 342.945 173.991C341.94 173.51 341.066 173.947 340.629 173.685L339.449 173.641C339.449 173.466 339.492 173.335 339.492 173.204C339.449 172.898 339.449 172.898 339.405 172.855C339.405 172.855 339.405 172.855 339.405 172.811C339.361 172.986 339.449 173.554 339.361 173.641V173.073C338.312 172.723 337.875 173.029 336.87 172.986C337.132 172.767 337.919 172.68 338.269 172.461C337.788 172.418 336.127 172.549 335.821 172.374L338.356 171.675L338.269 170.713C338.487 170.713 338.837 170.626 339.055 170.713C339.055 170.538 339.012 170.32 338.924 170.189L337.22 169.839C336.477 169.664 334.554 169.446 333.636 169.271C333.243 169.227 332.5 169.664 332.106 169.839L330.402 170.582C330.14 170.713 330.096 170.888 329.965 171.194L329.266 172.636C329.135 172.986 329.003 173.248 329.091 173.729C329.091 173.947 329.091 174.166 329.091 174.384C329.222 175.258 329.003 175.389 329.397 176.176C329.572 176.526 329.703 176.788 329.877 177.138C330.14 177.662 330.446 177.706 330.97 178.143C331.145 178.23 331.232 178.318 331.407 178.405Z" fill="#1A1E27"/>
<path fill-rule="evenodd" clip-rule="evenodd" d="M339.146 168.135H339.583V168.091C339.627 168.178 339.583 168.047 339.67 167.96C339.627 167.741 339.758 164.857 339.801 164.376C339.845 163.196 339.845 161.972 339.889 160.749L340.107 155.417C340.151 155.155 340.544 154.761 340.85 154.761C340.981 154.761 341.244 154.805 341.287 154.849L343.56 154.892C343.56 154.63 343.691 154.368 343.735 154.106C343.778 153.712 343.604 151.877 343.56 151.527C343.385 150.653 342.904 149.124 342.861 148.512C343.123 148.818 343.429 149.429 343.647 149.823C343.997 150.391 344.215 150.522 344.259 151.352C344.303 151.789 344.478 152.882 344.39 153.275C344.303 153.538 344.172 153.843 344.084 154.062C343.997 154.324 343.91 154.586 343.822 154.892C344.041 154.849 344.259 154.892 344.521 154.892L352.607 155.023C353.524 155.023 354.661 155.111 355.578 155.023L362.178 155.067C362.178 154.892 362.44 153.8 362.484 153.538C362.571 152.926 362.658 152.62 362.921 152.139C363.227 151.571 363.838 150.129 364.144 149.735C364.057 150.129 363.445 151.833 363.27 152.358C363.095 152.882 362.527 154.849 362.396 155.067L367.859 155.111C367.772 154.761 367.728 154.106 367.684 153.712C367.422 151.484 367.378 151.877 367.597 149.429C367.684 148.424 367.728 147.506 367.728 146.501C367.728 145.889 367.859 145.321 367.553 145.103C366.941 144.753 367.204 144.928 366.679 144.447L365.849 143.704C365.63 143.486 365.718 143.442 365.324 143.529C363.358 143.966 362.527 144.054 360.517 144.141C358.944 144.272 359.381 144.272 358.725 143.704C358.55 143.573 358.463 143.442 358.288 143.311C358.157 143.18 358.07 143.049 357.938 142.918C357.764 142.786 357.632 142.699 357.501 142.524L357.152 142.612C356.059 142.961 355.622 142.874 354.486 142.743C353.568 142.655 352.563 142.568 351.733 142.349C351.252 142.218 349.678 141.738 349.373 141.519L347.668 140.121C347.537 140.033 347.406 140.033 347.187 140.077L345.701 140.514C344.215 141.038 344.259 140.907 342.948 141.694C342.686 141.869 342.424 142 342.161 142.175L340.981 142.918C339.845 143.617 340.02 143.442 339.539 144.709C339.277 145.278 339.015 145.933 338.753 146.501C338.709 146.589 338.665 146.632 338.621 146.72C338.447 147.113 338.01 147.856 337.922 148.293L337.485 153.013C337.354 153.8 337.267 154.586 337.441 155.373C337.573 156.247 337.529 156.291 337.529 157.209L337.66 159.656C337.616 160.049 337.485 160.399 337.398 160.749C337.31 161.186 337.092 162.016 337.092 162.366C337.092 162.584 337.136 162.715 337.136 162.978L337.179 164.901C337.179 165.469 337.441 166.474 337.835 166.823L338.403 167.392C338.578 167.566 339.015 167.96 339.146 168.135Z" fill="#2C7F91"/>
<path fill-rule="evenodd" clip-rule="evenodd" d="M354.748 127.884C354.704 127.752 354.748 127.84 354.442 128.102C354.092 128.408 353.786 128.758 353.568 129.151L353.481 129.238C353.349 129.457 353.087 130.069 352.956 130.375C352.869 130.593 352.519 131.249 352.475 131.467C352.475 131.555 352.519 131.555 352.432 131.511C352.344 131.511 352.344 131.424 352.344 131.424L352.169 131.861C352.126 131.292 352.213 130.855 351.907 130.462C351.689 130.156 351.383 129.807 351.208 129.457L350.989 129.195C350.684 129.457 350.552 129.763 350.465 130.112C350.421 130.418 350.29 131.074 350.159 131.292C350.072 131.817 349.853 131.642 350.246 132.472C350.29 132.604 350.334 132.735 350.378 132.822C350.509 132.909 350.552 133.128 350.64 133.303C350.684 133.434 350.771 133.609 350.815 133.784C350.946 133.784 350.946 133.827 351.121 133.871C351.295 133.784 351.47 133.609 351.645 133.521C351.864 134.308 352.082 134.745 352.038 135.75C351.951 135.707 351.82 135.619 351.689 135.575C351.689 135.75 351.645 135.794 351.645 136.056C351.645 136.187 351.645 136.362 351.645 136.537L351.601 137.586C351.558 137.761 350.989 138.722 350.727 138.853L348.455 139.771C348.192 139.902 347.93 139.989 347.668 140.121L349.372 141.519C349.678 141.738 351.252 142.218 351.732 142.349C352.563 142.568 353.568 142.655 354.486 142.743C355.622 142.874 356.059 142.961 357.152 142.612C356.715 141.475 357.283 141.388 357.326 140.558C356.933 140.558 356.54 140.601 356.19 140.645C355.666 140.645 355.054 140.164 354.486 139.858C354.136 139.64 354.092 139.596 353.874 139.29C353.481 138.766 352.606 137.629 352.432 137.018C352.344 136.799 352.213 136.318 352.169 136.056C352.344 136.231 353.131 137.498 353.349 137.804L355.054 139.815C355.229 139.946 356.409 140.252 356.846 139.946L358.594 138.766L359.206 137.979C359.293 137.892 359.381 137.804 359.468 137.717C359.599 137.542 360.298 136.843 360.298 136.668C360.866 135.663 360.954 135.619 361.216 134.527C361.347 134.089 361.478 133.74 361.566 133.303C361.609 132.866 361.609 132.429 361.653 131.992C361.741 131.424 361.872 131.686 361.872 131.38C361.872 131.161 361.784 130.899 361.784 130.724C361.697 130.2 361.872 129.719 361.566 129.457L360.823 128.67C360.342 128.058 360.561 128.277 360.255 127.709C359.73 127.665 359.643 127.665 359.162 127.752L357.152 128.19C356.671 128.277 356.627 128.321 356.365 128.627L353.743 130.899C353.874 130.418 354.748 128.058 354.748 127.884Z" fill="#F09E80"/>
<path fill-rule="evenodd" clip-rule="evenodd" d="M371.353 169.533C371.178 169.752 370.784 173.729 370.653 174.078C370.435 174.122 363.573 173.947 363.136 173.947C362.524 173.947 361.913 173.947 361.301 173.947C360.645 173.947 360.077 173.947 359.421 173.947C358.766 173.904 358.154 173.904 357.498 173.904C354.439 173.904 351.336 173.729 348.146 173.772C346.922 173.772 345.524 173.685 344.387 173.685C343.164 173.685 341.896 173.685 340.629 173.685C341.066 173.947 341.94 173.51 342.945 173.991C343.557 174.297 348.102 176.351 348.277 176.482C347.228 176.395 346.66 175.564 343.295 175.608C343.557 175.783 344.344 175.87 344.737 175.958C346.004 176.22 347.753 176.788 348.976 177.225C350.113 177.618 349.457 177.094 350.375 177.575C350.768 177.749 351.161 177.968 351.599 178.186C351.992 178.405 352.385 178.624 352.779 178.842C353.128 179.017 353.609 179.323 354.002 179.454C354.439 178.973 354.396 179.192 355.139 178.842C356.624 178.186 356.144 178.318 358.067 178.405C358.504 178.405 359.29 178.492 359.727 178.449C359.203 178.186 358.373 178.012 358.154 177.881C358.81 177.312 359.64 177.575 360.383 177.706C361.607 177.924 361.694 178.536 362.437 178.361C362.35 178.186 361.038 177.138 360.689 177.05C360.427 177.006 360.033 177.05 359.815 176.919C359.946 176.701 361.038 176.132 361.344 175.914C361.825 175.652 362.437 175.215 363.049 175.084C363.792 174.952 364.491 174.821 365.234 174.69C366.37 174.472 366.37 174.428 367.55 174.515C368.337 174.559 369.167 174.646 369.954 174.69C370.828 174.778 370.653 174.734 371.484 173.729C372.27 172.767 372.358 172.592 373.232 171.675C373.407 171.544 373.8 171.15 373.887 171.019L373.45 170.975C373.713 170.757 374.849 170.538 375.198 170.364L375.286 170.276L374.237 170.145C374.324 170.014 374.412 170.014 374.543 169.926C374.849 169.752 374.849 169.795 375.111 169.577C375.242 169.489 375.33 169.446 375.373 169.315C375.024 169.315 374.718 169.315 374.368 169.358C374.062 169.358 373.669 169.402 373.363 169.402C372.664 169.446 372.052 169.489 371.353 169.533Z" fill="#030405"/>
<path fill-rule="evenodd" clip-rule="evenodd" d="M350.157 131.292C350.288 131.074 350.419 130.418 350.463 130.112C350.55 129.763 350.681 129.457 350.987 129.195L351.206 129.457C351.38 129.544 351.511 129.719 351.686 129.85C351.861 129.981 352.517 130.2 352.473 130.681C352.473 130.812 352.386 131.292 352.429 131.38C352.473 131.511 352.386 131.38 352.473 131.467C352.517 131.249 352.866 130.593 352.954 130.375C353.085 130.069 353.347 129.457 353.478 129.238C353.653 127.971 353.522 128.627 354.003 128.189C354.308 127.884 354.746 127.315 354.964 127.184C354.964 127.359 354.833 127.752 354.746 127.884C354.746 128.058 353.871 130.418 353.74 130.899L356.363 128.627C356.625 128.321 356.668 128.277 357.149 128.189L359.16 127.752C359.64 127.665 359.728 127.665 360.252 127.709C360.514 127.752 360.777 127.796 361.083 127.796C361.476 127.84 361.52 127.927 361.826 127.752C361.957 128.758 362 130.637 361.869 131.642C362 131.686 361.913 131.642 361.957 131.642L362.437 129.632C362.568 129.151 362.175 128.058 362.044 127.578C362.131 127.534 362.263 127.534 362.35 127.534L362.525 126.048C362.568 125.698 362.525 125.698 362.306 125.48C362.219 125.392 362.219 125.349 362.131 125.261C361.083 124.212 361.17 124.606 359.815 123.775C359.553 123.601 359.378 123.863 358.941 123.95C358.635 123.994 357.936 123.426 357.455 123.382H355.008C354.746 123.426 354.571 123.557 354.352 123.601C354.308 123.426 354.177 123.164 354.046 123.12C353.347 122.901 352.91 123.207 352.735 123.251L349.982 122.901C349.851 122.901 349.763 122.901 349.632 122.901C349.37 122.858 349.414 122.814 349.326 122.901L350.375 123.251C350.55 123.295 350.725 123.338 350.9 123.382C351.162 123.47 351.38 123.47 351.424 123.601C351.293 123.601 351.162 123.644 351.031 123.644L348.977 123.95C348.714 123.994 348.452 124.081 348.19 124.125V124.169C348.409 124.169 349.982 124.606 350.288 124.606C350.288 124.781 349.763 125.392 349.676 125.524L348.452 126.66C348.365 126.747 348.321 126.747 348.234 126.835C348.19 126.878 348.146 126.922 348.059 127.009C347.884 127.141 347.272 127.665 347.229 127.796C347.403 127.796 348.015 127.49 348.234 127.403C348.409 127.315 349.064 127.009 349.195 127.009L347.666 132.035C347.84 131.904 349.151 129.85 349.37 129.544C349.457 129.457 349.501 129.413 349.545 129.326C349.676 129.107 350.069 128.495 350.2 128.408C350.2 128.67 349.763 130.418 349.676 130.768L349.151 133.128C349.283 133.041 349.851 131.773 350.026 131.424C350.069 131.292 350.069 131.249 350.157 131.292Z" fill="#030405"/>
<path fill-rule="evenodd" clip-rule="evenodd" d="M360.386 187.845C360.517 187.758 360.605 187.583 360.692 187.452C360.736 187.364 361.042 186.883 361.129 186.665C361.392 186.097 361.829 184.873 362.003 184.218C362.047 184.086 362.047 184.086 362.135 183.999C362.266 183.912 364.844 183.781 365.194 183.781L365.412 183.693C365.456 183.693 365.543 183.693 365.631 183.693C366.286 183.649 368.166 183.693 368.865 183.693C369.477 183.693 370.089 183.693 370.7 183.693C371.094 183.693 370.7 183.649 371.006 183.606C371.137 183.562 371.312 183.562 371.443 183.562C372.23 183.431 373.235 183.387 373.978 183.3C374.459 183.212 375.114 183.169 375.639 183.125C376.557 183.038 376.469 182.994 377.169 183.343C377.518 183.518 378.043 183.868 378.392 183.955C378.261 183.649 377.081 183.125 376.775 182.95C376.076 182.513 375.77 182.295 374.983 182.12C373.629 181.77 374.284 181.858 372.886 182.163C372.143 182.295 371.4 182.557 370.657 182.557L373.41 181.552C373.585 181.508 373.716 181.464 373.891 181.377C374.022 181.333 374.197 181.289 374.372 181.202C374.896 180.983 375.726 180.809 376.163 180.503L377.999 179.148C379.529 178.099 379.048 178.405 379.529 176.875L380.271 174.428C380.403 173.947 380.49 173.947 380.271 173.466C380.097 173.204 379.966 172.855 379.834 172.592C379.441 173.641 379.048 174.734 378.611 175.739C378.436 176.176 378.217 176.919 377.999 177.269C377.824 177.618 377.081 177.968 376.732 178.186C375.814 178.711 374.896 179.279 374.022 179.804C373.279 180.284 373.279 180.153 372.317 180.109C371.356 180.022 371.225 179.935 370.394 180.328L367.466 181.683C366.505 182.12 365.325 182.513 364.276 182.863C364.014 182.95 363.752 183.038 363.489 183.125C363.096 183.3 363.052 183.081 362.79 182.906C362.309 182.644 359.818 181.989 358.769 181.508C358.551 181.377 358.245 181.158 358.07 181.115C358.157 180.983 358.376 181.027 358.595 181.027C358.769 180.983 358.988 180.983 359.163 180.983C359.556 180.94 359.993 180.94 360.343 180.896L360.255 180.852C360.255 180.852 360.255 180.852 360.212 180.809L359.206 180.634C358.769 180.59 358.376 180.503 357.983 180.459C356.628 180.241 356.54 179.935 355.754 179.847C355.754 179.847 355.754 179.847 355.754 179.891V180.022C355.404 179.847 354.88 179.498 354.486 179.585C354.224 179.672 353.918 180.109 353.481 180.372C352.695 180.765 350.466 181.552 349.766 181.945L349.417 182.163H349.373C350.466 182.032 351.515 181.77 352.563 181.595C353.569 181.464 353.394 181.289 354.049 180.328C354.18 180.153 354.355 179.891 354.443 179.716C354.749 179.804 359.556 182.207 359.818 182.382C360.823 182.95 360.911 182.732 361.304 183.868C361.435 184.261 361.392 184.349 361.304 184.698C361.129 185.31 360.474 187.408 360.386 187.845Z" fill="#030405"/>
<path fill-rule="evenodd" clip-rule="evenodd" d="M335.775 184.829C336.299 184.611 336.387 184.217 337.348 184.086C338.004 183.955 338.703 183.824 339.358 183.78C339.358 184.611 339.14 184.786 338.747 185.223C338.441 185.572 338.178 185.922 337.872 186.403C337.217 187.495 337.304 187.32 336.911 188.5C336.824 188.719 336.692 189.025 336.605 189.243C337.129 189.243 337.61 189.156 338.178 189.2C338.441 189.243 338.528 189.2 338.878 189.2C339.14 189.2 339.227 189.156 339.446 189.025C339.795 188.806 341.15 188.063 341.325 187.889C341.369 187.845 341.325 187.889 341.369 187.801C340.757 187.845 340.232 187.976 339.883 187.495C339.752 187.32 339.271 186.446 339.227 186.228C339.227 185.966 339.227 185.485 339.227 185.223C339.227 185.004 339.271 185.048 339.402 184.917C339.489 184.786 339.533 184.786 339.664 184.698C340.145 184.261 340.32 184.174 340.495 183.693L340.801 182.906C341.281 182.906 344.734 184.217 345.433 184.48L348.886 185.703C349.061 185.791 349.891 186.009 349.978 186.184L351.814 186.84C353.081 187.189 354.524 187.495 355.835 187.845C356.141 187.932 357.583 188.326 357.845 188.369L357.889 188.282C356.709 187.932 355.572 187.583 354.436 187.233C353.824 187.058 353.256 186.84 352.688 186.665C351.246 186.228 350.852 185.922 349.672 185.135C349.061 184.742 348.929 184.611 348.099 184.436C347.444 184.305 346.788 184.174 346.176 184.043C345.521 183.912 344.996 183.824 344.472 183.518C343.51 182.906 342.592 182.338 341.631 181.77C341.412 181.639 341.15 181.464 340.932 181.333C340.626 181.115 340.582 181.027 340.364 180.721C340.189 180.459 339.664 179.541 339.402 179.454C339.14 179.323 336.124 178.667 335.687 178.623C335.25 178.536 331.579 178.317 331.404 178.405L331.754 178.667C332.278 179.06 334.988 180.94 335.25 181.027C335.731 181.289 337.698 181.989 338.135 182.076C338.047 182.207 337.916 182.295 337.785 182.382C337.61 182.469 337.567 182.557 337.435 182.644C337.173 182.863 336.255 183.649 336.124 183.912C336.037 184.13 335.818 184.611 335.775 184.829Z" fill="#030405"/>
<path fill-rule="evenodd" clip-rule="evenodd" d="M360.688 187.452C361.43 187.976 361.343 188.413 362.567 188.413L364.49 188.588C364.708 188.632 364.927 188.632 365.189 188.632C365.276 188.5 366.719 187.976 367.025 187.889C367.418 187.757 367.549 187.67 367.855 187.452C368.205 187.189 368.292 187.189 368.816 187.102C369.516 187.015 370.259 186.883 371.002 186.796C371.613 186.709 371.919 186.971 372.444 187.233L372.575 187.277C372.706 187.32 372.531 187.233 372.881 187.277C372.793 187.102 372.444 186.796 372.182 186.446C372.007 186.184 371.788 185.791 371.657 185.485C371.089 184.349 371.133 184.655 370.521 183.999C370.39 183.868 370.39 183.912 370.346 183.737L365.189 183.78C364.839 183.78 362.261 183.912 362.13 183.999C362.042 184.086 362.042 184.086 361.999 184.217C361.824 184.873 361.387 186.097 361.125 186.665C361.037 186.883 360.731 187.364 360.688 187.452Z" fill="#F09E80"/>
<path fill-rule="evenodd" clip-rule="evenodd" d="M341.372 187.801C341.809 187.932 343.076 187.714 343.601 187.714C344.693 187.714 344.781 187.583 345.611 187.364L348.321 186.534C348.496 186.49 349.107 186.359 349.239 186.272C349.239 186.228 349.239 186.272 349.195 186.228C349.107 186.184 349.239 186.228 349.151 186.184C349.107 186.184 349.064 186.14 349.02 186.14C348.933 186.097 348.845 186.053 348.758 186.009C347.447 185.529 346.485 185.223 345.087 184.786C343.732 184.392 342.027 183.737 340.498 183.693C340.323 184.174 340.148 184.261 339.668 184.698C339.536 184.786 339.493 184.786 339.405 184.917C339.274 185.048 339.23 185.004 339.23 185.223C339.23 185.485 339.23 185.966 339.23 186.228C339.274 186.446 339.755 187.32 339.886 187.495C340.236 187.976 340.76 187.845 341.372 187.801Z" fill="#F09E80"/>
<path fill-rule="evenodd" clip-rule="evenodd" d="M357.498 142.524C357.629 142.699 357.76 142.787 357.935 142.918C358.066 143.049 358.154 143.18 358.285 143.311C358.46 143.442 358.547 143.573 358.722 143.704C359.377 144.272 358.94 144.272 360.514 144.141C362.524 144.054 363.354 143.967 365.321 143.53C365.714 143.442 365.627 143.486 365.845 143.704L366.676 144.447C367.2 144.928 366.938 144.753 367.55 145.103C367.856 145.321 367.725 145.889 367.725 146.501C367.725 147.507 367.681 148.424 367.594 149.429C367.375 151.877 367.419 151.484 367.681 153.712C367.725 154.106 367.768 154.761 367.856 155.111H367.9C368.031 154.892 368.074 154.849 368.162 154.543C368.424 153.625 368.511 154.018 368.511 152.707C368.511 152.183 368.468 151.789 368.468 151.265C368.468 150.959 368.424 150.828 368.424 150.566L368.38 148.337C368.424 148.075 368.38 147.944 368.38 147.638C368.38 147.375 368.38 147.113 368.337 146.895C368.249 146.152 368.424 146.239 368.074 145.671L366.938 143.792C366.676 143.355 366.676 143.224 366.195 143.049C365.845 142.918 365.496 142.743 365.146 142.612C364.753 142.437 364.447 142.306 364.097 142.131C363.354 141.825 362.262 141.607 361.431 141.388C361.344 141.388 361.257 141.344 361.169 141.301C360.645 141.17 359.771 140.907 359.29 140.907C359.29 140.951 358.984 141.257 358.897 141.344C358.765 141.519 358.678 141.65 358.547 141.825C357.979 142.655 358.197 142.262 357.498 142.524Z" fill="#134B58"/>
<path fill-rule="evenodd" clip-rule="evenodd" d="M372.53 188.894L374.715 189.375C375.064 189.418 375.414 189.506 375.807 189.593C376.201 189.68 376.288 189.593 376.769 189.331L378.473 188.457C378.736 188.326 378.954 187.976 379.129 187.758C379.304 187.495 379.566 187.233 379.697 186.971C379.435 186.796 379.129 186.578 378.867 186.359C377.599 185.31 377.905 185.572 376.157 184.829C374.933 184.349 375.239 184.48 373.884 184.305C373.447 184.218 373.054 184.174 372.617 184.13L371.656 183.999C371.306 183.999 371.393 183.999 371.35 184.086C371.699 184.305 372.093 184.567 372.398 184.829C372.617 185.004 373.666 186.709 373.841 187.058C373.928 187.277 374.278 188.063 374.321 188.326C374.103 188.457 373.622 188.544 373.36 188.632C373.141 188.675 372.442 188.719 372.311 188.763L372.53 188.894Z" fill="#030405"/>
<path fill-rule="evenodd" clip-rule="evenodd" d="M355.572 155.024C354.654 155.111 353.518 155.024 352.6 155.024L344.515 154.892C344.253 154.892 344.034 154.849 343.816 154.892H343.553L341.281 154.849C340.975 154.936 341.281 154.718 340.844 155.067L340.582 155.286C340.494 155.373 340.538 155.329 340.494 155.417L372.048 155.941C372.136 155.854 372.179 155.723 372.223 155.635C372.267 155.548 372.354 155.461 372.31 155.373L364.007 155.198C363.307 155.198 362.564 155.198 361.865 155.198C361.21 155.198 360.51 155.155 359.811 155.111L355.703 155.067C355.572 155.067 355.659 155.067 355.572 155.024Z" fill="#F1F1F1"/>
<path fill-rule="evenodd" clip-rule="evenodd" d="M365.189 188.632C365.495 188.632 365.758 188.675 366.107 188.675L367.069 188.632C367.375 188.632 367.681 188.588 368.03 188.588C368.729 188.588 370.478 188.5 370.958 188.544C371.308 188.632 372.138 188.981 372.444 188.894H372.532L372.313 188.763C372.444 188.719 373.144 188.675 373.362 188.632C373.624 188.544 374.105 188.457 374.324 188.326C374.28 188.063 373.93 187.277 373.843 187.058C373.668 186.709 372.619 185.004 372.401 184.829C372.095 184.567 371.701 184.305 371.352 184.086C370.871 183.737 371.089 183.737 370.346 183.737C370.39 183.912 370.39 183.868 370.521 183.999C371.133 184.655 371.089 184.349 371.658 185.485C371.789 185.791 372.007 186.184 372.182 186.446C372.444 186.796 372.794 187.102 372.881 187.277C372.532 187.233 372.706 187.32 372.575 187.277L372.444 187.233C371.92 186.971 371.614 186.709 371.002 186.796C370.259 186.883 369.516 187.015 368.817 187.102C368.292 187.189 368.205 187.189 367.855 187.452C367.549 187.67 367.418 187.757 367.025 187.889C366.719 187.976 365.277 188.5 365.189 188.632Z" fill="#BD755D"/>
<path fill-rule="evenodd" clip-rule="evenodd" d="M365.189 183.78L370.346 183.737C371.089 183.737 370.871 183.737 371.352 184.086C371.395 183.999 371.308 183.999 371.658 183.999L372.619 184.13C373.056 184.174 373.449 184.217 373.886 184.305C375.241 184.48 374.935 184.349 376.159 184.829C377.907 185.572 377.601 185.31 378.869 186.359C379.131 186.577 379.437 186.796 379.699 186.971L379.786 186.927C379.786 186.883 379.83 186.84 379.83 186.84C380.049 186.577 379.961 186.49 379.874 186.184C379.786 185.835 379.655 185.529 379.612 185.223C379.437 184.567 379.393 184.523 378.606 184.043C378.519 183.999 378.519 183.955 378.388 183.955C378.038 183.868 377.514 183.518 377.164 183.343C376.465 182.994 376.552 183.037 375.635 183.125C375.11 183.169 374.455 183.212 373.974 183.3C373.231 183.387 372.226 183.431 371.439 183.562C371.308 183.562 371.133 183.562 371.002 183.606C370.696 183.649 371.089 183.693 370.696 183.693C370.084 183.693 369.472 183.693 368.861 183.693C368.161 183.693 366.282 183.649 365.626 183.693C365.539 183.693 365.452 183.693 365.408 183.693L365.189 183.78Z" fill="#1A1E27"/>
<path fill-rule="evenodd" clip-rule="evenodd" d="M335.778 184.829C335.428 185.135 335.516 185.616 335.516 186.009C335.516 186.49 335.516 186.971 335.516 187.452C335.516 188.369 335.516 188.02 336.215 188.938C336.433 189.156 336.477 189.156 336.608 189.243C336.696 189.025 336.827 188.719 336.914 188.501C337.307 187.321 337.22 187.495 337.876 186.403C338.181 185.922 338.444 185.572 338.75 185.223C339.143 184.786 339.361 184.611 339.361 183.781C338.706 183.824 338.007 183.955 337.351 184.086C336.39 184.218 336.302 184.611 335.778 184.829Z" fill="#1A1E27"/>
<path fill-rule="evenodd" clip-rule="evenodd" d="M355.753 125.873L357.108 125.567C356.758 125.786 355.535 126.529 355.447 126.66L357.021 126.31C356.889 126.485 356.19 127.141 356.059 127.272L357.327 126.878L356.409 127.49C356.54 127.534 357.72 127.184 357.938 127.141L359.468 126.704L358.463 126.572C358.812 126.441 359.599 126.398 360.08 126.31C360.08 126.31 360.124 126.31 360.167 126.31L360.255 126.267L359.555 125.83L360.342 125.698C360.429 125.698 360.517 125.698 360.604 125.611C360.386 125.567 360.124 125.48 359.861 125.436C359.774 125.392 359.643 125.392 359.512 125.349C359.381 125.305 359.249 125.305 359.162 125.218L360.473 125.043C360.255 124.912 359.818 124.912 359.555 124.781L359.992 124.65C359.818 124.562 358.9 124.518 358.725 124.518C358.419 124.475 357.895 124.737 357.589 124.824C357.239 124.955 356.889 125.087 356.54 125.218C356.234 125.305 356.278 125.305 356.103 125.48C355.972 125.655 355.884 125.698 355.753 125.873Z" fill="#F1F1F1"/>
<path fill-rule="evenodd" clip-rule="evenodd" d="M357.152 142.612L357.502 142.524C358.201 142.262 357.983 142.655 358.551 141.825C358.682 141.65 358.769 141.519 358.9 141.344C358.988 141.257 359.294 140.951 359.294 140.907L358.026 140.077C358.026 139.858 358.201 139.596 358.288 139.421C358.376 139.29 358.551 138.897 358.594 138.766L356.846 139.946C356.409 140.252 355.229 139.946 355.054 139.815L353.35 137.804C353.131 137.498 352.345 136.231 352.17 136.056C352.214 136.318 352.345 136.799 352.432 137.018C352.607 137.629 353.481 138.766 353.874 139.29C354.093 139.596 354.137 139.64 354.486 139.858C355.054 140.164 355.666 140.645 356.191 140.645C356.54 140.601 356.934 140.558 357.327 140.558C357.283 141.388 356.715 141.475 357.152 142.612Z" fill="#BD755D"/>
<path fill-rule="evenodd" clip-rule="evenodd" d="M350.639 125.829L351.338 125.611C351.251 126.004 350.945 126.398 350.813 126.791C351.032 126.572 351.294 126.179 351.425 126.092L351.076 127.359C351.294 127.272 351.688 126.616 351.906 126.398C351.993 126.31 352.168 126.223 352.299 126.179C352.562 126.048 353.785 125.392 353.873 125.305C353.567 125.305 353.086 125.349 352.78 125.261C353.392 125.086 354.266 124.999 354.747 124.737C354.659 124.693 354.747 124.737 354.616 124.693C354.397 124.606 353.698 124.606 353.523 124.475C353.785 124.431 354.791 124.169 354.922 124.038C354.703 123.95 353.829 124.125 353.567 124.125C352.125 124.344 352.693 124.169 351.382 125.043C350.988 125.349 350.901 125.436 350.639 125.829Z" fill="#F1F1F1"/>
<path fill-rule="evenodd" clip-rule="evenodd" d="M340.494 183.693C342.024 183.737 343.728 184.392 345.083 184.786C346.482 185.223 347.443 185.529 348.754 186.009C348.842 186.053 348.929 186.097 349.016 186.14C349.06 186.14 349.104 186.184 349.147 186.184C349.235 186.228 349.104 186.184 349.191 186.228C349.235 186.272 349.235 186.228 349.235 186.272C349.41 186.272 349.541 186.272 349.628 186.272C349.759 186.228 349.803 186.184 349.978 186.184C349.89 186.009 349.06 185.791 348.885 185.703L345.433 184.48C344.733 184.217 341.281 182.906 340.8 182.906L340.494 183.693Z" fill="#BD755D"/>
<path fill-rule="evenodd" clip-rule="evenodd" d="M339.404 172.811L339.448 172.636L339.229 171.675C339.185 171.369 339.142 171.019 339.054 170.713C338.836 170.626 338.486 170.713 338.268 170.713L338.355 171.675L335.82 172.374C336.126 172.549 337.787 172.418 338.268 172.461C337.918 172.68 337.131 172.767 336.869 172.986C337.874 173.029 338.311 172.724 339.36 173.073V173.641C339.448 173.554 339.36 172.986 339.404 172.811Z" fill="#030405"/>
<path fill-rule="evenodd" clip-rule="evenodd" d="M360.3 136.668C360.431 136.624 360.343 136.668 360.431 136.581C360.474 136.537 360.518 136.537 360.562 136.493L361.13 135.838C361.305 135.575 361.829 133.565 361.873 133.215C361.917 132.735 361.917 132.123 361.873 131.642C362.004 130.637 361.96 128.758 361.829 127.752C361.523 127.927 361.48 127.84 361.086 127.796C360.78 127.796 360.518 127.752 360.256 127.709C360.562 128.277 360.343 128.058 360.824 128.67L361.567 129.457C361.873 129.719 361.698 130.2 361.785 130.724C361.785 130.899 361.873 131.161 361.873 131.38C361.873 131.686 361.742 131.424 361.654 131.992C361.611 132.429 361.611 132.866 361.567 133.303C361.48 133.74 361.348 134.089 361.217 134.527C360.955 135.619 360.868 135.663 360.3 136.668Z" fill="#BD755D"/>
<path fill-rule="evenodd" clip-rule="evenodd" d="M343.559 154.892H343.821C343.908 154.587 343.996 154.324 344.083 154.062C344.17 153.844 344.302 153.538 344.389 153.275C344.476 152.882 344.302 151.789 344.258 151.352C344.214 150.522 343.996 150.391 343.646 149.823C343.428 149.429 343.122 148.818 342.859 148.512C342.903 149.124 343.384 150.653 343.559 151.527C343.602 151.877 343.777 153.712 343.733 154.106C343.69 154.368 343.559 154.63 343.559 154.892Z" fill="#134B58"/>
<path fill-rule="evenodd" clip-rule="evenodd" d="M339.142 168.135H338.617C338.617 168.484 338.792 169.271 338.836 169.664C338.879 169.839 338.879 170.101 338.923 170.189C339.011 170.32 339.054 170.538 339.054 170.713C339.142 171.019 339.185 171.369 339.229 171.675L339.448 172.636C339.622 171.937 339.535 171.063 339.579 170.32C339.622 169.664 339.71 168.528 339.666 167.96C339.579 168.047 339.622 168.178 339.579 168.091V168.135H339.142Z" fill="#A6AAAD"/>
<path fill-rule="evenodd" clip-rule="evenodd" d="M362.172 155.067H362.39C362.522 154.849 363.09 152.882 363.264 152.358C363.439 151.833 364.051 150.129 364.139 149.735C363.833 150.129 363.221 151.571 362.915 152.139C362.653 152.62 362.565 152.926 362.478 153.538C362.434 153.8 362.172 154.892 362.172 155.067Z" fill="#134B58"/>
<path fill-rule="evenodd" clip-rule="evenodd" d="M351.117 133.871L351.336 134.177C351.423 134.308 351.467 134.439 351.554 134.57C351.729 134.92 351.685 135.051 351.685 135.575C351.816 135.619 351.948 135.706 352.035 135.75C352.079 134.745 351.86 134.308 351.642 133.521C351.467 133.609 351.292 133.784 351.117 133.871Z" fill="#BD755D"/>
<path fill-rule="evenodd" clip-rule="evenodd" d="M352.471 131.467C352.383 131.38 352.471 131.511 352.427 131.38C352.383 131.293 352.471 130.812 352.471 130.681C352.514 130.2 351.859 129.981 351.684 129.85C351.509 129.719 351.378 129.544 351.203 129.457C351.378 129.807 351.684 130.156 351.902 130.462C352.208 130.855 352.121 131.293 352.165 131.861L352.339 131.424C352.339 131.424 352.339 131.511 352.427 131.511C352.514 131.555 352.471 131.555 352.471 131.467Z" fill="#BD755D"/>
<path fill-rule="evenodd" clip-rule="evenodd" d="M350.813 133.784C350.769 133.609 350.682 133.434 350.638 133.303C350.551 133.128 350.507 132.91 350.376 132.822C350.332 133.915 350.332 134.133 350.332 135.182L350.813 133.784Z" fill="#030405"/>
<path fill-rule="evenodd" clip-rule="evenodd" d="M353.475 129.238L353.562 129.151C353.781 128.758 354.086 128.408 354.436 128.102C354.742 127.84 354.698 127.752 354.742 127.884C354.829 127.752 354.961 127.359 354.961 127.184C354.742 127.315 354.305 127.884 353.999 128.19C353.518 128.627 353.649 127.971 353.475 129.238Z" fill="#BD755D"/>
<path fill-rule="evenodd" clip-rule="evenodd" d="M351.031 131.249L351.337 131.511C351.731 131.205 351.818 131.118 351.599 130.768C351.425 130.549 351.25 130.287 351.075 130.069C351.031 130.331 351.075 130.418 351.119 130.681C351.162 130.899 351.075 131.074 351.031 131.249Z" fill="#BD755D"/>
<path fill-rule="evenodd" clip-rule="evenodd" d="M350.901 132.604C350.988 132.56 351.076 132.472 351.119 132.385H351.513C351.294 131.861 351.163 132.516 350.682 131.511C350.639 131.598 350.639 131.686 350.639 131.817C350.639 131.948 350.639 132.035 350.682 132.123C350.726 132.298 350.813 132.472 350.901 132.604Z" fill="#BD755D"/>
<path fill-rule="evenodd" clip-rule="evenodd" d="M138.76 164.42C139.065 163.371 138.541 161.579 138.76 160.181C140.726 160.88 147.325 161.361 149.554 161.055C150.647 159.831 151.565 155.679 152.002 153.844C152.045 153.887 152.089 153.931 152.089 154.018C152.133 154.106 152.177 154.106 152.177 154.15C152.657 155.111 153.662 160.399 154.799 161.011C157.334 161.579 161.442 159.831 162.709 160.093C162.928 159.787 162.84 159.962 163.059 159.7C163.102 159.656 163.146 159.612 163.19 159.569L163.452 159.35C162.971 155.941 162.622 152.62 162.185 149.211C161.791 146.064 160.83 142.087 161.223 138.984C161.573 136.362 163.802 120.498 164.414 119.405C166.118 122.115 169.745 131.642 173.897 133.958C176.432 135.357 190.854 131.074 193.651 130.025C193.171 128.845 191.947 127.534 191.422 126.223C192.777 126.179 192.646 126.835 193.171 127.621C195.399 127.578 197.585 127.796 199.77 127.753C201.911 127.753 203.222 126.485 204.752 126.223C203.659 126.092 202.173 126.179 201.037 126.223C199.551 126.223 198.59 125.961 197.235 125.961L191.597 126.136C190.985 126.048 190.723 125.83 189.718 125.873C182.026 126.048 181.633 127.053 176.126 127.534C175.645 127.01 175.558 126.616 175.514 126.092L171.712 126.048C171.362 125.48 171.013 124.956 171.406 124.125H173.766C173.941 122.683 173.985 120.716 173.591 119.449C173.417 117.57 170.576 109.659 169.745 107.999C168.697 105.813 166.948 106.95 163.758 106.25C161.529 105.77 159.475 105.114 157.202 104.808L154.842 116.346C154.58 117.439 153.357 118.269 152.439 118.793C152.351 117.089 151.827 109.484 152.351 108.173C152.788 107.081 152.264 106.687 151.434 106.032L150.035 106.993C151.04 109.747 150.516 111.844 150.341 114.991C150.297 115.909 150.166 120.454 149.773 121.066C149.598 121.328 148.768 121.94 148.505 122.071C147.5 119.493 145.883 106.906 144.965 105.158C141.819 105.464 136.094 107.474 132.248 107.999C124.556 108.96 129.888 122.639 131.985 126.31C132.597 127.447 133.253 128.364 133.952 129.326C137.711 134.396 136.531 129.195 137.754 141.301C138.41 147.769 138.366 149.692 137.842 155.941C137.361 161.142 137.973 159.175 138.497 160.181C138.585 161.317 138.191 163.59 138.76 164.42Z" fill="#754E42"/>
<path fill-rule="evenodd" clip-rule="evenodd" d="M138.762 164.42C138.369 167.523 139.724 176.089 140.03 179.76C140.467 185.529 140.248 190.205 140.117 195.974C139.899 207.031 140.074 218.088 139.986 229.145L140.554 229.626C141.385 229.276 141.647 228.62 142.783 228.839C143.876 229.101 143.745 229.8 145.012 229.363C144.968 225.343 149.033 183.431 149.557 177.531C149.951 173.641 150.344 163.764 151.874 161.098L152.791 161.142L162.1 231.549C168.306 234.302 164.635 231.592 167.651 230.238C167.213 218.569 166.033 206.638 165.422 194.881C165.116 188.894 165.028 183.125 164.46 177.094C163.936 171.412 163.324 165.775 162.712 160.093C161.445 159.831 157.336 161.579 154.802 161.011C153.665 160.399 152.66 155.111 152.179 154.15C152.179 154.106 152.136 154.106 152.092 154.018C152.092 153.931 152.048 153.887 152.005 153.844C151.568 155.679 150.65 159.831 149.557 161.055C147.328 161.361 140.729 160.88 138.762 160.181C138.544 161.579 139.068 163.371 138.762 164.42Z" fill="#223C4A"/>
<path fill-rule="evenodd" clip-rule="evenodd" d="M173.595 119.449C173.989 120.716 173.945 122.683 173.77 124.125H171.41C171.017 124.955 171.366 125.48 171.716 126.048L175.518 126.092C175.562 126.616 175.649 127.01 176.13 127.534C181.637 127.053 182.03 126.048 189.722 125.873C190.727 125.83 190.989 126.048 191.601 126.135L197.239 125.961C198.594 125.961 199.555 126.223 201.041 126.223C202.177 126.179 203.663 126.092 204.756 126.223L215.857 126.135C216.949 123.426 215.07 124.387 213.06 124.169L213.016 100.35C212.972 100.307 212.972 100.263 212.972 100.176L212.754 99.6948C212.229 99.2578 182.292 99.6074 176.349 99.52C175.955 99.52 175.387 99.52 175.081 99.52C174.076 99.5637 174.251 99.6511 174.12 99.8259C173.464 100.438 173.814 112.063 173.857 114.598C173.857 115.603 174.032 118.75 173.595 119.449Z" fill="#616368"/>
<path fill-rule="evenodd" clip-rule="evenodd" d="M141.597 88.1571C141.16 89.5119 141.291 90.5608 141.903 91.6971C142.646 93.0082 142.996 94.1445 143.87 95.1497L144.263 95.5867C144.613 96.0237 144.788 96.5482 145.05 96.8978C146.317 98.8208 146.448 98.1215 146.492 99.6949C146.536 101.006 145.618 103.628 149.595 104.939C152.436 105.857 154.271 104.371 155.801 103.322C155.757 100.044 155.451 98.7334 156.675 96.8104C158.03 94.5815 157.768 96.1986 158.685 93.7512C159.166 92.4401 158.948 93.2267 159.778 92.3963C160.565 91.6097 160.958 89.9489 160.04 88.8127L158.948 88.9875C158.598 85.666 158.948 85.4038 157.505 82.6504L158.03 84.2675C156.675 83.8304 154.883 82.2571 153.659 81.383C152.392 80.4653 150.731 79.4164 148.721 79.329C143.826 79.1542 143.564 83.9616 143.782 88.2008C142.996 87.8075 142.471 87.6764 141.597 88.1571Z" fill="#CB9E7A"/>
<path fill-rule="evenodd" clip-rule="evenodd" d="M200.945 107.911V119.449H183.857V118.531C183.07 118.837 176.209 122.901 175.903 123.426L211.041 123.47L210.997 102.317L175.51 102.361C176.865 102.273 208.856 102.142 210.604 102.448C209.905 103.016 208.899 103.497 208.156 103.934C207.37 104.415 206.758 104.764 205.796 105.333L200.945 107.911Z" fill="#54B8AE"/>
<path fill-rule="evenodd" clip-rule="evenodd" d="M183.863 118.531V119.449H200.951V107.911V103.585L183.951 103.541L183.863 118.531Z" fill="#FBF1D6"/>
<path fill-rule="evenodd" clip-rule="evenodd" d="M175.905 123.426C176.211 122.901 183.073 118.837 183.859 118.531L183.947 103.541L200.947 103.584V107.911L205.798 105.333C206.76 104.764 207.372 104.415 208.158 103.934C208.901 103.497 209.907 103.016 210.606 102.448C208.858 102.142 176.867 102.273 175.512 102.361C175.512 107.605 175.293 117.395 175.468 122.333C175.512 123.251 175.293 123.164 175.905 123.426Z" fill="#85D6CF"/>
<path fill-rule="evenodd" clip-rule="evenodd" d="M141.597 88.1571C142.471 87.6764 142.996 87.8075 143.782 88.2008C143.564 83.9615 143.826 79.1542 148.721 79.329C150.731 79.4164 152.392 80.4653 153.659 81.383C154.883 82.2571 156.675 83.8304 158.03 84.2675L157.505 82.6504C158.948 85.4038 158.598 85.666 158.948 88.9875L160.04 88.8127C160.04 85.8845 160.171 84.0927 159.559 81.1645C158.773 77.2749 158.773 77.406 156.894 75.046C157.374 74.8712 157.68 75.0897 158.161 74.8275C157.374 73.2979 156.282 72.3364 153.922 72.5112L154.577 71.7682C151.518 71.5497 148.634 72.7297 146.361 74.3468C145.312 75.0897 145.312 75.4393 144.482 76.226C142.69 77.9742 142.384 77.5371 141.86 80.9897C141.51 83.4371 141.466 85.6223 141.597 88.1571Z" fill="#030303"/>
<path fill-rule="evenodd" clip-rule="evenodd" d="M157.424 115.603L157.599 115.909C157.642 115.953 157.773 116.127 157.817 116.171C158.691 117.176 158.648 116.564 159.303 118.75C159.609 119.58 159.609 119.58 160.002 119.93C160.833 118.881 159.74 118.575 162.756 117.526C163.717 117.22 165.771 116.258 166.208 116.171C168.612 115.647 168 114.03 167.65 112.587C167.563 112.194 167.607 112.413 167.519 112.107C167.476 112.063 167.432 112.019 167.432 111.976C166.776 110.402 166.733 111.189 165.728 110.927C166.776 110.358 168.219 110.053 168.481 109.178C167.65 108.61 166.121 109.353 165.203 109.703C161.008 111.276 164.242 108.96 160.876 112.063C158.953 113.811 159.303 114.117 157.817 115.297C157.424 115.603 157.73 115.297 157.424 115.603Z" fill="#CB9E7A"/>
<path fill-rule="evenodd" clip-rule="evenodd" d="M162.095 231.549L161.658 235.438C164.674 235.919 171.492 236.793 174.376 235.176C174.988 234.87 176.911 233.603 177.173 233.253C171.054 232.685 171.492 233.297 167.646 230.237C164.63 231.592 168.301 234.302 162.095 231.549Z" fill="#FEFEFE"/>
<path fill-rule="evenodd" clip-rule="evenodd" d="M139.987 229.145C139.9 231.898 138.064 233.734 138.064 236.356C140.293 237.405 142.435 237.886 145.101 236.706C145.363 234.739 145.8 231.024 145.013 229.363C143.746 229.8 143.877 229.101 142.784 228.839C141.648 228.62 141.386 229.276 140.556 229.626L139.987 229.145Z" fill="#FEFEFE"/>
<path fill-rule="evenodd" clip-rule="evenodd" d="M184.606 117.439C185.917 117.307 187.534 117.832 188.714 117.351L188.671 108.086L184.562 107.955L184.606 117.439Z" fill="#FDCC7C"/>
<path fill-rule="evenodd" clip-rule="evenodd" d="M574.134 154.455C574.309 154.805 573.784 155.679 573.697 155.854C572.735 157.384 572.254 158.433 572.036 160.399C571.774 162.803 572.167 165.512 572.954 167.567C573.041 169.227 576.144 175.87 577.149 177.618C578.286 179.629 580.077 182.251 581.738 183.737C582.132 184.087 583.224 185.048 583.749 185.31C584.535 185.878 585.191 186.315 586.021 186.796C586.502 187.058 588.031 187.932 588.6 187.889C589.823 187.277 591.615 185.616 592.314 184.698C594.15 182.295 594.019 180.765 594.456 179.978C594.587 179.017 595.068 177.662 594.98 176.613C594.412 176.264 592.926 174.865 592.402 174.341L589.954 171.981L589.823 171.893C589.474 171.718 589.08 171.806 588.512 171.806C585.453 171.587 582.263 170.713 579.64 169.052C578.373 168.222 577.062 167.217 576.1 165.993C575.707 165.512 575.183 164.726 574.877 163.983C573.653 161.492 573.478 157.821 575.707 156.684C577.717 155.723 579.16 157.165 580.165 158.214L583.355 162.41C583.399 162.453 583.486 162.541 583.53 162.584L584.492 163.764C584.754 164.114 585.016 164.376 585.278 164.638C585.54 164.944 585.934 165.25 586.109 165.469L586.152 165.338C586.152 164.726 585.672 164.114 585.584 163.458C593.494 163.852 598.258 162.278 604.289 157.733C604.42 157.864 604.333 157.69 604.377 157.908L605.426 154.543L604.683 153.8C604.508 153.844 602.454 155.286 602.104 155.504C596.685 158.826 591.659 160.093 585.497 157.209C582.219 155.723 580.995 154.193 580.252 153.844L580.034 153.756C579.553 154.412 578.635 154.849 577.455 154.936C576.581 154.98 574.92 154.718 574.352 154.281L574.134 154.455Z" fill="#D03723"/>
<path fill-rule="evenodd" clip-rule="evenodd" d="M627.623 179.935C626.924 179.891 626.181 179.935 625.438 179.935C625.088 179.935 624.739 179.935 624.389 179.935C623.952 179.935 623.69 180.022 623.384 179.804C623.296 179.935 623.515 179.978 622.816 179.978C622.553 179.978 622.335 179.978 622.116 179.978H612.545C609.573 179.978 605.29 179.891 602.319 179.978C601.619 179.978 601.75 179.978 601.794 179.716L601.707 179.847C601.663 179.847 601.619 179.891 601.576 179.891C601.226 180.066 595.239 179.847 594.452 179.978C594.015 180.765 594.146 182.295 592.311 184.698C591.611 185.616 589.819 187.277 588.596 187.889C588.989 188.238 591.568 188.151 592.005 188.151C593.097 188.151 594.583 188.151 595.588 188.064C597.817 187.801 600.265 187.845 602.493 187.626C607.082 187.233 611.628 187.015 616.173 186.621C618.489 186.403 620.674 186.272 622.947 186.053C625.176 185.878 627.579 185.529 629.852 185.529C630.857 185.529 643.881 185.616 644.493 185.485C644.318 185.616 644.449 185.572 644.187 185.485C643.924 185.616 635.446 185.529 633.96 185.529H631.382C631.032 185.529 630.726 185.572 630.507 185.398L640.035 184.524C640.122 184.524 640.035 184.261 640.297 184.174L640.122 184.043C640.122 183.3 640.035 180.503 640.166 180.022C639.336 179.672 631.556 180.241 630.289 179.804C629.852 179.672 629.415 179.41 629.065 179.629C628.541 179.935 628.497 180.109 627.623 179.935Z" fill="#85C8D8"/>
<path fill-rule="evenodd" clip-rule="evenodd" d="M582.827 191.647H630.77C631.12 191.472 634.441 191.429 635.14 191.341C636.583 191.254 638.069 191.166 639.467 191.035C640.866 190.948 642.264 190.773 643.663 190.598C644.58 190.467 645.673 190.292 646.547 189.986C647.509 189.681 647.421 189.287 646.503 188.981C646.197 188.894 645.892 188.85 645.586 188.763C644.93 188.632 644.231 188.588 643.575 188.457C643.75 188.369 643.925 188.413 644.187 188.413C644.799 188.413 644.624 188.369 644.712 188.238C643.663 188.457 582.084 188.326 576.752 188.326C574.218 188.326 569.323 188.413 567.05 188.282C567.05 188.326 567.094 188.326 567.094 188.326L567.312 188.369C567.749 188.457 568.929 188.282 569.279 188.457C568.492 188.544 567.181 188.763 566.438 189.025C565.87 189.243 565.521 189.549 566.132 189.855C566.22 189.899 566.438 189.986 566.569 190.03C568.536 190.642 571.814 190.773 573.824 191.079C575.485 191.298 582.39 191.516 582.827 191.647Z" fill="#E0D1B9"/>
<path fill-rule="evenodd" clip-rule="evenodd" d="M607.262 165.818C607.175 165.906 607.218 165.862 607.131 165.949L606.257 166.343C605.951 166.474 605.689 166.649 605.339 166.824C602.324 168.441 599.789 170.932 597.56 173.423C596.424 174.69 595.856 175.608 595.113 176.482C595.025 176.569 595.069 176.569 594.981 176.613C595.069 177.662 594.588 179.017 594.457 179.978C595.244 179.847 601.231 180.066 601.581 179.891C601.624 179.891 601.668 179.847 601.712 179.847L601.799 179.716C602.061 179.541 605.164 174.122 608.704 171.456C609.622 170.757 610.933 170.014 612.463 170.495C615.435 171.456 620.155 176.089 622.253 178.536C622.471 178.755 622.646 178.973 622.864 179.235C622.995 179.367 623.17 179.672 623.389 179.804C623.695 180.022 623.957 179.935 624.394 179.935C624.744 179.935 625.093 179.935 625.443 179.935C626.186 179.935 626.929 179.891 627.628 179.935L628.721 179.279C628.633 179.104 628.458 178.929 628.153 179.017L626.929 179.585C626.667 179.76 626.448 179.891 626.273 179.716C626.754 179.367 627.89 179.104 628.24 178.755C627.541 177.181 623.214 172.287 622.078 171.107C620.155 169.184 617.707 167.129 615.085 165.993C614.648 165.818 614.211 165.687 613.861 165.512C614.386 165.425 615.26 165.512 615.653 165.338L607.262 165.818Z" fill="#5BB5BA"/>
<path fill-rule="evenodd" clip-rule="evenodd" d="M589.952 171.981C590.083 171.631 589.864 171.981 590.126 171.849L592.093 171.718C595.371 171.456 597.774 170.582 600.266 168.484C601.052 167.829 602.407 166.168 602.494 166.124L603.106 165.075L600.965 163.852C600.965 163.808 600.965 163.808 600.921 163.808C600.528 163.633 600.397 163.895 600.047 164.114C599.785 164.289 599.479 164.42 599.217 164.551C598.561 165.032 597.163 165.6 596.332 165.949C595.808 166.124 595.327 166.299 594.759 166.474C594.103 166.649 593.404 166.561 592.88 166.692H593.71C593.623 166.736 593.71 166.692 593.535 166.78L592.661 166.955C592.268 166.998 591.962 167.042 591.569 167.086C589.952 167.217 588.903 167.217 587.504 166.43C587.242 166.299 587.023 166.168 586.761 165.993C586.586 165.862 586.499 165.818 586.412 165.687L586.149 165.338L586.106 165.469C585.931 165.25 585.537 164.944 585.275 164.638C585.013 164.376 584.751 164.114 584.489 163.764L583.527 162.584C583.483 162.541 583.396 162.453 583.352 162.366L580.162 158.214C579.157 157.165 577.715 155.723 575.704 156.684C573.475 157.821 573.65 161.492 574.874 163.983C575.18 164.726 575.704 165.512 576.097 165.993C577.059 167.217 578.37 168.222 579.637 169.052C582.26 170.713 585.45 171.587 588.509 171.806C589.077 171.806 589.471 171.718 589.82 171.893L589.952 171.981Z" fill="#E64123"/>
<path fill-rule="evenodd" clip-rule="evenodd" d="M573.913 145.933C573.563 144.622 573.738 144.229 572.47 143.748C572.033 143.486 571.203 143.442 570.897 143.835C570.504 144.36 570.504 147.419 572.995 147.725C573.038 148.555 574.262 150.435 574.262 150.522C574.35 150.915 574.175 153.887 574.131 154.455L574.35 154.281C574.918 154.718 576.578 154.98 577.453 154.936C578.633 154.849 579.55 154.412 580.031 153.756L580.25 153.844L580.206 153.8C580.162 153.931 579.856 153.101 579.9 152.489C581.517 152.401 582.173 152.401 582.959 151.309C584.27 149.429 584.314 146.414 584.314 144.098C584.314 143.398 584.314 142.699 584.314 142C584.27 141.344 584.095 140.558 584.095 139.946C583.964 139.946 584.052 140.121 583.79 139.509C583.615 139.028 583.309 138.46 582.959 138.11C582.129 137.28 581.692 138.023 580.861 138.329C577.627 139.509 576.098 137.411 574.481 137.804C572.427 138.285 574.262 141.17 574.524 142.044C574.743 142.83 575.136 145.496 575.049 146.064C574.83 146.152 574.655 146.152 574.393 146.152C574.044 146.152 574 146.195 573.913 145.933Z" fill="#F0AF79"/>
<path fill-rule="evenodd" clip-rule="evenodd" d="M604.814 159.263V159.569L605.469 159.612C605.644 159.394 605.688 159.044 605.732 158.738L606.431 155.941L609.621 155.767L608.747 159.35C607.96 159.525 606.649 159.481 605.644 159.612C606.037 159.656 608.485 160.006 608.223 160.705C607.786 161.186 606.212 161.317 605.426 161.623C604.814 161.885 604.726 161.885 604.42 162.453C604.246 162.803 603.896 163.284 603.809 163.764H604.377L617.837 163.021C618.056 162.715 620.94 153.232 620.94 152.795L606.343 153.669L604.814 159.263Z" fill="#C0E3E7"/>
<path fill-rule="evenodd" clip-rule="evenodd" d="M610.541 155.592C610.148 156.378 609.711 158.432 609.405 159.438C609.23 159.962 608.268 162.978 608.312 163.24L617.577 162.672L619.544 155.111L610.541 155.592Z" fill="#BAC5C8"/>
<path fill-rule="evenodd" clip-rule="evenodd" d="M605.424 154.543L604.375 157.908L603.938 159.394L603.895 159.656L604.681 159.569L604.812 159.263L606.342 153.669L620.939 152.795C620.939 153.232 618.055 162.715 617.836 163.021L604.375 163.764L603.72 163.852L603.108 165.075L602.496 166.124L607.26 165.818L615.651 165.338L618.098 165.206C618.186 165.032 622.206 152.795 622.294 152.139L605.905 153.101C605.73 153.363 605.512 154.149 605.424 154.543Z" fill="#3C391D"/>
<path fill-rule="evenodd" clip-rule="evenodd" d="M572.908 135.138C572.34 135.488 570.81 135.881 570.242 137.149C570.417 137.061 570.286 137.28 570.373 137.061C570.33 137.367 570.198 137.586 570.636 137.673C571.378 137.761 573.039 137.455 573.345 137.673C573.083 138.067 572.471 138.373 572.69 139.596C573.083 141.869 574.132 141.781 574.088 145.933C574.001 145.977 574.219 146.152 573.913 145.933C574.001 146.195 574.044 146.152 574.394 146.152C574.656 146.152 574.831 146.152 575.05 146.064C575.137 145.496 574.744 142.83 574.525 142.044C574.263 141.17 572.427 138.285 574.481 137.804C576.098 137.411 577.628 139.509 580.862 138.329C581.693 138.023 582.13 137.28 582.96 138.11C583.31 138.46 583.615 139.028 583.79 139.509C584.053 140.121 583.965 139.946 584.096 139.946C584.533 139.247 585.101 137.061 584.533 136.275C584.009 135.576 582.392 134.92 581.299 134.701C578.502 134.177 575.618 134.308 572.908 135.138Z" fill="#99643A"/>
<path fill-rule="evenodd" clip-rule="evenodd" d="M640.172 180.022C640.041 180.503 640.128 183.3 640.128 184.043L640.303 184.174L643.187 185.048L644.761 179.935C644.979 179.235 646.378 175.171 646.29 174.778C642.881 174.472 643.581 176.001 642.27 177.968C642.095 178.274 641.745 178.624 641.701 178.842C641.701 179.104 642.27 180.634 642.313 181.202L641.789 181.333L641.352 179.192C640.478 179.541 641.09 180.241 641.133 181.726H640.609L640.478 179.935C640.303 179.978 640.259 180.022 640.172 180.022Z" fill="#E73D3A"/>
<path fill-rule="evenodd" clip-rule="evenodd" d="M603.939 159.394C603.633 159.787 603.939 159.612 603.459 159.875C603.196 159.962 603.065 160.049 602.89 160.224C601.885 161.011 601.405 163.327 600.924 163.808C600.968 163.808 600.968 163.808 600.968 163.852L603.109 165.075L603.721 163.852L604.376 163.764H603.808C603.896 163.283 604.245 162.803 604.42 162.453C604.726 161.885 604.813 161.885 605.425 161.623C606.212 161.317 607.785 161.186 608.222 160.705C608.485 160.006 606.037 159.656 605.644 159.612H605.469L604.813 159.569V159.263L604.682 159.569L603.896 159.656L603.939 159.394Z" fill="#F0AF79"/>
<path fill-rule="evenodd" clip-rule="evenodd" d="M610.018 160.006C609.887 160.574 609.275 162.453 609.319 162.89L615.306 162.584L615.962 159.569L610.018 160.006Z" fill="#A2ABAE"/>
<path fill-rule="evenodd" clip-rule="evenodd" d="M570.246 137.149C569.852 137.717 569.94 137.979 570.115 138.635C570.333 139.553 571.076 143.136 571.295 143.53C571.775 143.573 572.169 143.442 572.475 143.748C573.742 144.229 573.567 144.622 573.917 145.933C574.223 146.152 574.004 145.977 574.092 145.933C574.135 141.781 573.086 141.869 572.693 139.596C572.475 138.373 573.086 138.067 573.349 137.673C573.043 137.455 571.382 137.761 570.639 137.673C570.202 137.586 570.333 137.367 570.377 137.061C570.289 137.28 570.421 137.061 570.246 137.149Z" fill="#69381D"/>
<path fill-rule="evenodd" clip-rule="evenodd" d="M610.062 159.175L615.525 158.782C615.657 158.52 616.225 156.247 616.268 155.766L611.199 156.072C610.805 156.16 610.937 156.291 610.631 157.296C610.456 157.777 610.062 158.826 610.062 159.175Z" fill="#A2ABAE"/>
<path fill-rule="evenodd" clip-rule="evenodd" d="M605.473 159.612H605.647C606.653 159.481 607.964 159.525 608.75 159.35L609.624 155.766L606.434 155.941L605.735 158.738C605.691 159.044 605.647 159.394 605.473 159.612Z" fill="#BAC5C8"/>
<path fill-rule="evenodd" clip-rule="evenodd" d="M592.887 166.692C593.411 166.561 594.111 166.649 594.766 166.474C595.334 166.299 595.815 166.124 596.339 165.949C597.17 165.6 598.568 165.032 599.224 164.551L590.789 165.075L590.833 166.736C591.314 166.867 592.319 166.692 592.887 166.692Z" fill="#3C391D"/>
<path fill-rule="evenodd" clip-rule="evenodd" d="M581.824 149.036C581.561 148.949 581.649 149.036 581.43 148.861C582.042 148.818 582.042 148.555 582.042 147.944H578.021C578.153 149.561 579.507 150.522 581.037 149.998C581.605 149.823 581.736 149.604 581.824 149.036Z" fill="#FEFEFE"/>
<path fill-rule="evenodd" clip-rule="evenodd" d="M827.176 134.658C827.919 132.866 826.87 131.511 829.492 128.714C830.934 127.184 832.246 125.786 833.426 124.081C843.74 109.616 829.886 94.4941 815.988 99.3452C806.023 102.798 801.347 115.559 810.787 126.048C811.705 127.097 814.196 129.807 814.633 130.724C816.6 134.658 812.972 134.92 818.916 134.92C820.795 134.92 825.865 135.138 827.176 134.658Z" fill="#A82682"/>
<path fill-rule="evenodd" clip-rule="evenodd" d="M825.559 133.084C826.783 127.971 827.351 128.758 829.667 125.873C832.552 122.246 835.917 119.055 835.13 112.5C834.212 104.852 826.608 97.9904 817.386 100.744C810.481 102.798 804.669 110.97 808.689 119.842C809.826 122.421 811.749 124.344 813.453 126.398C814.327 127.49 815.988 128.801 816.643 130.724C817.168 132.21 816.556 133.041 817.911 133.172C819.309 133.303 824.16 133.215 825.559 133.084Z" fill="white"/>
<path fill-rule="evenodd" clip-rule="evenodd" d="M818.959 130.724L820.313 130.855C820.838 129.107 820.445 124.344 820.139 122.246C819.658 118.968 818.871 117.613 817.997 114.816C820.357 115.122 819.964 114.641 821.406 113.986C822.499 114.816 822.717 115.078 824.64 114.816C823.984 117.307 823.242 117.482 822.542 122.027C822.236 124.212 821.756 129.02 822.324 130.812L823.722 130.768C824.771 127.359 822.979 123.601 826.126 116.04C826.694 114.773 827.874 113.418 827.481 112.107C825.907 111.626 825.252 112.806 823.853 113.024C822.018 113.287 822.236 111.145 820.619 112.238C818.915 113.374 819.396 113.374 817.167 112.325C815.462 111.582 814.457 112.063 815.419 113.811C816.642 116.04 817.647 118.487 818.128 121.197C818.609 123.688 818.434 129.195 818.959 130.724Z" fill="#A82682"/>
<path fill-rule="evenodd" clip-rule="evenodd" d="M822.06 103.628L822.148 102.142C816.423 101.006 810.61 106.906 810.566 109.353C810.566 110.14 810.916 110.577 811.703 110.227C812.271 109.965 812.489 109.266 812.795 108.698C813.451 107.561 814.019 106.819 814.937 106.076C817.952 103.803 818.258 104.459 822.06 103.628Z" fill="#A82682"/>
<path fill-rule="evenodd" clip-rule="evenodd" d="M816.907 138.766H825.735C827.09 138.766 827.396 138.678 827.221 137.28C825.997 136.668 818.699 136.93 816.907 136.93C814.634 136.93 814.678 138.766 816.907 138.766Z" fill="#A82682"/>
<path fill-rule="evenodd" clip-rule="evenodd" d="M816.644 140.776C814.59 143.136 825.603 142.262 825.909 141.956C828.444 139.553 816.993 140.383 816.644 140.776Z" fill="#A82682"/>
<path fill-rule="evenodd" clip-rule="evenodd" d="M818.26 145.846H824.379C826.957 143.661 822.805 143.967 821.188 143.923C819.571 143.923 815.857 143.748 818.26 145.846Z" fill="#A82682"/>
<path fill-rule="evenodd" clip-rule="evenodd" d="M809.739 112.893C809.564 114.117 810.219 120.017 811.705 118.531C812.71 117.832 811.924 117.089 811.661 115.865C811.399 114.816 811.487 113.636 811.05 112.937L809.739 112.893Z" fill="#A82682"/>
<path fill-rule="evenodd" clip-rule="evenodd" d="M820.404 90.9541L820.535 94.363L822.065 94.4067C822.284 93.0082 822.458 90.7356 821.978 89.4245L820.667 89.3808C820.492 89.8615 820.404 90.2986 820.404 90.9541Z" fill="#FEFEFE"/>
<path fill-rule="evenodd" clip-rule="evenodd" d="M800.255 101.225C799.862 102.667 800.517 102.71 801.697 103.41C802.79 104.022 803.314 104.677 804.625 104.327C804.975 102.842 804.363 102.842 803.183 102.186C802.484 101.793 801.042 100.788 800.255 101.225Z" fill="#FEFEFE"/>
<path fill-rule="evenodd" clip-rule="evenodd" d="M838.019 104.327C839.33 104.677 839.68 104.153 840.816 103.497C842.171 102.71 842.826 102.71 842.389 101.224C841.253 101.006 840.597 101.53 839.636 102.099C838.325 102.841 837.669 102.798 838.019 104.327Z" fill="#FEFEFE"/>
<path fill-rule="evenodd" clip-rule="evenodd" d="M809.085 92.6585C808.866 92.877 808.429 92.9644 809.041 94.2755C809.435 95.0622 810.789 97.9029 811.838 96.9415C812.625 96.1985 810.265 91.697 809.085 92.6585Z" fill="#FEFEFE"/>
<path fill-rule="evenodd" clip-rule="evenodd" d="M832.596 92.7896C829.799 94.9311 830.105 100.7 833.514 94.4066C833.689 94.057 834.038 93.5326 833.863 93.0518C833.82 92.8333 833.689 92.6585 833.426 92.5711C832.465 92.2652 832.64 92.7459 832.596 92.7896Z" fill="#FEFEFE"/>
</g>
</g>
<defs>
<clipPath id="clip0">
<rect width="995" height="282" fill="white"/>
</clipPath>
<clipPath id="clip1">
<rect width="995" height="299.995" fill="white"/>
</clipPath>
</defs>
</svg>
